<?xml version="1.0" encoding="UTF-8" standalone="no"?>
<!-- Created with Inkscape (http://www.inkscape.org/) -->

<svg
   xmlns:dc="http://purl.org/dc/elements/1.1/"
   xmlns:cc="http://creativecommons.org/ns#"
   xmlns:rdf="http://www.w3.org/1999/02/22-rdf-syntax-ns#"
   xmlns:svg="http://www.w3.org/2000/svg"
   xmlns="http://www.w3.org/2000/svg"
   xmlns:sodipodi="http://sodipodi.sourceforge.net/DTD/sodipodi-0.dtd"
   xmlns:inkscape="http://www.inkscape.org/namespaces/inkscape"
   width="150"
   height="150"
   viewBox="0 0 39.687499 39.687501"
   version="1.1"
   id="svg8"
   inkscape:version="0.92.1 r15371"
   sodipodi:docname="aboutHoverBackground_transparent.svg">
  <defs
     id="defs2" />
  <sodipodi:namedview
     id="base"
     pagecolor="#ffffff"
     bordercolor="#666666"
     borderopacity="1.0"
     inkscape:pageopacity="0.0"
     inkscape:pageshadow="2"
     inkscape:zoom="1"
     inkscape:cx="77.015404"
     inkscape:cy="64.282014"
     inkscape:document-units="px"
     inkscape:current-layer="layer1"
     showgrid="false"
     units="px"
     inkscape:pagecheckerboard="true"
     inkscape:showpageshadow="false"
     borderlayer="true"
     inkscape:window-width="1920"
     inkscape:window-height="1017"
     inkscape:window-x="-8"
     inkscape:window-y="-8"
     inkscape:window-maximized="1"
     inkscape:object-nodes="false"
     inkscape:object-paths="false" />
  <metadata
     id="metadata5">
    <rdf:RDF>
      <cc:Work
         rdf:about="">
        <dc:format>image/svg+xml</dc:format>
        <dc:type
           rdf:resource="http://purl.org/dc/dcmitype/StillImage" />
        <dc:title></dc:title>
      </cc:Work>
    </rdf:RDF>
  </metadata>
  <g
     inkscape:label="Layer 1"
     inkscape:groupmode="layer"
     id="layer1"
     transform="translate(0,-257.31249)">
    <circle
       style="opacity:0.31799999;fill:#ffffff;fill-opacity:1;stroke:none;stroke-width:0.39687499;stroke-linecap:round;stroke-linejoin:miter;stroke-miterlimit:4;stroke-dasharray:none;stroke-opacity:1"
       id="path4519"
       cx="-29.553558"
       cy="249.17329"
       r="19.84375" />
    <path
       style="opacity:1;vector-effect:none;fill:none;fill-opacity:1;stroke:#f2f2f2;stroke-width:0.52916667;stroke-linecap:round;stroke-linejoin:round;stroke-miterlimit:4;stroke-dasharray:none;stroke-dashoffset:0;stroke-opacity:1"
       d="m 17.264062,272.32759 0.198438,0.39688 0.562239,0.19844 0.892969,-0.1323 0.826823,-0.26458 3.671094,1.32292 0.297656,-0.42995 0.09922,-0.76068 -0.496094,-0.99218 -0.892969,-0.72761 -0.926041,-0.42995 -0.56224,0.0331 -0.859896,0.29765 -0.727604,0.62839 -0.463021,0.52916 z"
       id="path5151"
       inkscape:connector-curvature="0" />
    <path
       style="opacity:1;vector-effect:none;fill:none;fill-opacity:1;stroke:#f2f2f2;stroke-width:0.26458333;stroke-linecap:round;stroke-linejoin:round;stroke-miterlimit:4;stroke-dasharray:none;stroke-dashoffset:0;stroke-opacity:1"
       d="m 18.123958,273.08827 0.429948,0.49609 0.23151,0.23152 -0.09922,0.33072 -0.264584,0.42995 0.09922,0.19844 0.330729,0.0661 -0.06615,0.42994 0.231511,0.0661 -0.03307,0.16536 -0.198438,0.29766 0.198438,0.0992 0.165365,0.0992 v 0.29765 l 1.852083,-0.99218 0.760677,-0.33073 0.562239,-0.0331 0.727605,0.26459 0.496093,0.26458 -0.06615,-0.0661 -0.06615,-0.46303 v -0.62838 l -0.06615,-0.29766"
       id="path5153"
       inkscape:connector-curvature="0" />
    <path
       style="opacity:1;vector-effect:none;fill:none;fill-opacity:1;stroke:#f2f2f2;stroke-width:0.26458333;stroke-linecap:round;stroke-linejoin:round;stroke-miterlimit:4;stroke-dasharray:none;stroke-dashoffset:0;stroke-opacity:1"
       d="m 21.199739,275.07265 0.396875,-0.42995 0.628386,-0.23151 h 0.562239"
       id="path5155"
       inkscape:connector-curvature="0" />
    <path
       style="opacity:1;vector-effect:none;fill:none;fill-opacity:1;stroke:#f2f2f2;stroke-width:0.26458333;stroke-linecap:round;stroke-linejoin:round;stroke-miterlimit:4;stroke-dasharray:none;stroke-dashoffset:0;stroke-opacity:1"
       d="m 20.604427,274.34504 0.396875,-0.39687 -0.132292,-0.52917 -0.132292,-0.23151 -0.297656,-0.0331"
       id="path5157"
       inkscape:connector-curvature="0" />
    <path
       style="fill:none;stroke:#f2f2f2;stroke-width:0.52916667;stroke-linecap:round;stroke-linejoin:round;stroke-opacity:1;stroke-miterlimit:4;stroke-dasharray:none"
       d="m 16.767969,287.3427 c -0.08552,-0.0243 -0.655294,0.0392 -0.694532,0 -0.07166,-0.0717 -0.159852,-0.12678 -0.23151,-0.19844 -0.01103,-0.011 -0.02205,-0.0882 -0.03307,-0.0992 -0.02756,-0.0276 -0.07166,-0.0386 -0.09922,-0.0661 -0.01559,-0.0156 0.01559,-0.0506 0,-0.0661 -0.02205,-0.022 -0.07717,-0.011 -0.09922,-0.0331 -0.02756,-0.0276 -0.0055,-0.10473 -0.03307,-0.13229 -0.09922,-0.0992 -0.132292,-0.26459 -0.231511,-0.36381 -0.02205,-0.022 0.02205,-0.11024 0,-0.13229 -0.07625,-0.0762 -0.07822,-0.24358 -0.165364,-0.33073 -0.02756,-0.0276 0.02756,-0.1378 0,-0.16536 -0.02756,-0.0276 -0.0055,-0.10473 -0.03307,-0.13229 -0.120391,-0.12039 -0.07987,-0.50173 0,-0.66146 0.07014,-0.14028 0.0097,-0.30737 0.09922,-0.39688 0.0153,-0.0153 0.02465,-0.44617 0.06615,-0.52916 0.03138,-0.0628 -0.04771,-0.24996 0,-0.29766 0.07913,-0.0791 0.09634,-0.7578 0.132292,-0.79375 0.07093,-0.0709 0.07063,-0.20741 0.132292,-0.33073 0.0483,-0.0966 -6.09e-4,-0.16475 0.06615,-0.23151 0.07717,-0.0772 -0.0441,-0.35278 0.03307,-0.42995 0.03858,-0.0386 -0.0055,-0.15985 0.03307,-0.19843 0.07709,-0.0771 0.08741,-0.31893 0.09922,-0.33073 0.111584,-0.11159 0.137946,-0.70019 0.264583,-0.82683 0.0096,-0.01 0.100963,-0.59705 0.165365,-0.66146 0.03859,-0.0386 -0.03859,-0.19292 0,-0.23151 0.0574,-0.0574 0.157933,-0.72017 0.165364,-0.7276 0.134263,-0.13426 0.119189,-0.51606 0.264584,-0.66146 0.02205,-0.022 -0.02205,-0.11024 0,-0.13229 0.0441,-0.0441 0.08819,-0.0882 0.132291,-0.13229 0.01559,-0.0156 -0.01559,-0.0506 0,-0.0661 0.0219,-0.0219 0.04425,0.0219 0.06615,0 0.03858,-0.0386 0.02756,-0.12678 0.06615,-0.16536 0.09492,-0.0949 0.190279,-0.19028 0.297656,-0.29766 0.01103,-0.011 0.08819,-0.022 0.09922,-0.0331 0.100794,-0.1008 0.208889,-0.17582 0.297656,-0.26458 0.03859,-0.0386 0.12678,-0.0276 0.165365,-0.0661 0.108087,-0.10809 0.286692,-0.22055 0.396875,-0.33073 0.01654,-0.0165 0.08268,0.0165 0.09922,0 0.01654,-0.0165 0.01654,-0.0496 0.03307,-0.0661 0.01559,-0.0156 0.05055,0.0156 0.06614,0 0.01559,-0.0156 -0.01559,-0.0505 0,-0.0661 0.02201,-0.022 0.04414,0.022 0.06615,0 0.0441,-0.0441 0.08819,-0.0882 0.132292,-0.13229 0.01559,-0.0156 0.05055,0.0156 0.06615,0 0.137803,-0.13781 0.35829,-0.19293 0.496094,-0.33073 0.02756,-0.0276 0.10473,-0.006 0.132291,-0.0331 0.01559,-0.0156 -0.01559,-0.0506 0,-0.0661 0.01654,-0.0165 0.08268,0.0165 0.09922,0 0.186153,-0.18615 0.679049,-0.2491 0.859896,-0.42995 0.03409,-0.0341 0.197422,0.001 0.23151,-0.0331 0.01654,-0.0165 0.01654,-0.0496 0.03307,-0.0661 0.02205,-0.022 0.110243,0.022 0.132292,0 0.173318,-0.17332 0.5299,-0.23224 0.694531,-0.39687 0.02205,-0.0221 0.110243,0.022 0.132292,0 0.09939,-0.0994 0.981339,-0.18733 1.091406,-0.13229 0.16529,0.0826 0.370357,0.20499 0.496094,0.33073 0.03307,0.0331 0.132291,0 0.165364,0.0331 0.01559,0.0156 -0.01559,0.0506 0,0.0661 0.01654,0.0165 0.08268,-0.0165 0.09922,0 0.0441,0.0441 0.08819,0.0882 0.132292,0.1323 0.02756,0.0276 0.10473,0.006 0.132291,0.0331 0.03307,0.0331 0.03307,0.0992 0.06615,0.13229 0.02756,0.0276 0.104731,0.006 0.132292,0.0331 0.01559,0.0156 -0.01559,0.0506 0,0.0661 0.02756,0.0276 0.104731,0.006 0.132291,0.0331 0.01654,0.0165 0.01654,0.0496 0.03307,0.0661 0.02168,0.0217 0.115722,0.0165 0.132292,0.0331 0.08279,0.0828 0.249188,0.1169 0.330729,0.19844 0.0088,0.009 0.201102,0.0357 0.264584,0.0992 0.02205,0.022 0.110243,-0.0221 0.132291,0 0.06615,0.0661 0.165365,0.0992 0.231511,0.16536 0.01559,0.0156 0.05056,-0.0156 0.06615,0 0.224375,0.22438 0.589248,0.29159 0.79375,0.4961 0.0072,0.007 0.247506,0.0491 0.264584,0.0661 0.0241,0.0241 0.03353,0.0997 0.06615,0.13229 0.01106,0.0111 0.213294,0.081 0.23151,0.0992 0.0249,0.0249 0.05216,0.11831 0.06615,0.13229 0.014,0.014 0.107386,0.0412 0.132291,0.0661 0.02201,0.022 -0.02201,0.0441 0,0.0661 0.014,0.014 0.107387,0.0412 0.132292,0.0661 0.02201,0.022 -0.02201,0.0441 0,0.0661 0.01558,0.0156 0.05055,-0.0156 0.06615,0 0.0249,0.0249 0.05216,0.1183 0.06615,0.13229 0.01558,0.0156 0.05055,-0.0156 0.06615,0 0.01558,0.0156 -0.01558,0.0505 0,0.0661 0.04961,0.0496 0.115755,0.0827 0.165364,0.1323 0.01558,0.0156 -0.01558,0.0505 0,0.0661 0.02204,0.022 0.07717,0.011 0.09922,0.0331 0.01654,0.0165 -0.01654,0.0827 0,0.0992 0.03858,0.0386 0.09371,0.0606 0.132292,0.0992 0.01953,0.0195 0.05817,0.19046 0.06615,0.19844 0.02756,0.0276 0.07166,0.0386 0.09922,0.0661 0.02756,0.0276 0.0055,0.10473 0.03307,0.13229 0.09371,0.0937 0.137803,0.23702 0.231511,0.33073 0.01558,0.0156 -0.01558,0.0505 0,0.0661 0.108484,0.10849 0.159594,0.32496 0.264583,0.42995 0.02204,0.0221 -0.02204,0.11024 0,0.13229 0.06127,0.0613 0.04079,0.20616 0.06615,0.23151 0.01654,0.0165 0.04961,0.0165 0.06615,0.0331 0.03125,0.0313 0.04696,0.41077 0.132291,0.4961 0.08268,0.0827 -0.08268,0.41341 0,0.49609 0.07797,0.078 0.165365,0.89415 0.165365,1.12448 0,0.0882 -0.01103,-0.011 0.03307,0.0331 0.03688,0.0369 0,0.30585 0,0.36381 0,0.14297 0.124753,0.98465 0.165364,1.02526 0.04506,0.0451 -0.0079,0.45508 0.06615,0.52916 0.02262,0.0226 -0.02175,1.0035 0.03307,1.05834 0.06758,0.0676 0.23151,0.82602 0.23151,0.99218 0,0.14715 0.03307,0.19849 0.03307,0.33073 0,0.0661 0,0.1323 0,0.19844 0,0.011 0,0.0441 0,0.0331 0,-0.022 0,-0.0882 0,-0.0661 0,0.0602 0.0056,0.68891 0,0.69453 -0.01654,0.0165 -0.04961,0.0165 -0.06615,0.0331 -0.02756,0.0276 -0.0055,0.10473 -0.03307,0.13229 -0.02204,0.022 -0.07717,0.011 -0.09922,0.0331 -0.161282,0.16128 -0.488323,0.56224 -0.79375,0.56224 -0.08015,0 -0.859896,0.008 -0.859896,-0.0992"
       id="path5163"
       inkscape:connector-curvature="0" />
    <path
       style="fill:none;stroke:#f2f2f2;stroke-width:0.26458333;stroke-linecap:round;stroke-linejoin:round;stroke-opacity:1;stroke-miterlimit:4;stroke-dasharray:none"
       d="m 17.297135,280.03358 c -0.0421,0.84462 -0.06615,1.6914 -0.06615,2.57969 0,0.23022 0.05464,0.6399 -0.06615,0.76068 -0.01159,0.0116 -0.04147,0.43834 -0.132292,0.52916 -0.0572,0.0572 0.01443,0.54781 -0.06615,0.62839 -0.02194,0.0219 -0.0028,1.16039 -0.09922,1.25677 -0.05483,0.0548 -0.01044,1.0357 -0.03307,1.05833 -0.08245,0.0825 -0.09456,0.4253 -0.132291,0.46303 -0.025,0.025 -0.06615,0.0143 -0.06615,0.0661"
       id="path5165"
       inkscape:connector-curvature="0" />
    <path
       style="fill:none;stroke:#f2f2f2;stroke-width:0.26458333;stroke-linecap:round;stroke-linejoin:round;stroke-opacity:1;stroke-miterlimit:4;stroke-dasharray:none"
       d="m 17.330208,279.50442 c 0.01176,-0.38957 0.206354,-0.73552 0.396875,-0.92604 0.02205,-0.022 0.01103,-0.0772 0.03307,-0.0992 0.01559,-0.0156 0.05056,0.0156 0.06615,0 0.04054,-0.0405 0.08351,-0.11659 0.132292,-0.16537 0.02756,-0.0276 0.10473,-0.006 0.132291,-0.0331 0.01559,-0.0156 -0.01559,-0.0506 0,-0.0661 0.03307,-0.0331 0.132292,0 0.165365,-0.0331 0.09778,-0.0978 0.251911,-0.11962 0.363802,-0.23151 0.02579,-0.0258 0.415353,-0.0846 0.496094,-0.16536"
       id="path5171"
       inkscape:connector-curvature="0" />
    <path
       style="fill:none;stroke:#f2f2f2;stroke-width:0.26458333;stroke-linecap:round;stroke-linejoin:round;stroke-opacity:1;stroke-miterlimit:4;stroke-dasharray:none"
       d="m 17.528646,279.50442 c 0.17281,-0.36186 0.419789,-0.38672 0.661458,-0.62839 0.01103,-0.011 0.08819,-0.0221 0.09922,-0.0331 0.124498,-0.1245 0.404962,-0.27267 0.529166,-0.39688 0.01654,-0.0165 0.08268,0.0165 0.09922,0 0.131387,-0.13138 0.227242,-0.0949 0.330729,-0.19843 0.06615,-0.0661 0.297657,0.0331 0.363802,-0.0331 0.0264,-0.0264 0.203333,-0.0661 0.264584,-0.0661"
       id="path5173"
       inkscape:connector-curvature="0" />
    <path
       style="fill:none;stroke:#f2f2f2;stroke-width:0.26458333;stroke-linecap:round;stroke-linejoin:round;stroke-opacity:1;stroke-miterlimit:4;stroke-dasharray:none"
       d="m 17.561719,279.769 c 0.274895,-0.21419 0.475567,-0.27713 0.694531,-0.49609 0.03127,-0.0313 0.17077,-0.005 0.198437,-0.0331 0.145101,-0.1451 1.337414,-0.23151 1.686719,-0.23151"
       id="path5175"
       inkscape:connector-curvature="0" />
    <path
       style="fill:none;stroke:#f2f2f2;stroke-width:0.26458333;stroke-linecap:round;stroke-linejoin:round;stroke-opacity:1;stroke-miterlimit:4;stroke-dasharray:none"
       d="m 26.722916,278.41301 c 0.04553,0.007 0.04108,0.17337 0.06615,0.19844 0.0249,0.0249 0.118309,0.0522 0.132292,0.0661 0.02201,0.022 -0.02201,0.0441 0,0.0661 0.02204,0.022 0.07717,0.011 0.09922,0.0331 0.02204,0.022 0.01103,0.0772 0.03307,0.0992 0.02204,0.022 0.07717,0.011 0.09922,0.0331 0.02204,0.022 0.01103,0.0772 0.03307,0.0992 0.02204,0.022 0.07717,0.011 0.09922,0.0331 0.100118,0.10011 0.20221,0.26835 0.297656,0.3638 0.04108,0.0411 0.04354,0.37427 0.09922,0.42995 0.04143,0.0414 -0.03307,0.59461 -0.03307,0.62838 0,0.0609 -0.196903,0.99065 -0.198438,0.99219 -0.01654,0.0165 -0.04961,0.0165 -0.06615,0.0331 -0.02204,0.022 0.02204,0.11024 0,0.13229 -0.05245,0.0525 -0.03796,0.2364 -0.06615,0.26459 -0.01654,0.0165 -0.04961,0.0165 -0.06615,0.0331 -0.02551,0.0255 -0.0399,0.33756 -0.132292,0.42995 -0.03307,0.0331 0.03307,0.16536 0,0.19844 -0.07978,0.0798 -0.13073,0.69297 -0.198437,0.76067 -0.03307,0.0331 0.03307,0.16537 0,0.19844 -0.05616,0.0562 -0.09922,0.16977 -0.09922,0.29766"
       id="path5177"
       inkscape:connector-curvature="0" />
    <path
       style="fill:none;stroke:#f2f2f2;stroke-width:0.26458333;stroke-linecap:round;stroke-linejoin:round;stroke-opacity:1;stroke-miterlimit:4;stroke-dasharray:none"
       d="m 25.829948,282.05103 c 0.08413,0.26194 0.136492,0.5003 0.297656,0.66146 0.01654,0.0165 -0.01654,0.0827 0,0.0992 0.01559,0.0156 0.05055,-0.0156 0.06615,0 0.01968,0.0197 0.06282,0.16204 0.132291,0.23151 0.05768,0.0577 0.03858,0.33624 0.132292,0.42995 0.05512,0.0551 -0.05512,0.2756 0,0.33073 0.09277,0.0928 0.06615,0.89574 0.06615,1.12448"
       id="path5179"
       inkscape:connector-curvature="0" />
    <path
       style="fill:none;stroke:#f2f2f2;stroke-width:0.26458333;stroke-linecap:round;stroke-linejoin:round;stroke-opacity:1;stroke-miterlimit:4;stroke-dasharray:none"
       d="m 25.069271,282.28254 c -0.06021,0.47694 -0.03307,0.9715 -0.03307,1.45521 0,0.058 -0.03688,0.32692 0,0.3638 0.08652,0.0865 0.150441,0.4481 0.165364,0.46302 0.09922,0.0992 0.132292,0.26459 0.231511,0.36381 0.01654,0.0165 -0.01654,0.0827 0,0.0992 0.112945,0.11295 0.114091,0.31253 0.23151,0.42995 0.01654,0.0165 -0.01654,0.0827 0,0.0992 0.0908,0.0908 0.185748,0.51648 0.198438,0.52917 0.01654,0.0165 0.04961,0.0165 0.06614,0.0331 0.02248,0.0225 0.01269,0.14498 0.06615,0.19844 0.01654,0.0165 -0.01654,0.0827 0,0.0992 0.06468,0.0647 0.100685,0.16683 0.165365,0.23151 0.01654,0.0165 -0.01654,0.0827 0,0.0992 0.01559,0.0156 0.05055,-0.0156 0.06615,0 0.03307,0.0331 0,0.13229 0.03307,0.16536 0.02116,0.0212 0.06614,0.061 0.06614,0.0992"
       id="path5181"
       inkscape:connector-curvature="0" />
    <path
       style="fill:none;stroke:#f2f2f2;stroke-width:0.26458333;stroke-linecap:round;stroke-linejoin:round;stroke-opacity:1;stroke-miterlimit:4;stroke-dasharray:none"
       d="m 24.705468,284.1677 c -0.05025,0.1855 -0.03435,1.35726 -0.09922,1.42213 -0.03858,0.0386 0.03859,0.19293 0,0.23151 -0.02629,0.0263 -0.05791,0.63662 -0.03307,0.66146 0.08873,0.0887 0.09978,0.59588 0.23151,0.72761 0.01654,0.0165 -0.01654,0.0827 0,0.0992 0.07783,0.0778 0.159461,0.39097 0.165365,0.39687 0.123359,0.12336 0.166082,0.33145 0.297656,0.46302 0.01559,0.0156 -0.01559,0.0506 0,0.0662 0.02756,0.0276 0.07166,0.0386 0.09922,0.0661 0.02205,0.022 0.01103,0.0772 0.03307,0.0992 0.01559,0.0156 0.05056,-0.0156 0.06615,0 0.03383,0.0338 0.09219,0.0922 0.132291,0.13229 0.07166,0.0717 0.325217,-0.0386 0.396875,0.0331 0.01654,0.0165 0.01654,0.0496 0.03307,0.0661 0.01289,0.0129 0.112109,0 0.132292,0 0.079,0 0.523906,0.0383 0.529166,0.0331 0.06843,-0.0684 -0.104568,0.003 0.03307,-0.0661 0.02674,-0.0134 0.224751,-0.0594 0.231511,-0.0661 0.025,-0.025 0.01434,-0.0661 0.06615,-0.0661"
       id="path5183"
       inkscape:connector-curvature="0" />
    <path
       style="fill:none;stroke:#f2f2f2;stroke-width:0.26458333;stroke-linecap:round;stroke-linejoin:round;stroke-opacity:1;stroke-miterlimit:4;stroke-dasharray:none"
       d="m 23.977864,283.37395 c -0.08033,0.75993 -0.06615,1.60634 -0.06615,2.44739 0,0.25077 -0.02202,0.67252 0.09922,0.79375 0.03307,0.0331 -0.03307,0.16537 0,0.19844 0.05816,0.0582 0.03418,0.29877 0.06615,0.33073 0.02227,0.0223 0.0418,0.0174 0.06615,0.0662 0.02088,0.0417 -0.03175,0.16668 0,0.19843 0.07717,0.0772 0.05512,0.25356 0.132292,0.33073 0.02098,0.021 -0.01377,0.10476 0,0.13229 0.07288,0.14576 0.06336,0.25902 0.132291,0.39688 0.02978,0.0596 0.04599,0.34365 0.06615,0.3638 0.120949,0.12095 0.154554,0.45221 0.297656,0.59531 0.01559,0.0156 -0.01559,0.0506 0,0.0661 0.110243,0.11024 0.253559,0.18741 0.363802,0.29766 0.02876,0.0288 0.318351,0.0538 0.396875,0.13229 0.04961,0.0496 0.214974,-0.0165 0.264584,0.0331 0.04841,0.0484 0.382402,0.26458 0.429948,0.26458"
       id="path5185"
       inkscape:connector-curvature="0" />
    <path
       style="fill:none;stroke:#f2f2f2;stroke-width:0.26458333;stroke-linecap:round;stroke-linejoin:round;stroke-opacity:1;stroke-miterlimit:4;stroke-dasharray:none"
       d="m 27.252083,287.87186 c -0.106886,-0.0174 -0.130215,-0.36172 -0.165365,-0.39687 -0.01558,-0.0156 -0.05055,0.0156 -0.06615,0 -0.02191,-0.0219 0.02191,-0.0442 0,-0.0661 -0.01654,-0.0165 -0.04961,-0.0165 -0.06615,-0.0331 -0.01558,-0.0156 0.01558,-0.0505 0,-0.0661 -0.02204,-0.022 -0.07717,-0.011 -0.09922,-0.0331 -0.02204,-0.022 -0.01103,-0.0772 -0.03307,-0.0992 -0.01103,-0.011 -0.08819,-0.022 -0.09922,-0.0331 -0.01558,-0.0156 0.01558,-0.0505 0,-0.0661 -0.04961,-0.0496 -0.08268,-0.11575 -0.132291,-0.16536 -0.0335,-0.0335 -0.03307,-0.73064 -0.03307,-0.8599 0,-0.20936 0.05295,-0.51596 0.09922,-0.56224 0.01138,-0.0114 -0.0086,-0.19843 0,-0.19843 0.01103,0 -0.01103,0.0331 0,0.0331 0.0231,0 0.102701,-0.42995 0.132292,-0.42995"
       id="path5187"
       inkscape:connector-curvature="0" />
    <path
       style="fill:none;stroke:#f2f2f2;stroke-width:0.52916667;stroke-linecap:round;stroke-linejoin:round;stroke-opacity:1;stroke-miterlimit:4;stroke-dasharray:none"
       d="m 27.21901,288.13645 c -0.02772,0.0294 -0.131421,0.36293 -0.132292,0.3638 -0.05512,0.0551 -0.110244,0.11024 -0.165364,0.16536 -0.07697,0.077 -0.03307,1.26489 -0.03307,1.48829 0,0.0685 -0.0436,0.38634 0,0.42994 0.0078,0.008 0.02527,-0.008 0.03307,0 0.01651,0.0165 0,0.13947 0,0.16537 0,0.14191 0.05047,0.65974 0,0.76068 -0.109638,0.21927 -0.111824,0.31026 -0.264584,0.46302 -0.01654,0.0165 0.01654,0.0827 0,0.0992 -0.05736,0.0574 -0.147798,0.11473 -0.198437,0.16537 -0.01559,0.0156 0.01558,0.0506 0,0.0661 -0.03859,0.0386 -0.09371,0.0606 -0.132292,0.0992 -0.01559,0.0156 0.01559,0.0506 0,0.0661 -0.01559,0.0156 -0.05055,-0.0156 -0.06614,0 -0.06615,0.0661 -0.132292,0.13229 -0.198438,0.19844 -0.01559,0.0156 -0.05055,-0.0156 -0.06615,0 -0.106466,0.10646 -0.200099,0.23317 -0.330729,0.3638 -0.01559,0.0156 -0.05055,-0.0156 -0.06615,0 -0.113009,0.11301 -0.303534,0.13817 -0.429948,0.26458 -0.02205,0.022 -0.110243,-0.022 -0.132291,0 -0.09114,0.0912 -0.486194,0.12239 -0.56224,0.19844 -0.02205,0.022 -0.110243,-0.022 -0.132292,0 -0.02205,0.022 -0.0441,0.0441 -0.06614,0.0661 -0.02756,0.0276 -0.137804,-0.0276 -0.165365,0 -0.03859,0.0386 -0.12678,0.0276 -0.165365,0.0661 -0.02339,0.0234 -0.194774,0 -0.23151,0 -0.161763,0 -0.8106,0.14041 -0.959115,0.0661 -0.152088,-0.0761 -0.313553,-0.0906 -0.46302,-0.16537 -0.04176,-0.0209 -0.166688,0.0317 -0.198438,0 -0.152036,-0.15203 -0.980232,0.012 -1.157552,-0.16536 -0.03945,-0.0394 -0.817674,-0.057 -0.826823,-0.0661 -0.07722,-0.0772 -0.480484,-0.0836 -0.496094,-0.0992 -0.05009,-0.0501 -0.328919,-0.0974 -0.330729,-0.0992 -0.06799,-0.068 -0.553952,-0.19016 -0.562239,-0.19844 -0.01654,-0.0165 -0.01654,-0.0496 -0.03307,-0.0661 -0.02756,-0.0276 -0.137804,0.0276 -0.165365,0 -0.05191,-0.0519 -0.207292,-0.0419 -0.23151,-0.0661 -0.01654,-0.0165 -0.01654,-0.0496 -0.03307,-0.0661 -0.02756,-0.0276 -0.137804,0.0276 -0.165365,0 -0.02767,-0.0277 -0.134099,-0.0349 -0.165364,-0.0661 -0.09778,-0.0978 -0.218839,-0.15269 -0.33073,-0.26458 -0.01559,-0.0156 -0.05055,0.0156 -0.06615,0 -0.176389,-0.17639 -0.352778,-0.35278 -0.529167,-0.52917 -0.01654,-0.0165 0.01654,-0.0827 0,-0.0992 -0.121174,-0.12118 -0.118958,-0.38355 -0.23151,-0.4961 -0.01654,-0.0165 0.01654,-0.0827 0,-0.0992 -0.04961,-0.0496 -0.08268,-0.11575 -0.132292,-0.16536 -0.01559,-0.0156 0.01559,-0.0506 0,-0.0661 -0.02756,-0.0276 -0.07166,-0.0386 -0.09922,-0.0661 -0.01559,-0.0156 0.01559,-0.0506 0,-0.0661 -0.121267,-0.12127 -0.242535,-0.24253 -0.363802,-0.3638 -0.01559,-0.0156 0.01559,-0.0505 0,-0.0661 -0.112303,-0.1123 -0.147746,-0.34618 -0.198437,-0.39687 -0.03688,-0.0369 0,-0.30585 0,-0.3638 0,-0.47384 0.02006,-0.74766 0.264583,-0.99219 0.03307,-0.0331 0,-0.13229 0.03307,-0.16537 0.04961,-0.0496 0.08268,-0.11575 0.132291,-0.16536 0.01654,-0.0165 -0.01654,-0.0827 0,-0.0992 0.025,-0.025 0.06615,-0.0143 0.06615,-0.0661 0,-0.15125 0.330729,-0.43109 0.330729,-0.56224 0,-0.0852 0.02721,-0.0603 0.06615,-0.0992 0.03118,-0.0312 0,-0.17639 0,-0.13229"
       id="path5189"
       inkscape:connector-curvature="0" />
    <path
       style="fill:none;stroke:#f2f2f2;stroke-width:0.26458333;stroke-linecap:round;stroke-linejoin:round;stroke-opacity:1;stroke-miterlimit:4;stroke-dasharray:none"
       d="m 20.009114,282.34869 c -0.111468,0.11499 -0.05684,0.11367 -0.09922,0.19844 -0.06882,0.13764 0.0023,-0.0354 -0.06615,0.0331 -0.01559,0.0156 0.01559,0.0505 0,0.0661 -0.115755,0.11576 -0.148828,0.3142 -0.264584,0.42995 -0.03519,0.0352 -0.10995,0.40761 -0.198437,0.4961 -0.02205,0.022 0.02205,0.11024 0,0.13229 -0.06843,0.0684 0.0027,-0.10457 -0.06615,0.0331 -0.02288,0.0457 -0.04338,0.24182 -0.06615,0.26458 -0.153651,0.15365 -0.223436,0.35573 -0.363802,0.4961 -0.01657,0.0166 -0.01139,0.11061 -0.03307,0.13229 -0.105694,0.10569 -0.139695,0.23891 -0.23151,0.33073 -0.03383,0.0338 -0.02605,0.15834 -0.06615,0.19844 -0.15697,0.15696 -0.178657,0.44324 -0.330729,0.59531 -0.02205,0.022 0.02205,0.11024 0,0.13229 -0.046,0.046 -0.04111,0.1734 -0.06615,0.19844 -0.01654,0.0165 -0.04961,0.0165 -0.06615,0.0331 -0.02205,0.022 0.02205,0.11024 0,0.13229 -0.09292,0.0929 -0.09621,0.32772 -0.198437,0.42995 -0.0441,0.0441 0.01103,0.18741 -0.03307,0.23151 -0.01654,0.0165 -0.04961,0.0165 -0.06615,0.0331 -0.01529,0.0153 0.01,0.0793 0,0.0992 -0.05486,0.10972 -0.09582,0.22811 -0.165365,0.29766 -0.01657,0.0166 -0.01139,0.11061 -0.03307,0.13229 -0.137803,0.1378 -0.192925,0.35829 -0.330729,0.49609 -0.02756,0.0276 -0.0055,0.10473 -0.03307,0.1323 -0.03859,0.0386 -0.09371,0.0606 -0.132291,0.0992 -0.01398,0.014 -0.04124,0.10739 -0.06615,0.1323 -0.01559,0.0156 -0.05055,-0.0156 -0.06615,0 -0.01559,0.0156 0.01559,0.0506 0,0.0661 -0.04532,0.0453 -0.07163,0.0716 -0.132292,0.13229"
       id="path5191"
       inkscape:connector-curvature="0" />
    <path
       style="fill:none;stroke:#f2f2f2;stroke-width:0.26458333;stroke-linecap:round;stroke-linejoin:round;stroke-opacity:1;stroke-miterlimit:4;stroke-dasharray:none"
       d="m 17.098698,289.85624 c 0.01421,-0.25944 0.05995,-0.52298 0.198437,-0.66146 0.01654,-0.0165 -0.01654,-0.0827 0,-0.0992 0.07166,-0.0716 0.09371,-0.19292 0.165365,-0.26458 0.01654,-0.0165 -0.01654,-0.0827 0,-0.0992 0.08928,-0.0893 0.116466,-0.21569 0.198437,-0.29766 0.01654,-0.0165 -0.01654,-0.0827 0,-0.0992 0.111891,-0.11189 0.133735,-0.26603 0.231511,-0.36381 0.01559,-0.0156 -0.01559,-0.0505 0,-0.0661 0.07347,-0.0735 0.112126,-0.17827 0.198437,-0.26459 0.02756,-0.0276 0.0055,-0.10473 0.03307,-0.13229 0.08268,-0.0827 0.148828,-0.1819 0.231511,-0.26458 0.0441,-0.0441 0.02205,-0.15434 0.06615,-0.19844 0.06691,-0.0669 0.137196,-0.17027 0.198438,-0.23151 0.02756,-0.0276 0.0055,-0.10473 0.03307,-0.13229 0.07351,-0.0735 0.149953,-0.18303 0.23151,-0.26458 0.02756,-0.0276 0.0055,-0.10473 0.03307,-0.1323 0.0318,-0.0318 0.08984,-0.0568 0.132292,-0.0992 0.0441,-0.0441 0.02205,-0.15434 0.06615,-0.19844 0.02756,-0.0276 0.07166,-0.0386 0.09922,-0.0661 0.02756,-0.0276 0.0055,-0.10473 0.03307,-0.13229 0.139779,-0.13978 0.175275,-0.34064 0.330729,-0.49609 0.01654,-0.0165 -0.01654,-0.0827 0,-0.0992 0.0441,-0.0441 0.08819,-0.0882 0.132292,-0.13229 0.0441,-0.0441 0.02205,-0.15434 0.06615,-0.19844 0.01559,-0.0156 0.05055,0.0156 0.06615,0 0.04054,-0.0405 0.01736,-0.18273 0.06615,-0.23151 0.02168,-0.0217 0.08265,-0.0496 0.09922,-0.0661 0.02197,-0.022 -0.02197,-0.0442 0,-0.0661 0.04961,-0.0496 0.08268,-0.11576 0.132292,-0.16537 0.01528,-0.0153 0.04099,-0.20635 0.06615,-0.23151 0.03295,-0.0329 0.198437,-0.2574 0.198437,-0.29765"
       id="path5193"
       inkscape:connector-curvature="0" />
    <path
       style="fill:none;stroke:#f2f2f2;stroke-width:0.26458333;stroke-linecap:round;stroke-linejoin:round;stroke-opacity:1;stroke-miterlimit:4;stroke-dasharray:none"
       d="m 26.755989,290.48462 c -0.18778,0.16325 -0.270994,0.23793 -0.396875,0.36381 -0.06295,0.0629 -0.137397,0.17047 -0.198437,0.23151 -0.01559,0.0156 -0.05055,-0.0156 -0.06615,0 -0.01559,0.0156 0.01559,0.0505 0,0.0661 -0.01559,0.0156 -0.05055,-0.0156 -0.06615,0 -0.07166,0.0717 -0.192925,0.0937 -0.264583,0.16537 -0.0029,0.003 -0.321431,0.0899 -0.363802,0.13229 -0.0016,0.002 -0.537039,0.074 -0.595313,0.13229 -0.03806,0.0381 -0.270007,0.003 -0.330729,0.0331 -0.168665,0.0843 -1.37358,-0.0486 -1.455208,0.0331 -0.154893,0.15489 -1.726157,-0.0528 -1.885157,-0.13229 -0.07938,-0.0397 -0.218281,0.0397 -0.297656,0 -0.298207,-0.14911 -0.850904,0.0421 -1.058333,-0.16537 -0.01237,-0.0124 -0.285287,-0.0124 -0.297656,0 -0.01559,0.0156 0.01559,0.0505 0,0.0661 -0.02168,0.0217 -0.08265,0.0496 -0.09922,0.0661 -0.02756,0.0276 -0.0055,0.10473 -0.03307,0.13229 -0.04245,0.0424 -0.100496,0.0674 -0.132292,0.0992 -0.01289,0.0129 -0.112109,0 -0.132291,0 -0.29383,0 -0.387286,-0.0896 -0.529167,-0.23151 -0.07166,-0.0716 -0.325217,0.0386 -0.396875,-0.0331 -0.01654,-0.0165 -0.01654,-0.0496 -0.03307,-0.0661 -0.0441,-0.0441 -0.187413,0.011 -0.23151,-0.0331 -0.137804,-0.1378 -0.457509,-0.0937 -0.595313,-0.23151 -0.02756,-0.0276 -0.137804,0.0276 -0.165364,0 -0.08397,-0.084 -0.127169,-0.16024 -0.231511,-0.26458 -0.04883,-0.0488 -0.132291,-0.10497 -0.132291,-0.19844"
       id="path5195"
       inkscape:connector-curvature="0" />
    <path
       style="fill:none;stroke:#f2f2f2;stroke-width:0.26458333;stroke-linecap:round;stroke-linejoin:round;stroke-opacity:1;stroke-miterlimit:4;stroke-dasharray:none"
       d="m 22.026562,285.55676 c -0.07416,0.21843 -0.172832,0.3382 -0.297656,0.46302 -0.02756,0.0276 -0.0055,0.10473 -0.03307,0.13229 -0.147509,0.14751 -0.290357,0.32343 -0.429948,0.46302 -0.01103,0.011 -0.08819,0.022 -0.09922,0.0331 -0.116142,0.11614 -0.251063,0.18491 -0.363802,0.29765 -0.01559,0.0156 -0.05055,-0.0156 -0.06615,0 -0.02205,0.022 -0.01103,0.0772 -0.03307,0.0992 -0.01559,0.0156 -0.05055,-0.0156 -0.06615,0 -0.03858,0.0386 -0.06063,0.0937 -0.09922,0.13229 -0.01559,0.0156 -0.05056,-0.0156 -0.06615,0 -0.129993,0.13 -0.302886,0.26982 -0.429948,0.39688 -0.02197,0.022 0.02197,0.0442 0,0.0661 -0.01559,0.0156 -0.05055,-0.0156 -0.06615,0 -0.01559,0.0156 0.01559,0.0506 0,0.0661 -0.03858,0.0386 -0.09371,0.0606 -0.132291,0.0992 -0.01559,0.0156 0.01559,0.0505 0,0.0661 -0.04516,0.0452 -0.120202,0.1202 -0.165365,0.16537 -0.01654,0.0165 0.01654,0.0827 0,0.0992 -0.01654,0.0165 -0.04961,0.0165 -0.06615,0.0331 -0.01654,0.0165 0.01654,0.0827 0,0.0992 -0.02756,0.0276 -0.07166,0.0386 -0.09922,0.0661 -0.0098,0.01 -0.0727,0.30421 -0.132292,0.3638 -0.0436,0.0436 0,0.36143 0,0.42995 0,0.058 -0.03688,0.32692 0,0.3638 0.113501,0.1135 0.04083,0.50384 0.132292,0.59531 0.06063,0.0606 -0.06063,0.30317 0,0.3638 0.05432,0.0543 0.132291,0.55085 0.132291,0.66146"
       id="path5197"
       inkscape:connector-curvature="0" />
    <path
       style="fill:none;stroke:#f2f2f2;stroke-width:0.52916667;stroke-linecap:round;stroke-linejoin:round;stroke-opacity:1;stroke-miterlimit:4;stroke-dasharray:none"
       d="m 2.745052,297.03306 c -0.04098,-0.10718 0.09367,-0.53471 0.033073,-0.59531 -0.022048,-0.022 -0.07717,-0.011 -0.099219,-0.0331 -0.00597,-0.006 -0.093248,-0.19247 -0.099219,-0.19844 -0.022049,-0.022 -0.07717,-0.011 -0.099219,-0.0331 -0.022048,-0.022 -0.011024,-0.0772 -0.033073,-0.0992 -0.015591,-0.0156 -0.050555,0.0156 -0.066146,0 -0.013984,-0.014 -0.041241,-0.10739 -0.066146,-0.13229 -0.015591,-0.0156 -0.046425,0.01 -0.066146,0 -0.073189,-0.0366 -0.1230145,-0.0899 -0.1653646,-0.1323 -0.038585,-0.0386 0.00551,-0.15985 -0.033073,-0.19843 -0.038585,-0.0386 -0.1598524,0.005 -0.1984375,-0.0331 -0.1104448,-0.11044 0.179304,-0.5431 0.1984375,-0.56224 0.015591,-0.0156 -0.015591,-0.0505 0,-0.0661 0.027561,-0.0276 0.071658,-0.0386 0.099219,-0.0661 0.015591,-0.0156 -0.015591,-0.0506 0,-0.0661 0.047352,-0.0474 0.1082962,-0.1083 0.1653645,-0.16537 0.024274,-0.0243 0.07496,-0.20725 0.1322917,-0.26458 0.099219,-0.0992 0.2645833,-0.13229 0.3638021,-0.23151 0.022082,-0.0221 0.3047746,-0.0402 0.3307291,-0.0661 0.1000131,-0.10001 0.3326961,-0.10118 0.429948,-0.19843 0.033073,-0.0331 0.1322916,0 0.1653645,-0.0331 0.040243,-0.0402 0.3336396,0 0.396875,0 0.013618,0 0.090464,-0.009 0.099219,0 0.016536,0.0165 0.016536,0.0496 0.033073,0.0661 0.016537,0.0165 0.082682,-0.0165 0.099219,0 0.012369,0.0124 0.2163631,0.0813 0.2645834,0.0331 0.082682,-0.0827 0.082682,-0.24805 0.1653646,-0.33073 0.022048,-0.022 -0.022048,-0.11024 0,-0.13229 0.066019,-0.066 0.096082,-0.1953 0.1653645,-0.26458 0.015592,-0.0156 -0.015592,-0.0506 0,-0.0661 0.022048,-0.022 0.07717,-0.011 0.099219,-0.0331 0.022048,-0.022 0.011025,-0.0772 0.033073,-0.0992 0.015592,-0.0156 0.050555,0.0156 0.066146,0 0.016536,-0.0165 0.016536,-0.0496 0.033073,-0.0662 0.084818,-0.0848 0.7051185,0.0225 0.7276041,0 0.082682,-0.0827 0.214974,-0.11575 0.2976563,-0.19843 0.00228,-0.002 0.3105766,-0.0791 0.363802,-0.1323 0.012568,-0.0126 0.3372956,-0.0727 0.396875,-0.13229 0.039811,-0.0398 0.1448173,-0.006 0.1984375,-0.0331 0.1376416,-0.0688 -0.035356,0.002 0.033073,-0.0661 0.031796,-0.0318 0.1229157,-0.0237 0.1653646,-0.0661 0.042449,-0.0424 0.067423,-0.1005 0.099219,-0.13229 0.015592,-0.0156 0.050555,0.0156 0.066146,0 0.035924,-0.0359 0.1287809,-0.228 0.1322917,-0.23151 0.015592,-0.0156 0.050555,0.0156 0.066146,0 0.015592,-0.0156 -0.015592,-0.0506 0,-0.0661 0.080343,-0.0803 0.1631783,-0.16318 0.2315104,-0.23151 0.022048,-0.022 0.07717,-0.011 0.099219,-0.0331 0.194279,-0.19428 0.3793894,-0.37939 0.5622395,-0.56224 0.015592,-0.0156 -0.015592,-0.0506 0,-0.0662 0.015592,-0.0156 0.046425,0.01 0.066146,0 0.037144,-0.0186 0.2063588,-0.20636 0.2315104,-0.23151 0.015592,-0.0156 0.050555,0.0156 0.066146,0 0.1325679,-0.13257 0.4524378,-0.15478 0.5953125,-0.29766 0.027963,-0.028 0.3629335,-0.0322 0.4299482,-0.0992 0.0264,-0.0264 0.130666,0.0174 0.165364,0 0.07222,-0.0361 0.453183,-0.0563 0.463021,-0.0661 0.02756,-0.0276 0.104731,-0.005 0.132292,-0.0331 0.04851,-0.0485 0.216095,-0.0507 0.23151,-0.0661 0.153707,-0.15371 0.919221,-0.10604 0.959115,-0.0661 0.06063,0.0606 0.303168,-0.0606 0.363802,0 0.09144,0.0914 0.375187,0.006 0.496094,0.0661 0.171172,0.0856 0.413308,0.0166 0.496093,-0.0661 0.09371,-0.0937 0.237023,-0.13781 0.330729,-0.23151 0.03073,-0.0307 0.182822,-0.0175 0.231511,-0.0661 0.0165,-0.0165 0.139468,0 0.165364,0 0.05819,0 0.518776,-0.0558 0.529167,-0.0661 0.01514,-0.0151 0.27975,-0.0841 0.330729,-0.0331 0.09815,0.0981 0.56224,0.0468 0.56224,0.0992 0,0.011 -0.0441,0 -0.03307,0 0.135366,0 0.396875,0.0771 0.396875,0.0992"
       id="path5199"
       inkscape:connector-curvature="0" />
    <path
       style="fill:none;stroke:#f2f2f2;stroke-width:0.52916667;stroke-linecap:round;stroke-linejoin:round;stroke-opacity:1;stroke-miterlimit:4;stroke-dasharray:none"
       d="m 26.888281,291.84061 c 0.366562,0.0348 0.946229,-0.1121 1.190625,0.1323 0.06615,0.0661 0.330729,-0.0661 0.396875,0 0.05512,0.0551 0.242535,-0.022 0.297656,0.0331 0.109072,0.10907 0.295587,0.0816 0.463021,0.16536 0.04877,0.0244 0.194432,-0.0371 0.23151,0 0.05584,0.0558 0.652299,0.11118 0.826823,0.19844 0.04175,0.0209 0.166688,-0.0317 0.198438,0 0.06489,0.0649 0.269414,0.0379 0.297656,0.0661 0.124164,0.12416 0.432506,0.0356 0.628385,0.23151 0.04961,0.0496 0.214974,-0.0165 0.264584,0.0331 0.162502,0.1625 0.480332,0.11653 0.628385,0.26458 0.02204,0.022 0.110244,-0.022 0.132292,0 0.03858,0.0386 0.09371,0.0606 0.132292,0.0992 0.04633,0.0463 0.498125,0.0351 0.529166,0.0662 0.06488,0.0649 0.326959,0.12852 0.330729,0.13229 0.01558,0.0156 -0.01558,0.0506 0,0.0661 0.03307,0.0331 0.132292,0 0.165365,0.0331 0.122391,0.12239 0.373703,0.17526 0.496094,0.29765 0.02291,0.0229 0.142449,0.0102 0.165364,0.0331 0.01558,0.0156 -0.01558,0.0505 0,0.0661 0.01654,0.0165 0.08268,-0.0165 0.09922,0 0.06615,0.0661 0.165365,0.0992 0.23151,0.16537 0.03917,0.0392 0.458661,0.12793 0.496094,0.16536 0.08268,0.0827 0.181901,0.14883 0.264583,0.23151 0.03307,0.0331 0.132292,0 0.165365,0.0331 0.06843,0.0684 -0.104569,-0.003 0.03307,0.0661 0.09581,0.0479 0.232831,0.0675 0.297656,0.13229 0.02,0.02 0.30298,0.0384 0.330729,0.0661 0.08931,0.0893 0.208347,0.20835 0.297657,0.29766 0.01558,0.0156 0.05055,-0.0156 0.06614,0 0.08331,0.0833 0.148207,0.11513 0.231511,0.19843 0.0441,0.0441 0.154339,0.022 0.198437,0.0661 0.104505,0.1045 0.297244,0.16495 0.396875,0.26458 0.01558,0.0156 0.05055,-0.0156 0.06615,0 0.01558,0.0156 -0.01558,0.0506 0,0.0661 0.01654,0.0165 0.08268,-0.0165 0.09922,0 0.06725,0.0673 0.197334,0.13119 0.264583,0.19844 0.02066,0.0207 0.220872,0.0886 0.264584,0.13229 0.03577,0.0358 0.654626,0.0924 0.661458,0.0992 0.03699,0.037 0.109553,0.0434 0.132292,0.0661 0.06614,0.0662 0.132291,0.13229 0.198437,0.19844 0.01558,0.0156 0.05055,-0.0156 0.06615,0 0.04961,0.0496 0.115755,0.0827 0.165365,0.13229 0.01558,0.0156 0.05055,-0.0156 0.06614,0 0.06064,0.0606 0.10473,0.1378 0.165365,0.19844 0.02479,0.0248 -0.02479,0.0413 0,0.0661 0.07717,0.0772 0.154339,0.15434 0.23151,0.23151 0.01558,0.0156 0.05055,-0.0156 0.06615,0 0.025,0.025 0.01434,0.0662 0.06615,0.0662"
       id="path5201"
       inkscape:connector-curvature="0" />
    <path
       style="fill:none;stroke:#f2f2f2;stroke-width:0.52916667;stroke-linecap:round;stroke-linejoin:round;stroke-opacity:1;stroke-miterlimit:4;stroke-dasharray:none"
       d="m 2.0174479,295.37942 c 0.1920882,-0.0378 0.5804023,-0.096 0.6614583,0.0661 0.030856,0.0617 0.023122,0.0893 0.066146,0.13229 0.022048,0.022 0.044097,-0.022 0.066146,0 0.022048,0.022 0.011025,0.0772 0.033073,0.0992 0.019188,0.0192 0.2951173,0.0331 0.3638021,0.0331 0.031364,0 0.1784651,0.02 0.1984375,0 0.058218,-0.0582 0.2031404,-0.10393 0.2645833,-0.16537 0.015592,-0.0156 -0.00986,-0.0464 0,-0.0661 0.1230696,-0.24614 0.1181881,-0.4229 0.3307292,-0.52917 0.052074,-0.026 0.2633096,10e-4 0.2976562,-0.0331 0.053651,-0.0537 0.3351935,-0.0375 0.3638021,-0.0661 0.028871,-0.0289 0.076015,-0.038 0.1322917,-0.0661 0.1009324,-0.0505 0.618768,0 0.760677,0 0.025897,0 0.148862,-0.0165 0.1653646,0 0.099219,0.0992 0.2976563,0.0992 0.396875,0.19844 0.0083,0.008 0.68633,0 0.7606771,0 0.6614583,0 1.3229166,0 1.984375,0 0.1604248,0 0.7457929,-0.057 0.8598958,0 0.1677969,0.0839 0.9713652,0.0784 0.9921872,0.0992 0.06581,0.0658 0.290634,0.0992 0.429948,0.0992 0.650434,0 1.300868,0 1.951302,0 0.04737,0 0.267507,-0.0301 0.297656,0 0.02052,0.0205 0.136257,0.0661 0.165365,0.0661 0.06462,0 0.65426,-0.007 0.661458,0 0.01654,0.0165 0.04961,0.0165 0.06615,0.0331 0.01559,0.0156 -0.01559,0.0506 0,0.0661 0.04878,0.0488 0.190971,0.0256 0.23151,0.0661 0.04735,0.0473 0.108297,0.1083 0.165365,0.16536 0.006,0.006 0.09325,0.19247 0.09922,0.19844 0.06063,0.0606 0.10473,0.1378 0.165364,0.19844 0.01822,0.0182 0.220453,0.0882 0.231511,0.0992 0.03489,0.0349 0.03218,0.0657 0.09922,0.0992 0.02747,0.0137 0.100938,0 0.132292,0 0.340847,0 0.24686,-0.34608 0.396875,-0.4961 0.04108,-0.0411 0.270979,-0.0725 0.330729,-0.13229 0.02205,-0.022 0.110243,0.022 0.132292,0 0.02205,-0.022 0.0441,-0.0441 0.06615,-0.0661 0.0062,-0.006 1.051682,-0.13895 1.058333,-0.1323 0.05245,0.0525 0.236398,0.038 0.264583,0.0661 0.01657,0.0166 0.04446,0.0775 0.06615,0.0992 0.04106,0.0411 0.277109,0.0787 0.363802,0.16536 0.08819,0.0882 0.4079,-0.0551 0.496094,0.0331 0.08564,0.0856 0.256699,0.0661 0.429948,0.0661 0.391251,0 0.678771,0.0488 0.892969,-0.16536 0.01398,-0.014 0.107387,-0.0412 0.132291,-0.0661 0.02205,-0.022 -0.02205,-0.0441 0,-0.0661 0.02756,-0.0276 0.07166,-0.0386 0.09922,-0.0661 0.02205,-0.022 0.01103,-0.0772 0.03307,-0.0992 0.02784,-0.0278 0.541156,-0.0331 0.628385,-0.0331 0.05267,0 0.297212,-0.0335 0.330729,0 0.128544,0.12854 0.382366,0.0847 0.529167,0.23151 0.03307,0.0331 0.132292,0 0.165365,0.0331 0.06063,0.0606 0.303168,-0.0606 0.363802,0 0.156166,0.15617 1.191266,0.0999 1.223698,0.13229 0.0441,0.0441 0.187413,-0.011 0.23151,0.0331 0.0441,0.0441 0.08819,0.0882 0.132292,0.13229 0.03859,0.0386 0.192925,-0.0386 0.23151,0 0.08268,0.0827 0.28112,0.0496 0.363802,0.13229 0.05512,0.0551 0.275608,-0.0551 0.330729,0 0.01654,0.0165 0.01654,0.0496 0.03307,0.0661 0.03416,0.0342 0.583227,-0.0121 0.628386,0.0331 0.04853,0.0485 0.411637,0.0809 0.429948,0.0992 0.05484,0.0548 0.261732,0.11433 0.363802,0.16536 0.02754,0.0138 0.111313,-0.021 0.132291,0 0.0882,0.0882 0.308682,0.0441 0.396875,0.13229 0.02426,0.0243 1.404253,-0.0179 1.455209,0.0331 0.0241,0.0241 0.09967,0.0335 0.132291,0.0661 0.100037,0.10004 0.243309,0.21024 0.33073,0.29766 0.02074,0.0207 0.190836,0.0255 0.23151,0.0661 0.02934,0.0294 0.783145,-0.0106 0.79375,0 0.08268,0.0827 0.214974,0.11576 0.297656,0.19844 0.05409,0.0541 0.232744,0.001 0.297656,0.0661 0.01654,0.0165 0.01654,0.0496 0.03307,0.0661 0.02852,0.0285 0.356108,0.0254 0.429948,0.0992 0.06615,0.0661 0.297657,-0.0331 0.363802,0.0331 0.02011,0.0201 0.100603,0.0661 0.132292,0.0661"
       id="path5203"
       inkscape:connector-curvature="0" />
    <path
       style="fill:none;stroke:#f2f2f2;stroke-width:0.26458333;stroke-linecap:round;stroke-linejoin:round;stroke-opacity:1;stroke-miterlimit:4;stroke-dasharray:none"
       d="m 7.4744791,293.46119 c 0.4160567,0.11927 0.6777945,0.24784 0.9260416,0.49609 0.015285,0.0153 0.206357,0.041 0.2315104,0.0661 0.02236,0.0223 -0.02236,0.0438 0,0.0661 0.020979,0.021 0.1047557,-0.0138 0.1322917,0 0.2970644,0.14853 0.5313283,0.10138 0.7606771,0.33073 0.015288,0.0153 0.07925,-0.01 0.099219,0 0.069672,0.0348 0.1968847,0.0646 0.2315104,0.0992 0.027561,0.0276 0.1378038,-0.0276 0.1653647,0 0.155891,0.15589 0.623243,0.29766 0.79375,0.29766"
       id="path5205"
       inkscape:connector-curvature="0" />
    <path
       style="fill:none;stroke:#f2f2f2;stroke-width:0.26458333;stroke-linecap:round;stroke-linejoin:round;stroke-opacity:1;stroke-miterlimit:4;stroke-dasharray:none"
       d="m 9.7565103,291.77447 c 0.117457,0.0849 0.198039,0.0988 0.2645837,0.16536 0.01559,0.0156 -0.01559,0.0506 0,0.0662 0.02168,0.0217 0.08265,0.0496 0.09922,0.0661 0.01559,0.0156 -0.01559,0.0506 0,0.0661 0.01103,0.011 0.0882,0.022 0.09922,0.0331 0.07936,0.0794 0.133373,0.13338 0.198438,0.19844 0.01654,0.0165 0.08268,-0.0165 0.09922,0 0.07717,0.0772 0.220486,0.0882 0.297657,0.16537 0.04054,0.0405 0.656009,-0.005 0.694531,0.0331 0.0078,0.008 -0.0078,0.0253 0,0.0331 0.03307,0.0331 0.165364,-0.0331 0.198437,0 0.02745,0.0274 0.417979,0.13229 0.463021,0.13229"
       id="path5207"
       inkscape:connector-curvature="0" />
    <path
       style="fill:none;stroke:#f2f2f2;stroke-width:0.26458333;stroke-linecap:round;stroke-linejoin:round;stroke-opacity:1;stroke-miterlimit:4;stroke-dasharray:none"
       d="m 14.552083,294.81718 c 0.127193,0.0873 0.638365,0.17534 0.694531,0.23151 0.05757,0.0576 0.573176,-0.0992 0.661459,-0.0992 0.22791,0 0.407554,-0.0224 0.496093,0.0661 0.05512,0.0551 0.275608,-0.0551 0.33073,0 0.07294,0.0729 0.480235,0.0172 0.529166,0.0661 0.07848,0.0785 1.138237,0.13229 1.389063,0.13229 0.0302,0 0.117089,0.042 0.165364,0.0661 0.04877,0.0244 0.194433,-0.0371 0.231511,0 0.102567,0.10256 0.62563,0.0358 0.694531,-0.0331 0.03307,-0.0331 0.132292,0 0.165365,-0.0331 0.06229,-0.0623 0.615546,-0.0331 0.46302,-0.0331"
       id="path5209"
       inkscape:connector-curvature="0" />
    <path
       style="fill:none;stroke:#f2f2f2;stroke-width:0.26458333;stroke-linecap:round;stroke-linejoin:round;stroke-opacity:1;stroke-miterlimit:4;stroke-dasharray:none"
       d="m 26.524479,292.40285 c 0.02774,0.0597 0.282855,-0.0479 0.330729,0 0.03858,0.0386 0.06063,0.0937 0.09922,0.1323 0.02204,0.022 0.07717,0.011 0.09922,0.0331 0.02204,0.022 0.01103,0.0772 0.03307,0.0992 0.0091,0.009 0.175903,0.0767 0.231511,0.13229 0.03307,0.0331 0.132291,0 0.165364,0.0331 0.01558,0.0156 -0.01558,0.0506 0,0.0661 0.02204,0.022 0.110244,-0.022 0.132292,0 0.046,0.046 0.173397,0.0411 0.198438,0.0661 0.01558,0.0156 -0.01558,0.0506 0,0.0662 0.03126,0.0313 0.137697,0.0385 0.165364,0.0661 0.02204,0.022 0.110244,-0.022 0.132292,0 0.141761,0.14176 0.522626,0.12575 0.661458,0.26458 0.02204,0.022 0.110244,-0.022 0.132292,0 0.01654,0.0165 0.01654,0.0496 0.03307,0.0661 0.04516,0.0452 0.252492,-0.0121 0.297656,0.0331 0.07394,0.0739 0.642392,0.1463 0.661458,0.16536 0.02204,0.022 0.07717,0.011 0.09922,0.0331 0.09785,0.0978 0.165478,0.13235 0.297656,0.19844 0.04617,0.0231 0.234159,0.003 0.264584,0.0331 0.08808,0.0881 0.346596,0.14815 0.396875,0.19843 0.09138,0.0914 0.236153,0.13694 0.330729,0.23151 0.01529,0.0153 0.07925,-0.01 0.09922,0 0.08349,0.0417 0.190603,0.0914 0.23151,0.13229 0.02259,0.0226 0.269245,0.005 0.330729,0.0661 0.03578,0.0358 0.56424,0.002 0.595313,0.0331 0.0677,0.0677 0.341267,0.0661 0.46302,0.0661"
       id="path5211"
       inkscape:connector-curvature="0" />
    <path
       style="fill:none;stroke:#f2f2f2;stroke-width:0.26458333;stroke-linecap:round;stroke-linejoin:round;stroke-opacity:1;stroke-miterlimit:4;stroke-dasharray:none"
       d="m 25.863021,293.09739 c 0.03049,0.073 0.186577,-0.0449 0.23151,0 0.106391,0.10639 0.265987,0.26598 0.363802,0.3638 0.01558,0.0156 0.05055,-0.0156 0.06615,0 0.04516,0.0452 0.1202,0.1202 0.165364,0.16536 0.04984,0.0498 0.203097,0.0377 0.264584,0.0992 0.02204,0.022 0.110244,-0.022 0.132291,0 0.03383,0.0338 0.15834,0.0261 0.198438,0.0661 0.05297,0.053 0.205883,0.0736 0.23151,0.0992 0.01654,0.0165 0.01654,0.0496 0.03307,0.0661 0.0392,0.0392 0.254225,0.0558 0.297656,0.0992 0.02756,0.0276 0.03859,0.0717 0.06615,0.0992 0.06009,0.0601 0.278575,0.014 0.330729,0.0661 0.10473,0.10473 0.325218,0.0937 0.429948,0.19844 0.03797,0.038 0.429194,-2.6e-4 0.496094,0.0331 0.221419,0.11071 0.503703,0.10683 0.661458,0.26459 0.01654,0.0165 0.08268,-0.0165 0.09922,0 0.02756,0.0276 0.03858,0.0717 0.06615,0.0992 0.03262,0.0326 0.108188,0.042 0.132292,0.0661 0.02204,0.022 0.01103,0.0772 0.03307,0.0992 0.02204,0.022 0.07717,0.011 0.09922,0.0331 0.01558,0.0156 -0.01558,0.0506 0,0.0661 0.01103,0.011 0.08819,0.022 0.09922,0.0331 0.05512,0.0551 0.110244,0.11025 0.165365,0.16537 0.02291,0.0229 0.142449,0.0102 0.165364,0.0331 0.07852,0.0785 0.685718,0.26458 0.826823,0.26458 0.08682,0 0.154858,0.0226 0.198438,0.0661 0.0019,0.002 0.322183,0.0331 0.198437,0.0331"
       id="path5213"
       inkscape:connector-curvature="0" />
    <path
       style="fill:none;stroke:#f2f2f2;stroke-width:0.26458333;stroke-linecap:round;stroke-linejoin:round;stroke-opacity:1;stroke-miterlimit:4;stroke-dasharray:none"
       d="m 28.24427,294.38723 c 0.242107,0.13914 0.427834,0.29554 0.595313,0.46302 0.04245,0.0424 0.13357,0.0343 0.165365,0.0661 0.02756,0.0276 0.0055,0.10473 0.03307,0.13229 0.0217,0.0217 0.115721,0.0165 0.132292,0.0331 0.01558,0.0156 -0.01558,0.0506 0,0.0662 0.01656,0.0166 0.110609,0.0114 0.132292,0.0331 0.02756,0.0276 0.03858,0.0717 0.06615,0.0992 0.02291,0.0229 0.142449,0.0102 0.165364,0.0331 0.04945,0.0495 0.153959,0.0878 0.198438,0.13229 0.01654,0.0165 0.08268,-0.0165 0.09922,0 0.01656,0.0166 0.04446,0.0775 0.06615,0.0992 0.01162,0.0116 0.292566,0.0611 0.363802,0.13229 0.01654,0.0165 0.08268,-0.0165 0.09922,0 0.05512,0.0551 0.110244,0.11025 0.165365,0.16537 0.01654,0.0165 0.08268,-0.0165 0.09922,0 0.05512,0.0551 0.143317,0.0772 0.198438,0.13229 0.04961,0.0496 0.214974,-0.0165 0.264583,0.0331 0.04849,0.0485 0.102315,0.0992 0.198438,0.0992"
       id="path5215"
       inkscape:connector-curvature="0" />
    <path
       style="fill:none;stroke:#f2f2f2;stroke-width:0.26458333;stroke-linecap:round;stroke-linejoin:round;stroke-opacity:1;stroke-miterlimit:4;stroke-dasharray:none"
       d="m 4.2333333,297.06614 c 0.2848451,-0.16372 0.3116051,-0.41083 0.4960937,-0.59532 0.038585,-0.0386 0.1598525,0.006 0.1984375,-0.0331 0.059316,-0.0593 0.1064308,-0.0661 0.2315104,-0.0661 0.036736,0 0.2081245,-0.0234 0.2315104,0 0.050832,0.0508 0.1726378,0.0734 0.1984375,0.0992 0.015592,0.0156 -0.015592,0.0506 0,0.0661 0.027363,0.0274 0.3834276,0.0527 0.396875,0.0661 0.016536,0.0165 0.016536,0.0496 0.033073,0.0661 0.082682,0.0827 0.3803385,-0.0496 0.4630208,0.0331 0.092305,0.0923 0.3234396,0.16537 0.4960937,0.16537"
       id="path5217"
       inkscape:connector-curvature="0" />
    <path
       style="fill:none;stroke:#f2f2f2;stroke-width:0.26458333;stroke-linecap:round;stroke-linejoin:round;stroke-opacity:1;stroke-miterlimit:4;stroke-dasharray:none"
       d="m 4.6302083,295.90858 c 0.207364,-0.0233 0.3475709,-0.0992 0.5291666,-0.0992 0.2671961,0 0.9773592,-0.0513 1.0914063,-0.16536 0.027828,-0.0278 0.2454177,-0.04 0.2976562,-0.0661 0.031181,-0.0156 0.099219,-0.0679 0.099219,-0.0331 0,0.011 -0.033073,0.011 -0.033073,0 0,-0.0312 0.044097,-0.0441 0.066146,-0.0661 0.027561,-0.0276 0.1047308,-0.006 0.1322916,-0.0331 0.055122,-0.0551 0.1102432,-0.11024 0.1653646,-0.16536 0.015592,-0.0156 -0.015592,-0.0506 0,-0.0661 0.00983,-0.01 0.1531554,-0.0331 0.066146,-0.0331"
       id="path5219"
       inkscape:connector-curvature="0" />
  </g>
</svg>
