<?xml version="1.0" encoding="UTF-8" standalone="no"?>
<!-- Created with Inkscape (http://www.inkscape.org/) -->

<svg
   xmlns:dc="http://purl.org/dc/elements/1.1/"
   xmlns:cc="http://creativecommons.org/ns#"
   xmlns:rdf="http://www.w3.org/1999/02/22-rdf-syntax-ns#"
   xmlns:svg="http://www.w3.org/2000/svg"
   xmlns="http://www.w3.org/2000/svg"
   xmlns:sodipodi="http://sodipodi.sourceforge.net/DTD/sodipodi-0.dtd"
   xmlns:inkscape="http://www.inkscape.org/namespaces/inkscape"
   width="256"
   height="256"
   viewBox="0 0 67.73248 67.73248"
   version="1.1"
   id="svg5227"
   sodipodi:docname="faviconMockup.svg"
   inkscape:version="0.92.1 r15371">
  <defs
     id="defs5221" />
  <sodipodi:namedview
     id="base"
     pagecolor="#ffffff"
     bordercolor="#666666"
     borderopacity="1.0"
     inkscape:pageopacity="0.0"
     inkscape:pageshadow="2"
     inkscape:zoom="1"
     inkscape:cx="134.94242"
     inkscape:cy="135.89604"
     inkscape:document-units="px"
     inkscape:current-layer="layer1"
     showgrid="false"
     units="px"
     inkscape:pagecheckerboard="true"
     inkscape:showpageshadow="false"
     inkscape:window-width="1920"
     inkscape:window-height="1017"
     inkscape:window-x="-8"
     inkscape:window-y="-8"
     inkscape:window-maximized="1" />
  <metadata
     id="metadata5224">
    <rdf:RDF>
      <cc:Work
         rdf:about="">
        <dc:format>image/svg+xml</dc:format>
        <dc:type
           rdf:resource="http://purl.org/dc/dcmitype/StillImage" />
        <dc:title></dc:title>
      </cc:Work>
    </rdf:RDF>
  </metadata>
  <g
     inkscape:label="Layer 1"
     inkscape:groupmode="layer"
     id="layer1"
     transform="translate(0,-229.26666)">
    <rect
       style="opacity:1;fill:#0a0a33;fill-opacity:1;stroke:#f2f2f2;stroke-width:0.52916002;stroke-linecap:round;stroke-linejoin:round;stroke-miterlimit:4;stroke-dasharray:none;stroke-opacity:1"
       id="rect5772"
       width="66.26252"
       height="66.26252"
       x="0.73498011"
       y="230.00163"
       rx="16.56563"
       ry="16.56563" />
    <path
       style="opacity:1;fill:#f2f2f2;fill-opacity:1;stroke:#f2f2f2;stroke-width:0.52899337;stroke-linecap:round;stroke-linejoin:round;stroke-miterlimit:4;stroke-dasharray:none;stroke-opacity:1"
       id="path5795"
       d="m 17.284256,263.86002 c 0.0192,-0.81475 0.01107,-1.62994 0.0069,-2.44484 -0.0034,-0.5978 -0.005,-1.19557 -0.0057,-1.79337 -5.2e-4,-0.53342 -4.74e-4,-1.06685 -4.74e-4,-1.60026 -0.01917,-0.48351 0.07811,-0.95792 0.174077,-1.42605 0.146024,-0.40333 0.201139,-0.83499 0.316252,-1.24808 0.105301,-0.40371 0.264731,-0.7824 0.38072,-1.18227 0.172737,-0.38437 0.224633,-0.81101 0.338012,-1.21695 0.139323,-0.42384 0.157816,-0.87712 0.255301,-1.31199 0.140341,-0.39006 0.287308,-0.76665 0.388052,-1.17374 0.107337,-0.39987 0.261695,-0.77776 0.403916,-1.16259 0.136927,-0.36226 0.364323,-0.65623 0.577724,-0.96195 0.168752,-0.35551 0.403712,-0.63079 0.668242,-0.895 0.266047,-0.22997 0.528029,-0.46962 0.765364,-0.73659 1.133591,-1.0243 2.638129,-1.76424 3.788134,-2.55496 0.931354,-0.64039 -1.894252,1.2216 -2.841377,1.8324 1.047168,0.7357 2.81529,-2.8835 4.370129,-2.16811 0.362753,0.17394 0.594669,0.56424 0.764781,0.94771 0.128726,0.38675 0.262417,0.77077 0.418323,1.14479 0.124296,0.40937 0.281089,0.80512 0.382891,1.22296 0.103031,0.49927 0.114289,1.0135 0.124545,1.52344 0.0028,0.52171 0.02964,1.04372 -0.0468,1.56017 -0.06579,0.43649 -0.230206,0.84065 -0.348347,1.26115 -0.168699,0.45794 -0.217346,0.95172 -0.337058,1.42484 -0.08922,0.42934 -0.211866,0.84494 -0.343723,1.25985 -0.159996,0.36785 -0.272732,0.75672 -0.406233,1.13698 -0.113484,0.41414 -0.250818,0.81685 -0.35843,1.2332 -0.12317,0.44901 -0.310232,0.86794 -0.44909,1.31089 -0.152027,0.38702 -0.258923,0.79186 -0.390732,1.18763 -0.155439,0.4809 -0.342413,0.94763 -0.512028,1.42237 -0.174042,0.40319 -0.296793,0.82946 -0.440241,1.24676 -0.128386,0.37955 -0.291657,0.74269 -0.451387,1.1066 -0.18031,0.35415 -0.294579,0.73817 -0.436736,1.11122 -0.154689,0.35857 -0.335905,0.70339 -0.51959,1.0448 -0.227681,0.34179 -0.451364,0.68818 -0.659193,1.04537 -0.188442,0.39729 -0.460786,0.73254 -0.696723,1.09358 -0.217626,0.35044 -0.384477,0.73207 -0.60829,1.07751 -0.259575,0.36466 -0.487521,0.75834 -0.751078,1.11913 -0.262845,0.2763 -0.501182,0.58394 -0.683222,0.93259 -0.167715,0.35295 -0.406236,0.62161 -0.688542,0.86039 -0.240384,0.26153 -0.447053,0.56448 -0.655272,0.85921 -0.249559,0.29656 -0.497313,0.59123 -0.709216,0.92341 -0.253611,0.29996 -0.505657,0.59674 -0.732481,0.92413 -0.217279,0.2959 -0.461585,0.56365 -0.689999,0.84812 -0.231522,0.26634 -0.478872,0.51652 -0.70202,0.79176 -0.238472,0.38219 -0.523377,0.72775 -0.800262,1.0758 -0.24682,0.31521 -0.493895,0.63266 -0.764421,0.92292 -0.243746,0.2786 -0.481617,0.5653 -0.739951,0.82737 -0.313328,0.29621 -0.662092,0.54044 -0.968262,0.84642 -1.139789,1.15529 -2.507389,2.6796 -4.0826258,2.53105 -0.417184,-0.1392 -0.772384,-0.38869 -1.034877,-0.77668 -0.191392,-0.36666 -0.338592,-0.7556 -0.50405,-1.13668 -0.170253,-0.41443 -0.199013,-0.87165 -0.307058,-1.30674 -0.125367,-0.47196 -0.162749,-0.96238 -0.18676,-1.45143 -0.01215,-0.52795 -0.03442,-1.05761 -0.0018,-1.58494 0.03643,-0.45314 0.190286,-0.86744 0.336076,-1.28609 0.146774,-0.4526 0.39143,-0.85032 0.585731,-1.27661 0.160818,-0.39721 0.35619,-0.77634 0.606435,-1.1113 0.233824,-0.28351 0.43599,-0.59044 0.629116,-0.90993 0.277006,-0.36334 0.563549,-0.71654 0.847482,-1.07307 0.282687,-0.33569 0.5729098,-0.66561 0.8772518,-0.97695 0.231384,-0.30243 0.550653,-0.48644 0.822479,-0.73586 1.184186,-1.09289 2.477666,-1.72519 3.886072,-2.62482 -6.0543388,3.87422 -1.554368,0.99912 0.296076,-0.20432 0.955232,-0.62125 -3.836832,2.45406 -2.872877,1.84987 1.079619,-0.67669 2.146831,-1.3778 3.219894,-2.06738 0.955957,-0.61432 -1.910076,1.23227 -2.868577,1.84163 -0.05794,0.0368 0.110965,-0.0825 0.166465,-0.12383 8.714912,-5.5893 0.228394,-0.1362 0.337658,-0.21355 1.122112,-0.79407 2.368431,-1.98497 3.782982,-2.23262 0.223158,-0.16356 0.495878,-0.16097 0.739671,-0.2464 0.116897,-0.041 0.223072,-0.11384 0.33762,-0.16237 0.06203,-0.018 0.127029,-0.0282 0.186059,-0.0566 0.05409,-0.0259 0.09974,-0.0701 0.149615,-0.10505 0.05429,-0.0282 0.107069,-0.0603 0.162855,-0.0847 0.186284,-0.0811 0.380699,-0.11243 0.577085,-0.14459 0.356224,-0.22424 0.771716,-0.21241 1.151014,-0.3457 0.45514,-0.13061 0.924895,-0.17974 1.344474,-0.42876 0.401137,-0.20864 0.838544,-0.29768 1.262752,-0.43044 0.478005,-0.094 0.93402,-0.26987 1.413192,-0.36108 0.24889,-0.16356 0.543899,-0.17694 0.810231,-0.27311 0.119649,-0.0431 0.228613,-0.11743 0.345855,-0.16836 0.392665,-0.17075 0.826474,-0.0932 1.220936,-0.2328 0.402635,-0.14499 0.825657,-0.17634 1.245155,-0.20001 0.455264,-0.0512 0.926187,0.0514 1.371631,-0.0721 0.409269,-0.13141 0.833832,-0.16775 1.256914,-0.19251 0.430931,0.0337 0.830508,-0.13681 1.250937,-0.20955 0.270501,-0.0301 0.549275,-0.0447 0.799767,-0.17814 0.106229,-0.0566 0.197117,-0.14439 0.30091,-0.20635 0.233647,-0.0965 0.113323,-0.0547 0.361314,-0.12381 0,0 -2.805274,2.43505 -2.805274,2.43505 v 0 c -0.225412,0.10644 -0.11511,0.0497 -0.331058,0.16995 -0.366933,0.19173 -0.76352,0.2241 -1.159678,0.29168 -0.421248,0.0963 -0.838432,0.17834 -1.270926,0.17455 -0.419363,0.0439 -0.830452,0.13221 -1.244713,0.21417 -0.461149,0.0205 -0.923466,0.008 -1.383856,0.0503 -0.413179,0.0441 -0.817614,0.12962 -1.21982,0.24422 -0.40465,0.0499 -0.811681,0.0976 -1.189128,0.28254 -0.385488,0.15598 -0.789991,0.26208 -1.184518,0.38456 -0.467759,0.11923 -0.930478,0.26301 -1.396888,0.38824 -0.419419,0.13681 -0.84599,0.24345 -1.239084,0.46594 -0.45349,0.15437 -0.918252,0.25023 -1.376672,0.38409 -0.395382,0.0849 -0.775036,0.21457 -1.161592,0.33567 -0.361351,0.11303 -0.687815,0.31462 -1.046242,0.43783 -0.360379,0.14299 -0.737695,0.23759 -1.101769,0.36838 -0.170199,0.0606 -0.202554,0.0635 -0.361005,0.15278 -0.05525,0.0312 -0.214912,0.137 -0.161408,0.10226 0.957798,-0.62139 3.838022,-2.47228 2.874321,-1.86238 -0.638523,0.40408 -7.4174078,4.80492 -0.339615,0.21248 -1.11999,0.74322 -2.26912,1.4322 -3.372988,2.20496 -1.156856,0.80985 9.511356,-6.22724 -0.347255,0.22559 -0.100762,0.0659 8.327603,-5.38558 -0.307408,0.18773 6.608542,-4.28876 2.915334,-2.11287 2.195154,-1.31867 -0.290059,0.21336 -0.542628,0.48291 -0.847768,0.67296 -0.264981,0.35281 -0.598383,0.63864 -0.889986,0.96389 -0.275991,0.3604 -0.563049,0.70497 -0.842202,1.0593 -0.249587,0.27146 -0.356921,0.6582 -0.63435,0.8992 -0.22071,0.34023 -0.492173,0.63415 -0.648047,1.02716 -0.15703,0.44985 -0.417492,0.82994 -0.584482,1.27115 -0.1638028,0.38005 -0.3044058,0.77578 -0.3789128,1.18902 -0.0969,0.49601 -0.01697,1.0166 -0.02977,1.52109 0.01715,0.46022 0.0403,0.92371 0.153974,1.36927 0.105855,0.414 0.1407518,0.84172 0.2785108,1.24451 0.153689,0.35604 0.291051,0.71814 0.46543,1.06268 0.207356,0.27824 0.507371,0.47522 0.839222,0.4552 1.098706,-0.34647 3.158939,-2.00053 -2.5150858,1.72277 -0.05396,0.0353 0.114038,-0.0589 0.166178,-0.0976 0.140359,-0.10405 0.175435,-0.17015 0.285732,-0.31329 0.319471,-0.28407 0.605068,-0.61932 0.9671388,-0.83994 0.267886,-0.24823 0.499984,-0.52092 0.754044,-0.78242 0.232516,-0.32756 0.528953,-0.59426 0.777227,-0.90783 0.248164,-0.36561 0.535438,-0.69312 0.807448,-1.03768 0.161783,-0.35777 0.444729,-0.57246 0.670231,-0.87417 0.265527,-0.2318 0.480735,-0.53923 0.70111,-0.82075 0.272386,-0.27877 0.423268,-0.68072 0.745283,-0.90124 0.171183,-0.2131 0.282058,-0.47532 0.461396,-0.68196 0.03788,-0.0437 0.08959,-0.0705 0.1271,-0.11463 0.04023,-0.0472 0.06946,-0.10485 0.104175,-0.15718 0.258101,-0.24604 0.454008,-0.57699 0.645179,-0.88654 0.232161,-0.27532 0.576813,-0.4138 0.723648,-0.77062 0.227292,-0.32931 0.368802,-0.73093 0.657185,-1.01309 0.337931,-0.27722 0.479636,-0.72034 0.78064,-1.04138 0.09863,-0.17594 0.242666,-0.32677 0.329859,-0.50849 0.09028,-0.18812 0.131156,-0.40363 0.284593,-0.55114 0.181411,-0.40178 0.469971,-0.71261 0.703453,-1.07689 0.163642,-0.4007 0.424452,-0.72761 0.63319,-1.09961 0.245577,-0.27804 0.338833,-0.65298 0.558411,-0.95253 0.04481,-0.12182 0.10857,-0.23476 0.149488,-0.35837 0.08522,-0.25745 0.108607,-0.54098 0.287398,-0.75242 0.119559,-0.37821 0.305402,-0.72444 0.46288,-1.08347 0.118399,-0.43884 0.288141,-0.8577 0.428573,-1.28776 0.21224,-0.43735 0.325932,-0.931 0.52461,-1.37778 0.108302,-0.41391 0.264244,-0.80677 0.378703,-1.21857 0.09727,-0.2092 0.133211,-0.42492 0.214478,-0.6417 0.02648,-0.0707 0.05895,-0.1384 0.08842,-0.20753 0.03249,-0.0641 0.07191,-0.12422 0.09748,-0.19211 0.02884,-0.0765 0.0432,-0.15898 0.06481,-0.23833 0.06987,-0.21461 0.100976,-0.43301 0.166394,-0.64868 0.03809,-0.12562 0.105068,-0.23869 0.142646,-0.36447 0.02169,-0.0727 0.02879,-0.14979 0.0432,-0.22464 0.107856,-0.40062 0.265641,-0.77955 0.38989,-1.17341 0.196172,-0.36368 0.274835,-0.80266 0.368809,-1.2099 0.134337,-0.47662 0.194309,-0.96482 0.330802,-1.44171 0.07301,-0.20976 0.108357,-0.42501 0.178901,-0.63521 0.04094,-0.12202 0.111411,-0.23041 0.148847,-0.35385 0.02169,-0.0715 0.02728,-0.14778 0.04094,-0.22182 0.104443,-0.49167 0.100761,-0.98089 0.08527,-1.486 -0.0065,-0.48037 -0.01001,-0.96453 -0.09115,-1.43801 -0.08686,-0.39876 -0.245167,-0.76737 -0.353704,-1.15827 -0.15469,-0.37186 -0.294607,-0.75085 -0.415117,-1.13807 -0.127386,-0.29674 -0.296617,-0.58139 -0.600759,-0.6538 -1.144801,-0.0119 -4.221604,2.59196 1.864537,-1.5133 -10.332386,6.68892 2.459628,-1.64375 -0.962514,0.65166 -0.271376,0.22915 -0.489233,0.52904 -0.754652,0.76711 -0.294794,0.19752 -0.535044,0.42998 -0.721557,0.75426 -0.153404,0.35432 -0.435596,0.58416 -0.587908,0.93784 -0.198333,0.3341 -0.2984,0.74001 -0.426554,1.1118 -0.149329,0.37528 -0.145613,0.82072 -0.400355,1.14767 -0.115236,0.4392 -0.151062,0.8836 -0.24726,1.32891 -0.03878,0.129 -0.09482,0.25183 -0.125224,0.38365 -0.06598,0.28591 -0.06391,0.59543 -0.200381,0.86029 -0.09011,0.19492 -0.115074,0.39209 -0.185698,0.59564 -0.02169,0.0625 -0.0494,0.12223 -0.07407,0.18334 -0.02776,0.0541 -0.0627,0.10444 -0.08323,0.16256 -0.02425,0.0687 -0.03329,0.1428 -0.04994,0.21409 -0.125224,0.41273 -0.185988,0.83478 -0.317073,1.24629 -0.155619,0.4012 -0.202909,0.88825 -0.229144,1.31967 1.1e-5,0.53359 6.7e-5,1.06721 -4.73e-4,1.6008 -8.04e-4,0.59999 -0.0023,1.19997 -0.0057,1.79994 -0.0041,0.81229 -0.01251,1.62488 0.0069,2.43699 0,0 -3.159244,1.79911 -3.159244,1.79911 z"
       inkscape:connector-curvature="0" />
    <path
       style="opacity:1;fill:#f2f2f2;fill-opacity:1;stroke:#f2f2f2;stroke-width:0.52916002;stroke-linecap:round;stroke-linejoin:round;stroke-miterlimit:4;stroke-dasharray:none;stroke-opacity:1"
       id="path5797"
       d="m 46.5546,250.6444 c 0.416913,0.5466 0.882325,1.0422 1.316979,1.5699 0.315646,0.29512 0.563052,0.64888 0.815355,1.00633 0.203458,0.35515 0.39049,0.72096 0.509383,1.12263 0.178044,0.40444 0.271919,0.83383 0.327489,1.27755 0.05094,0.52227 0.05117,1.04845 0.05346,1.57316 4.72e-4,0.53486 -9.47e-4,1.06972 -0.002,1.60456 -9.45e-4,0.53399 -9.45e-4,1.06798 -9.45e-4,1.60197 -0.0043,0.52125 0.02539,1.04242 -0.05009,1.55856 -0.09597,0.47413 -0.13205,0.95834 -0.22353,1.43321 -0.08282,0.46468 -0.214261,0.92125 -0.393701,1.35063 -0.149667,0.37582 -0.319295,0.73522 -0.440149,1.12445 -0.138287,0.36559 -0.311202,0.71676 -0.497421,1.05469 -0.219899,0.31116 -0.362248,0.66127 -0.518085,1.0138 -0.175847,0.39637 -0.413699,0.75645 -0.642611,1.11695 -0.173648,0.3541 -0.367706,0.69027 -0.577077,1.01891 -0.234449,0.27754 -0.391563,0.61885 -0.605545,0.91461 -0.199381,0.32067 -0.350039,0.67226 -0.618639,0.92967 -0.265457,0.24317 -0.520581,0.50014 -0.785345,0.74445 0.09939,-0.0393 -2.55177,2.6393 -3.776846,1.90493 -0.122919,-0.0737 -0.231001,-0.17474 -0.348079,-0.25952 -0.312954,-0.28687 -0.495727,-0.68747 -0.704266,-1.06359 -0.186538,-0.37107 -0.288434,-0.78149 -0.455289,-1.16406 -0.220675,-0.46607 -0.3087,-0.97859 -0.362156,-1.49666 -0.01412,-2.05648 2.293893,-2.49307 3.63948,-3.35872 0.369867,-0.25927 0.798557,-0.31267 1.223744,-0.34928 0.468893,-0.0284 0.938742,-0.0238 1.408137,-0.0226 0.440222,-0.002 0.880348,0.11703 1.248282,0.38787 0.339888,0.23157 0.655085,0.52109 0.929825,0.84359 0.276639,0.21874 0.540884,0.4579 0.817299,0.67844 0.313631,0.17295 0.654476,0.28782 0.959082,0.48059 0.322061,0.17615 0.664484,0.31632 0.970892,0.52534 0.330168,0.21683 0.711335,0.24802 1.084549,0.27607 0.463373,0.0242 0.927454,0.0202 1.39119,0.0199 0.487186,0.012 0.875511,0.0206 1.349037,-0.11224 0.366839,-0.0836 0.761834,-0.17854 1.0812,-0.40563 1.8578,-1.13864 -4.293591,2.85553 -2.072779,1.25635 0.296048,-0.21541 0.555403,-0.48059 0.824975,-0.73316 0.257395,-0.24587 0.459733,-0.5373 0.640275,-0.85567 0.148167,-0.35761 0.372126,-0.66304 0.542078,-1.00603 0.206214,-0.32523 0.318922,-0.70692 0.451964,-1.07345 0.147935,-0.43879 0.148847,-0.91067 0.195109,-1.37033 0.09452,-0.45283 0.163517,-0.90825 0.199073,-1.37146 0.03135,-0.51921 0.03158,-1.03992 0.03304,-1.56005 4.63e-4,-0.53407 -4.72e-4,-1.06816 -9.46e-4,-1.60225 0.0023,-0.52729 0.0168,-1.05118 -0.05496,-1.57337 -0.103854,-0.51474 -0.106248,-1.04592 -0.183861,-1.56397 -0.118969,-0.44302 -0.142932,-0.90677 -0.226694,-1.35671 -0.07126,-0.41581 -0.244138,-0.79166 -0.350743,-1.19543 -0.07465,-0.40512 -0.19778,-0.79612 -0.348247,-1.17301 -0.14631,-0.39229 -0.363779,-0.69987 -0.659308,-0.96279 -0.253201,-0.30621 -0.595511,-0.49016 -0.945249,-0.61973 -0.394202,-0.1402 -0.770261,-0.29903 -1.183676,-0.36346 -0.448949,-0.0527 -0.901115,-0.0514 -1.351988,-0.0531 -0.447681,0.052 -0.870679,-0.10704 -1.307277,-0.18433 -0.438907,-0.0656 -0.882431,-0.0719 -1.324492,-0.0783 -0.431681,-0.008 -0.874149,-0.0547 -1.251555,0.21459 -1.128874,0.65088 -0.597344,0.34761 2.744685,-1.76134 0.04994,-0.0316 -0.09406,0.0733 -0.141235,0.10984 -0.145112,0.11204 -0.238845,0.20579 -0.339917,0.36783 -0.195614,0.36296 -0.313215,0.74161 -0.373408,1.15807 -0.05441,0.50813 -0.0528,1.02099 -0.05476,1.53195 0.0028,0.40332 0.131907,0.67776 0.409372,0.92247 0.29429,0.22104 0.584024,0.35525 0.935187,0.41685 0.364957,0.18492 0.754756,0.25059 1.150036,0.28806 0.458667,0.0322 0.918542,0.0301 1.377904,0.0305 0.477901,-5.4e-4 0.955796,-0.002 1.433692,-0.002 0.483962,0.0529 0.943315,-0.0579 1.415859,-0.14778 0.415248,-0.0535 0.793933,-0.25681 1.167607,-0.44954 0.345941,-0.17054 0.682099,-0.36798 1.039703,-0.52188 0.07147,-0.023 0.145612,-0.0372 0.214422,-0.0687 0.125724,-0.0575 0.482489,-0.27891 0.364911,-0.20284 -0.904665,0.58519 -3.634718,2.30955 -2.727812,1.72868 1.069242,-0.68484 2.14055,-1.36567 3.210823,-2.04848 -9.588294,6.15531 7.560619,-4.93786 -2.16414,1.32588 0.32084,-0.22439 0.612138,-0.49354 0.932666,-0.71911 1.078173,-0.69576 2.156687,-1.39086 3.234525,-2.08728 2.069086,-1.33687 -3.927109,2.61002 -2.030565,1.30598 0.290357,-0.2521 0.584435,-0.49327 0.880696,-0.73564 0,0 3.311495,-1.44262 3.311495,-1.44262 v 0 c -0.322255,0.20473 -0.607397,0.45434 -0.894009,0.71407 -0.226751,0.2232 -0.09035,0.11084 -0.357845,0.28361 -1.078698,0.69678 -2.15611,1.39605 -3.235205,2.09205 -1.068023,0.68887 -2.684823,1.50582 2.396254,-1.5673 -0.216993,0.15717 -0.451388,0.2894 -0.652245,0.473 -0.04576,0.042 -0.07839,0.10025 -0.125652,0.13999 -0.04587,0.0385 -0.100637,0.0617 -0.150956,0.0925 -7.331059,4.79731 -1.349405,0.88133 -0.297632,0.19932 0.04925,-0.032 -0.09837,0.0649 -0.142592,0.10504 -0.325758,0.29518 0.07621,0.002 -0.284588,0.23506 -1.065626,0.68684 -2.129652,1.37676 -3.19448,2.06513 0.959031,-0.62083 1.917611,-1.24252 2.877085,-1.8625 0.05359,-0.0345 -0.105765,0.0719 -0.159407,0.10645 -1.068879,0.68791 -2.135696,1.37987 -3.208114,2.06085 -0.183331,0.11643 -0.394235,0.16057 -0.58253,0.26428 -0.346064,0.17874 -0.68698,0.36641 -1.038286,0.53121 -0.385955,0.18733 -0.799588,0.29933 -1.215795,0.36371 -0.481802,0.0895 -0.962501,0.11604 -1.451086,0.0955 -0.478292,9.8e-4 -0.956595,0.002 -1.434888,9.8e-4 -0.4681,-0.004 -0.937495,-0.006 -1.403288,-0.0635 -0.401681,-0.0629 -0.786469,-0.18174 -1.172316,-0.31896 -0.383172,-0.11524 -0.724981,-0.30986 -1.038904,-0.58314 -0.320454,-0.34289 -0.522242,-0.71331 -0.548107,-1.222 5e-6,-0.52492 -0.0028,-1.0506 0.03126,-1.57447 0.03881,-0.44198 0.08754,-0.89557 0.319835,-1.27033 0.08343,-0.28088 0.171039,-0.5097 0.408718,-0.66552 3.15718,-2.06963 2.052006,-1.55626 3.354821,-2.14936 0.439956,-0.10765 0.882937,-0.0997 1.331706,-0.0811 0.454616,0.014 0.91074,0.0332 1.359257,0.12442 0.421622,0.0884 0.837525,0.17295 1.269849,0.1348 0.464242,0.008 0.931213,0.014 1.389673,0.10485 0.419248,0.10066 0.814282,0.27612 1.220831,0.42555 0.37466,0.17913 0.733702,0.39547 1.016003,0.7315 0.313716,0.3204 0.569362,0.67355 0.73985,1.11304 0.15737,0.39345 0.297718,0.80013 0.37145,1.2244 0.09905,0.41342 0.285672,0.78947 0.357849,1.21217 0.101923,0.45107 0.101834,0.92556 0.231413,1.37214 0.09692,0.51817 0.07546,1.05656 0.183983,1.57479 0.08535,0.54206 0.0991,1.07979 0.082,1.63031 4.02e-4,0.53441 0.0015,1.0688 0.0015,1.60319 -2.56e-4,0.52784 9.46e-4,1.05595 -0.01985,1.58341 -0.02445,0.47396 -0.06118,0.94914 -0.180174,1.40726 -0.10648,0.46482 -0.03915,0.96235 -0.16777,1.42669 -0.107677,0.39896 -0.264497,0.7818 -0.413736,1.16136 -0.211613,0.29937 -0.34144,0.66494 -0.560531,0.96215 -0.113664,0.32559 -0.34734,0.75593 -0.594755,0.96975 -0.225192,0.30757 -0.519508,0.5622 -0.80756,0.79075 -0.146989,0.14101 -0.315045,0.26654 -0.480836,0.37842 -1.19021,0.80324 -2.284311,1.67175 -3.528002,2.30342 -0.372494,0.1328 -0.739648,0.27227 -1.130039,0.32844 -0.458678,0.0769 -0.923719,0.0347 -1.386111,0.0459 -0.471444,-9.8e-4 -0.944002,9.7e-4 -1.413846,-0.0483 -0.412133,-0.0579 -0.813705,-0.15578 -1.171413,-0.40508 -0.320774,-0.17274 -0.641436,-0.34482 -0.963777,-0.51376 -0.336731,-0.16396 -0.683504,-0.31518 -0.993196,-0.53758 -0.281407,-0.24381 -0.581826,-0.46169 -0.844506,-0.73045 -0.2646,-0.28738 -0.550135,-0.55699 -0.8761,-0.75365 -0.354405,-0.18594 -0.749376,-0.23482 -1.138229,-0.22199 -0.462249,0.002 -0.926273,-3.9e-4 -1.385901,0.0619 -0.410671,0.0742 -0.789939,0.22026 -1.151097,0.45507 0.94618,-0.62141 1.894988,-1.23783 2.838534,-1.8642 0.06013,-0.0399 -0.129298,0.0617 -0.187836,0.10445 -0.252946,0.18474 -0.359721,0.48307 -0.375867,0.80977 0.03792,0.47306 0.09971,0.9442 0.305339,1.36813 0.16936,0.37003 0.271115,0.76611 0.442721,1.13287 0.176275,0.32491 0.328647,0.68185 0.616276,0.90573 0.188916,0.12343 0.357859,0.21515 0.581854,0.1398 0.04501,-0.0159 0.168646,-0.0924 0.128084,-0.0659 -0.958977,0.62739 -1.92257,1.24592 -2.883856,1.86888 0.320435,-0.15737 0.513704,-0.47634 0.808926,-0.67616 0.348285,-0.37778 -0.104174,0.0897 0.264586,-0.22069 0.178044,-0.14977 0.276533,-0.42786 0.381276,-0.63734 0.192999,-0.32073 0.430608,-0.60246 0.592627,-0.94825 0.261727,-0.25849 0.45438,-0.61545 0.600334,-0.96671 0.201797,-0.37158 0.438368,-0.71241 0.661994,-1.06454 0.04742,-0.11963 0.114395,-0.22878 0.160568,-0.34894 0.09603,-0.24994 0.131496,-0.52123 0.344177,-0.69585 0.166536,-0.34271 0.362776,-0.66431 0.515727,-1.01252 0.09192,-0.19332 0.118184,-0.39168 0.19488,-0.59204 0.239194,-0.62488 -0.07576,0.23821 0.175828,-0.33692 0.0289,-0.0661 0.0435,-0.13881 0.06527,-0.20828 0.174595,-0.41016 0.358582,-0.82378 0.433338,-1.27483 0.09805,-0.47188 0.145308,-0.94552 0.223123,-1.4221 0.104032,-0.4938 0.09733,-0.98507 0.08593,-1.49209 6.2e-5,-0.53417 1.38e-4,-1.06834 9.45e-4,-1.60248 4.73e-4,-0.53425 0.002,-1.06848 0.0023,-1.60273 -9.46e-4,-0.50945 9.45e-4,-1.01987 -0.03688,-1.52795 -0.04265,-0.4239 -0.122775,-0.83127 -0.300861,-1.2131 -0.09543,-0.36147 -0.269806,-0.68343 -0.449123,-1 -0.239103,-0.35351 -0.498664,-0.6803 -0.78777,-0.98605 -0.435459,-0.53561 -0.884913,-1.05749 -1.33126,-1.58165 0,0 3.040611,-2.04037 3.040611,-2.04037 z"
       inkscape:connector-curvature="0" />
    <path
       style="opacity:1;fill:#f2f2f2;fill-opacity:1;stroke:#f2f2f2;stroke-width:0.52916002;stroke-linecap:round;stroke-linejoin:round;stroke-miterlimit:4;stroke-dasharray:none;stroke-opacity:1"
       id="path5799"
       d="m 30.253405,272.07235 c 0.240532,-0.44866 0.55197,-0.84086 0.830493,-1.25938 0,0 3.237048,-1.57109 3.237048,-1.57109 v 0 c -0.256554,0.42593 -0.560644,0.80224 -0.829278,1.21714 0,0 -3.238263,1.61333 -3.238263,1.61333 z"
       inkscape:connector-curvature="0" />
    <path
       style="opacity:1;fill:#f2f2f2;fill-opacity:1;stroke:#f2f2f2;stroke-width:0.52916002;stroke-linecap:round;stroke-linejoin:round;stroke-miterlimit:4;stroke-dasharray:none;stroke-opacity:1"
       id="path5801"
       d="m 58.647735,271.8266 c 0.175936,-0.46254 0.08447,-0.22615 0.274797,-0.70899 0,0 3.208351,-1.63464 3.208351,-1.63464 v 0 c -0.199608,0.4542 -0.113734,0.2245 -0.25976,0.68809 0,0 -3.223388,1.65554 -3.223388,1.65554 z"
       inkscape:connector-curvature="0" />
  </g>
</svg>
