<?xml version="1.0" encoding="UTF-8" standalone="no"?>
<!-- Created with Inkscape (http://www.inkscape.org/) -->

<svg
   xmlns:dc="http://purl.org/dc/elements/1.1/"
   xmlns:cc="http://creativecommons.org/ns#"
   xmlns:rdf="http://www.w3.org/1999/02/22-rdf-syntax-ns#"
   xmlns:svg="http://www.w3.org/2000/svg"
   xmlns="http://www.w3.org/2000/svg"
   xmlns:sodipodi="http://sodipodi.sourceforge.net/DTD/sodipodi-0.dtd"
   xmlns:inkscape="http://www.inkscape.org/namespaces/inkscape"
   viewBox="0 0 507.99999 145.52084"
   version="1.1"
   id="svg8"
   inkscape:version="0.92.1 r15371"
   sodipodi:docname="footerSilhouetteMockup.svg">
  <defs
     id="defs2" />
  <sodipodi:namedview
     id="base"
     pagecolor="#ffffff"
     bordercolor="#666666"
     borderopacity="1.0"
     inkscape:pageopacity="0.0"
     inkscape:pageshadow="2"
     inkscape:zoom="2"
     inkscape:cx="125.27623"
     inkscape:cy="138.34362"
     inkscape:document-units="px"
     inkscape:current-layer="layer2"
     showgrid="false"
     units="px"
     inkscape:pagecheckerboard="true"
     inkscape:window-x="-8"
     inkscape:window-y="-8"
     inkscape:window-maximized="1"
     inkscape:object-nodes="true" />
  <metadata
     id="metadata5">
    <rdf:RDF>
      <cc:Work
         rdf:about="">
        <dc:format>image/svg+xml</dc:format>
        <dc:type
           rdf:resource="http://purl.org/dc/dcmitype/StillImage" />
        <dc:title />
      </cc:Work>
    </rdf:RDF>
  </metadata>
  <g
     inkscape:groupmode="layer"
     id="layer3"
     inkscape:label="Telescope">
    <path
       style="opacity:1;vector-effect:none;fill:#1a1a1a;fill-opacity:1;stroke:#1a1a1a;stroke-width:0.5291667;stroke-linecap:round;stroke-linejoin:round;stroke-miterlimit:4;stroke-dasharray:none;stroke-dashoffset:0;stroke-opacity:1"
       d="m 460.58204,63.15201 3.17336,-9.07444"
       id="path4684"
       inkscape:connector-curvature="0" />
    <path
       style="opacity:1;vector-effect:none;fill:none;fill-opacity:1;stroke:#1a1a1a;stroke-width:0.5291667;stroke-linecap:round;stroke-linejoin:round;stroke-miterlimit:4;stroke-dasharray:none;stroke-dashoffset:0;stroke-opacity:1"
       d="m 467.42459,62.56656 -2.87585,-8.391417 4.95837,8.196277"
       id="path4686"
       inkscape:connector-curvature="0" />
    <path
       style="opacity:1;vector-effect:none;fill:#1a1a1a;fill-opacity:1;stroke:#1a1a1a;stroke-width:0.5291667;stroke-linecap:round;stroke-linejoin:round;stroke-miterlimit:4;stroke-dasharray:none;stroke-dashoffset:0;stroke-opacity:1"
       d="m 461.79684,60.39553 2.1321,-6.293569"
       id="path4688"
       inkscape:connector-curvature="0" />
    <path
       style="opacity:1;vector-effect:none;fill:#1a1a1a;fill-opacity:1;stroke:#1a1a1a;stroke-width:1.0583334;stroke-linecap:round;stroke-linejoin:round;stroke-miterlimit:4;stroke-dasharray:none;stroke-dashoffset:0;stroke-opacity:1"
       d="M 466.65605,60.39553 464.3504,54.199535"
       id="path4690"
       inkscape:connector-curvature="0"
       sodipodi:nodetypes="cc" />
    <path
       style="opacity:1;vector-effect:none;fill:#1a1a1a;fill-opacity:1;stroke:#1a1a1a;stroke-width:1.0583334;stroke-linecap:round;stroke-linejoin:round;stroke-miterlimit:4;stroke-dasharray:none;stroke-dashoffset:0;stroke-opacity:1"
       d="m 468.54023,60.78583 -3.9667,-6.683869"
       id="path4692"
       inkscape:connector-curvature="0" />
    <path
       style="opacity:1;vector-effect:none;fill:#1a1a1a;fill-opacity:1;stroke:#1a1a1a;stroke-width:0.79375005;stroke-linecap:round;stroke-linejoin:round;stroke-miterlimit:4;stroke-dasharray:none;stroke-dashoffset:0;stroke-opacity:1"
       d="m 465.20622,53.862715 -1.6128,-0.275978"
       id="path4694"
       inkscape:connector-curvature="0"
       sodipodi:nodetypes="cc" />
    <path
       style="opacity:1;vector-effect:none;fill:#1a1a1a;fill-opacity:1;stroke:#1a1a1a;stroke-width:0.26458335;stroke-linecap:round;stroke-linejoin:round;stroke-miterlimit:4;stroke-dasharray:none;stroke-dashoffset:0;stroke-opacity:1"
       d="m 463.95373,53.467723 0.0744,-0.341511 0.94209,0.158563 -0.0495,0.378102"
       id="path4696"
       inkscape:connector-curvature="0" />
    <path
       style="opacity:1;vector-effect:none;fill:#1a1a1a;fill-opacity:1;stroke:#1a1a1a;stroke-width:0.39687502;stroke-linecap:round;stroke-linejoin:round;stroke-miterlimit:4;stroke-dasharray:none;stroke-dashoffset:0;stroke-opacity:1"
       d="m 464.47436,53.187202 0.062,-0.304928"
       id="path4698"
       inkscape:connector-curvature="0" />
    <path
       style="opacity:1;vector-effect:none;fill:#1a1a1a;fill-opacity:1;stroke:#1a1a1a;stroke-width:0.26458335;stroke-linecap:round;stroke-linejoin:round;stroke-miterlimit:4;stroke-dasharray:none;stroke-dashoffset:0;stroke-opacity:1"
       d="m 463.71821,52.309026 1.77262,0.878176"
       id="path4700"
       inkscape:connector-curvature="0"
       sodipodi:nodetypes="cc" />
    <path
       style="opacity:1;vector-effect:none;fill:#1a1a1a;fill-opacity:1;stroke:#1a1a1a;stroke-width:1.5875001;stroke-linecap:round;stroke-linejoin:round;stroke-miterlimit:4;stroke-dasharray:none;stroke-dashoffset:0;stroke-opacity:1"
       d="m 466.78001,53.150611 -3.86753,-2.000282"
       id="path4702"
       inkscape:connector-curvature="0"
       sodipodi:nodetypes="cc" />
    <path
       style="opacity:1;vector-effect:none;fill:#1a1a1a;fill-opacity:1;stroke:#1a1a1a;stroke-width:2.11666679;stroke-linecap:butt;stroke-linejoin:round;stroke-miterlimit:4;stroke-dasharray:none;stroke-dashoffset:0;stroke-opacity:1"
       d="m 463.28435,51.345476 -1.53709,-0.780595"
       id="path4704"
       inkscape:connector-curvature="0"
       sodipodi:nodetypes="cc" />
    <path
       style="opacity:1;vector-effect:none;fill:#1a1a1a;fill-opacity:1;stroke:#1a1a1a;stroke-width:0.79375005;stroke-linecap:butt;stroke-linejoin:round;stroke-miterlimit:4;stroke-dasharray:none;stroke-dashoffset:0;stroke-opacity:1"
       d="m 461.32579,51.369867 0.84293,-1.60998"
       id="path4706"
       inkscape:connector-curvature="0" />
    <path
       style="opacity:1;vector-effect:none;fill:#1a1a1a;fill-opacity:1;stroke:#1a1a1a;stroke-width:0.79375005;stroke-linecap:butt;stroke-linejoin:round;stroke-miterlimit:4;stroke-dasharray:none;stroke-dashoffset:0;stroke-opacity:1"
       d="m 466.65605,53.077429 2.00814,1.024532"
       id="path4708"
       inkscape:connector-curvature="0" />
    <path
       style="opacity:1;vector-effect:none;fill:#1a1a1a;fill-opacity:1;stroke:#1a1a1a;stroke-width:0.26458335;stroke-linecap:butt;stroke-linejoin:round;stroke-miterlimit:4;stroke-dasharray:none;stroke-dashoffset:0;stroke-opacity:1"
       d="m 468.44106,54.492262 0.42146,-0.780602"
       id="path4710"
       inkscape:connector-curvature="0" />
    <path
       style="opacity:1;vector-effect:none;fill:#1a1a1a;fill-opacity:1;stroke:#1a1a1a;stroke-width:0;stroke-linecap:butt;stroke-linejoin:round;stroke-miterlimit:4;stroke-dasharray:none;stroke-dashoffset:0;stroke-opacity:1"
       d="m 468.86252,53.71166 0.40201,0.211432 0.0699,0.256491 -0.21613,0.368337 -0.0539,0.09182 -0.18003,0.0475 -0.44328,-0.194948"
       id="path4712"
       inkscape:connector-curvature="0" />
  </g>
  <g
     inkscape:groupmode="layer"
     id="layer2"
     inkscape:label="Tracing Hills">
    <path
       style="fill:none;fill-opacity:1;stroke:#1a1a1a;stroke-width:3;stroke-linecap:butt;stroke-linejoin:miter;stroke-miterlimit:4;stroke-dasharray:none;stroke-opacity:1"
       d="m 0.1353398,53.418563 -0.0019,92.012147 H 507.87074 l -0.005,-72.9607"
       id="path4497"
       inkscape:connector-curvature="0" />
    <path
       inkscape:connector-curvature="0"
       id="path4503"
       d="m 507.86657,72.47001 c -0.6622,-0.26839 -1.3254,-0.53719 -1.72704,-0.6946 -0.40163,-0.1574 -0.54187,-0.2034 -0.62446,-0.24997 -0.0826,-0.0466 -0.10597,-0.0926 -0.2219,-0.13803 -0.11593,-0.0454 -0.32629,-0.0915 -0.4441,-0.13799 -0.1178,-0.0465 -0.1412,-0.0925 -0.2688,-0.138 -0.12761,-0.0455 -0.36134,-0.0915 -0.49085,-0.138 -0.12951,-0.0465 -0.15289,-0.0925 -0.23389,-0.13795 -0.081,-0.0454 -0.22128,-0.0914 -0.31552,-0.14932 -0.0942,-0.0579 -0.14099,-0.12691 -0.19828,-0.16119 -0.0573,-0.0343 -0.12741,-0.0343 -0.2685,-0.11466 -0.14109,-0.0804 -0.35146,-0.24138 -0.51471,-0.34478 -0.16324,-0.1034 -0.28011,-0.14938 -0.37313,-0.17259 -0.093,-0.0232 -0.16314,-0.0232 -0.46747,-0.12649 -0.30433,-0.10329 -0.84193,-0.31028 -1.14532,-0.41397 -0.3034,-0.1037 -0.37352,-0.1037 -0.45616,-0.13808 -0.0826,-0.0344 -0.17613,-0.10338 -0.25711,-0.138 -0.081,-0.0346 -0.15109,-0.0346 -0.37375,-0.12641 -0.22265,-0.0918 -0.59663,-0.27578 -0.85355,-0.39077 -0.25692,-0.115 -0.39717,-0.161 -0.5374,-0.20699 -0.14025,-0.046 -0.28049,-0.092 -0.44384,-0.12659 -0.16336,-0.0346 -0.35035,-0.0576 -0.45658,-0.0926 -0.10623,-0.035 -0.1296,-0.081 -0.19852,-0.1036 -0.0689,-0.0226 -0.1858,-0.0226 -0.46667,-0.0914 -0.28085,-0.0688 -0.72496,-0.20679 -0.95951,-0.29936 -0.23455,-0.0926 -0.25792,-0.13859 -0.31516,-0.16119 -0.0573,-0.0226 -0.15074,-0.0226 -0.44325,-0.0914 -0.29251,-0.0688 -0.78338,-0.2068 -1.12196,-0.27598 -0.33858,-0.0692 -0.52558,-0.0692 -0.67772,-0.0805 -0.15216,-0.0114 -0.26904,-0.0343 -0.50303,-0.11478 -0.23399,-0.0804 -0.5846,-0.21842 -0.85305,-0.29901 -0.26845,-0.0806 -0.45547,-0.10357 -0.59586,-0.12648 -0.1404,-0.0229 -0.2339,-0.0459 -0.45597,-0.1034 -0.22206,-0.0575 -0.57268,-0.14948 -0.76054,-0.21904 -0.18787,-0.0696 -0.21123,-0.11557 -0.30388,-0.16099 -0.0926,-0.0454 -0.25625,-0.0914 -0.37278,-0.11461 -0.11654,-0.0232 -0.18666,-0.0232 -0.23459,-0.0465 -0.048,-0.0234 -0.0713,-0.0694 -0.11686,-0.092 -0.0456,-0.0226 -0.11567,-0.0226 -0.44339,-0.13741 -0.32773,-0.11478 -0.91206,-0.34477 -1.29739,-0.47135 -0.38533,-0.12658 -0.57232,-0.14957 -0.85312,-0.22997 -0.28082,-0.0804 -0.6548,-0.21838 -1.05203,-0.34489 -0.39723,-0.12651 -0.81796,-0.24151 -1.16854,-0.33351 -0.35058,-0.092 -0.63106,-0.161 -0.99319,-0.21858 -0.36211,-0.0576 -0.8062,-0.10357 -1.20369,-0.16101 -0.39747,-0.0575 -0.74807,-0.12644 -0.97019,-0.1724 -0.22211,-0.046 -0.31562,-0.069 -0.54951,-0.14943 -0.23389,-0.0804 -0.60789,-0.21845 -0.84147,-0.29896 -0.23358,-0.0805 -0.32708,-0.10352 -0.46732,-0.138 -0.14025,-0.0345 -0.32724,-0.0805 -0.68933,-0.12659 -0.3621,-0.0461 -0.89971,-0.0921 -1.27371,-0.12656 -0.37401,-0.0345 -0.58439,-0.0575 -0.79475,-0.0804 -0.21036,-0.023 -0.42074,-0.046 -0.98177,-0.12644 -0.56101,-0.0805 -1.4726,-0.21845 -2.05688,-0.29898 -0.58429,-0.0805 -0.84138,-0.10352 -1.12185,-0.12652 -0.28047,-0.023 -0.58434,-0.046 -0.84137,-0.0575 -0.25703,-0.0116 -0.46741,-0.0116 -1.21538,-0.0116 h -2.96849 c -0.93496,0 -1.5193,0 -2.0101,0.0114 -0.4908,0.0114 -0.88817,0.0345 -1.67128,0.0345 -0.78309,7e-5 -1.95178,-0.0229 -2.61793,-0.0344 -0.66615,-0.0115 -0.82975,-0.0115 -0.94739,-0.0344 -0.11763,-0.0229 -0.18775,-0.0688 -0.28049,-0.092 -0.0927,-0.0232 -0.20959,-0.0232 -0.38537,-0.069 -0.17579,-0.0458 -0.40954,-0.13779 -0.68989,-0.2298 -0.28035,-0.092 -0.60759,-0.18401 -0.86449,-0.24158 -0.25691,-0.0575 -0.44391,-0.0806 -0.81809,-0.17247 -0.37419,-0.0919 -0.93518,-0.25289 -1.30895,-0.34497 -0.37377,-0.0921 -0.56077,-0.11505 -0.99337,-0.21846 -0.43261,-0.10341 -1.11046,-0.2874 -1.50772,-0.390918 -0.39726,-0.103518 -0.51414,-0.126509 -0.74772,-0.149587 -0.23358,-0.02309 -0.58419,-0.04603 -0.97005,-0.103452 -0.38585,-0.05738 -0.80659,-0.149381 -1.09884,-0.218351 -0.29226,-0.06896 -0.45587,-0.114973 -0.6661,-0.161012 -0.21023,-0.04603 -0.46735,-0.09203 -1.09832,-0.149609 -0.63097,-0.0576 -1.63606,-0.126575 -2.48924,-0.195546 -0.85318,-0.06896 -1.55439,-0.13797 -2.18548,-0.195478 -0.63108,-0.05753 -1.19205,-0.103511 -1.60101,-0.126583 -0.40895,-0.02309 -0.66607,-0.02309 -1.61267,0.01136 -0.94661,0.03445 -2.58279,0.103452 -3.56447,0.149417 -0.98168,0.04595 -1.30892,0.06896 -1.57778,0.08052 -0.26887,0.01158 -0.47923,0.01158 -1.21551,0.01158 -0.7363,0 -1.99848,0 -2.79336,-0.02286 -0.79487,-0.02286 -1.1221,-0.06889 -1.35569,-0.092 -0.23358,-0.02309 -0.37382,-0.02309 -0.78286,-0.02309 -0.40905,0 -1.0869,0 -1.42682,0.01055 -0.33991,0.01047 -0.33991,0.03349 -0.40904,0.04595 -0.0691,0.01247 -0.20937,0.01247 -0.61835,0.0354 -0.40899,0.02294 -1.08683,0.06896 -1.5427,0.09199 -0.45585,0.02309 -0.68959,0.02309 -1.22711,0.05746 -0.53753,0.03444 -1.379,0.103415 -1.95156,0.172231 -0.57257,0.06882 -0.87643,0.137815 -1.16878,0.172577 -0.29234,0.03474 -0.57282,0.03474 -0.94676,0.04625 -0.37394,0.01143 -0.84142,0.03444 -1.6245,0.04602 -0.78307,0.01158 -1.88164,0.01158 -2.88672,0.01158 -1.00509,0 -1.91668,0 -2.59434,0.05716 -0.67768,0.05724 -1.12179,0.172194 -1.41413,0.22999 -0.29235,0.05783 -0.4326,0.05783 -0.7597,0.103592 -0.3271,0.0458 -0.84132,0.137789 -1.54261,0.218409 -0.7013,0.0806 -1.5895,0.1496 -2.03466,0.1947 -0.44517,0.0451 -0.44517,0.0681 -0.50261,0.0806 -0.0574,0.0125 -0.17433,0.0125 -0.70022,0.0239 -0.5259,0.0115 -1.46085,0.0345 -2.04524,0.046 -0.5844,0.0114 -0.81818,0.0114 -1.12195,0.0341 -0.30377,0.0228 -0.67776,0.0688 -1.02841,0.10337 -0.35065,0.0346 -0.67789,0.0576 -1.47262,0.1036 -0.79473,0.046 -2.05693,0.11502 -2.76988,0.14958 -0.71296,0.0346 -0.87658,0.0346 -1.1218,0.0916 -0.24522,0.0571 -0.57247,0.17208 -0.96985,0.2872 -0.39738,0.11513 -0.86486,0.23012 -1.22725,0.2993 -0.3624,0.0692 -0.6195,0.0922 -0.8882,0.14937 -0.26868,0.0572 -0.54916,0.14918 -0.72467,0.19557 -0.1755,0.0464 -0.24562,0.0464 -0.45578,0.11491 -0.21017,0.0685 -0.56077,0.20652 -0.84137,0.28736 -0.28059,0.0808 -0.49097,0.10383 -0.66623,0.12675 -0.17527,0.0229 -0.31551,0.0459 -0.58425,0.12617 -0.26873,0.0803 -0.66608,0.21825 -0.95829,0.31037 -0.2922,0.0921 -0.47919,0.13812 -0.64299,0.16141 -0.16379,0.0233 -0.30403,0.0233 -0.46747,0.046 -0.16345,0.0227 -0.35044,0.0687 -0.49086,0.092 -0.14042,0.0233 -0.23392,0.0233 -0.38574,0.0347 -0.15184,0.0114 -0.36221,0.0344 -0.56087,0.0574 -0.19867,0.023 -0.38567,0.046 -0.82971,0.13783 -0.44405,0.0918 -1.14526,0.25284 -1.56616,0.3336 -0.4209,0.0808 -0.56115,0.0808 -0.72459,0.10348 -0.16344,0.0227 -0.35043,0.0687 -0.50254,0.092 -0.15211,0.0233 -0.26898,0.0233 -0.56101,0.069 -0.29202,0.0458 -0.7595,0.13776 -1.16852,0.22968 -0.40901,0.0919 -0.75962,0.1839 -1.16865,0.31029 -0.40902,0.12639 -0.8765,0.28738 -1.23881,0.40246 -0.36231,0.11509 -0.61943,0.18409 -0.95838,0.26465 -0.33893,0.0806 -0.75967,0.17255 -1.27396,0.25317 -0.51429,0.0806 -1.12201,0.14963 -1.71802,0.23007 -0.59601,0.0804 -1.18036,0.17243 -1.63609,0.26428 -0.45574,0.0918 -0.78297,0.18383 -0.99353,0.23016 -0.21055,0.0463 -0.30405,0.0463 -0.47915,0.0919 -0.17511,0.0456 -0.43221,0.13757 -0.61942,0.184 -0.18719,0.0464 -0.30405,0.0464 -0.37456,0.0682 -0.0705,0.0218 -0.0939,0.0679 -0.15192,0.092 -0.058,0.0242 -0.15153,0.0242 -0.45518,0.11573 -0.30367,0.0916 -0.8179,0.27556 -1.28542,0.41373 -0.46751,0.13816 -0.88824,0.23015 -1.33236,0.32217 -0.44411,0.092 -0.91159,0.18402 -1.21561,0.23024 -0.30402,0.0463 -0.44426,0.0463 -0.71287,0.10338 -0.26861,0.0572 -0.66597,0.17215 -0.93483,0.2413 -0.26885,0.0691 -0.4091,0.0921 -0.54948,0.10381 -0.14038,0.0117 -0.28062,0.0117 -0.54925,0.0574 -0.26863,0.0457 -0.66599,0.13772 -0.97002,0.18398 -0.30403,0.0463 -0.5144,0.0463 -0.70127,0.0576 -0.18688,0.0114 -0.35049,0.0343 -0.80626,0.11476 -0.45576,0.0804 -1.20373,0.21842 -1.74136,0.31047 -0.53763,0.0921 -0.86487,0.13804 -1.13379,0.1612 -0.26892,0.0232 -0.47928,0.0232 -0.63101,0.0456 -0.15173,0.0224 -0.24523,0.0684 -0.37399,0.092 -0.12875,0.0236 -0.29237,0.0236 -0.92343,0.0465 -0.63105,0.0229 -1.72963,0.069 -2.44258,0.092 -0.71295,0.023 -1.04019,0.023 -1.55426,0.0918 -0.51407,0.0687 -1.21529,0.20675 -1.64775,0.28731 -0.43245,0.0806 -0.59607,0.10355 -0.79477,0.12658 -0.19871,0.023 -0.43246,0.046 -0.81802,0.14922 -0.38555,0.10318 -0.92315,0.28718 -1.29724,0.39095 -0.37409,0.10378 -0.58446,0.12677 -0.88822,0.20697 -0.30375,0.0802 -0.70111,0.21818 -0.96998,0.2989 -0.26886,0.0807 -0.40911,0.10371 -0.54949,0.11539 -0.14038,0.0117 -0.28062,0.0117 -0.56092,0.0688 -0.28031,0.0572 -0.70104,0.17216 -1.09838,0.30996 -0.39734,0.1378 -0.77132,0.29878 -1.0402,0.39113 -0.26889,0.0924 -0.4325,0.11534 -0.52651,0.14881 -0.094,0.0335 -0.11738,0.0795 -0.19865,0.11497 -0.0813,0.0355 -0.22152,0.0585 -0.5487,0.2075 -0.32718,0.14903 -0.84141,0.42501 -1.15715,0.56363 -0.31573,0.13863 -0.4326,0.13863 -0.5376,0.14985 -0.10501,0.0112 -0.1985,0.0342 -0.49066,0.12612 -0.29216,0.0919 -0.78301,0.2529 -1.15711,0.34518 -0.3741,0.0923 -0.63121,0.11527 -1.09864,0.18417 -0.46742,0.0689 -1.14527,0.18388 -1.81137,0.34469 -0.6661,0.1608 -1.32057,0.36779 -1.69475,0.47166 -0.37418,0.10387 -0.46768,0.10387 -0.66616,0.14951 -0.19849,0.0457 -0.50236,0.13763 -0.7011,0.21767 -0.19875,0.08 -0.29225,0.14903 -0.38587,0.18435 -0.0936,0.0353 -0.18711,0.0353 -0.42066,0.0924 -0.23354,0.0572 -0.60752,0.17212 -0.91139,0.26413 -0.30387,0.092 -0.5376,0.16102 -0.77134,0.25277 -0.23373,0.0918 -0.46747,0.20676 -0.6196,0.26483 -0.15213,0.0581 -0.22225,0.0581 -0.26939,0.0799 -0.0471,0.0218 -0.0705,0.0678 -0.2102,0.1148 -0.1397,0.047 -0.39682,0.093 -0.52651,0.13818 -0.12969,0.0452 -0.12969,0.0912 -0.17545,0.1152 -0.0457,0.024 -0.13925,0.024 -0.291,0.0808 -0.15173,0.0569 -0.3621,0.17184 -0.50254,0.22998 -0.14043,0.0581 -0.21055,0.0581 -0.46749,0.19541 -0.25695,0.13728 -0.70106,0.41326 -1.0283,0.57472 -0.32723,0.16145 -0.5376,0.20745 -0.77134,0.31047 -0.23374,0.10303 -0.49085,0.26402 -0.65464,0.34523 -0.16378,0.0812 -0.2339,0.0812 -0.31553,0.0924 -0.0816,0.0112 -0.17514,0.0342 -0.39716,0.1145 -0.22202,0.0803 -0.57263,0.2183 -0.79489,0.28777 -0.22225,0.0695 -0.31575,0.0695 -0.60772,0.14957 -0.29199,0.0801 -0.78284,0.24109 -1.07521,0.32198 -0.29237,0.0809 -0.38587,0.0809 -0.44469,0.1027 -0.0589,0.0218 -0.0822,0.0679 -0.31534,0.16064 -0.23315,0.0928 -0.67725,0.23077 -0.94625,0.30014 -0.26899,0.0693 -0.36249,0.0693 -0.42131,0.0912 -0.0588,0.0218 -0.0822,0.0679 -0.21019,0.11478 -0.128,0.0469 -0.36174,0.0929 -0.57207,0.16158 -0.21031,0.0687 -0.39731,0.16063 -0.53775,0.20721 -0.14044,0.0466 -0.23393,0.0466 -0.29276,0.0684 -0.0589,0.0218 -0.0822,0.0678 -0.16352,0.10331 -0.0813,0.0355 -0.22153,0.0585 -0.40852,0.14987 -0.18698,0.0914 -0.42073,0.25238 -0.5611,0.33366 -0.14038,0.0813 -0.18714,0.0813 -0.46744,0.21863 -0.2803,0.13736 -0.79452,0.41333 -1.08669,0.56307 -0.29216,0.14973 -0.36228,0.17272 -0.40963,0.20641 -0.0474,0.0337 -0.0708,0.0797 -0.1171,0.10388 -0.0463,0.0242 -0.11648,0.0242 -0.15253,0.0462 -0.0361,0.022 -0.0361,0.068 -0.10498,0.1146 -0.069,0.0466 -0.20918,0.0926 -0.29158,0.13779 -0.0824,0.0452 -0.10577,0.0912 -0.14041,0.11539 -0.0346,0.0242 -0.0814,0.0242 -0.11687,0.046 -0.0355,0.0218 -0.0588,0.0679 -0.0935,0.092 -0.0346,0.0242 -0.0814,0.0242 -0.11686,0.046 -0.0355,0.0218 -0.0589,0.0679 -0.16343,0.14879 -0.10461,0.081 -0.29161,0.19595 -0.53704,0.29986 -0.24542,0.10391 -0.54935,0.19604 -0.73657,0.24247 -0.18721,0.0464 -0.25733,0.0464 -0.37407,0.10313 -0.11674,0.0567 -0.28036,0.1717 -0.42058,0.24125 -0.14022,0.0696 -0.2571,0.0926 -0.45589,0.22983 -0.19879,0.13728 -0.47927,0.39026 -0.67778,0.54021 -0.19852,0.14995 -0.31539,0.19595 -0.37503,0.24143 -0.0596,0.0455 -0.0596,0.0915 -0.11686,0.138 -0.0573,0.0465 -0.17411,0.0925 -0.23375,0.13799 -0.0597,0.0455 -0.0597,0.0915 -0.11691,0.12674 -0.0573,0.0352 -0.17418,0.0583 -0.29109,0.11509 -0.11693,0.0569 -0.2338,0.14885 -0.3274,0.19571 -0.0936,0.0468 -0.16371,0.0468 -0.3155,0.12657 -0.15179,0.0797 -0.38553,0.24071 -0.5376,0.32198 -0.15207,0.0813 -0.22219,0.0813 -0.45576,0.19559 -0.23356,0.11431 -0.63092,0.3443 -0.86484,0.45997 -0.23392,0.11567 -0.30403,0.11567 -0.37415,0.14919 -0.0701,0.0336 -0.14025,0.10252 -0.21037,0.13799 -0.0701,0.0355 -0.14024,0.0355 -0.29198,0.0924 -0.15173,0.0569 -0.38547,0.17191 -0.5376,0.22998 -0.15213,0.0581 -0.22225,0.0581 -0.42077,0.16085 -0.19852,0.10277 -0.52576,0.30975 -0.72459,0.41398 -0.19884,0.10422 -0.26896,0.10422 -0.36236,0.14936 -0.0934,0.0451 -0.21027,0.13713 -0.30387,0.18399 -0.0936,0.0468 -0.16371,0.0468 -0.22238,0.0802 -0.0587,0.0334 -0.10541,0.10238 -0.18684,0.14927 -0.0814,0.0469 -0.1983,0.0699 -0.26896,0.10342 -0.0707,0.0336 -0.094,0.0796 -0.17523,0.12634 -0.0812,0.0468 -0.22146,0.0928 -0.39686,0.19582 -0.17539,0.10303 -0.38575,0.26402 -0.59604,0.40221 -0.21029,0.13819 -0.42066,0.25318 -0.54939,0.31132 -0.12874,0.0581 -0.1755,0.0581 -0.22248,0.0915 -0.047,0.0333 -0.0937,0.10237 -0.18679,0.1606 -0.0931,0.0582 -0.23332,0.10423 -0.39714,0.21864 -0.16381,0.11441 -0.3508,0.2984 -0.46766,0.39137 -0.11687,0.093 -0.16363,0.093 -0.18799,0.11499 -0.0244,0.0221 -0.0244,0.068 -0.0467,0.092 -0.0224,0.024 -0.0691,0.024 -0.15095,0.0805 -0.0818,0.0565 -0.19868,0.17151 -0.30369,0.24119 -0.105,0.0697 -0.19851,0.0927 -0.31547,0.16107 -0.11696,0.0684 -0.25721,0.18339 -0.35077,0.24176 -0.0936,0.0584 -0.14034,0.0584 -0.19894,0.10328 -0.0586,0.0449 -0.12871,0.1369 -0.18698,0.184 -0.0582,0.0471 -0.10503,0.0471 -0.15201,0.0804 -0.047,0.0333 -0.0937,0.10237 -0.31629,0.0117 -0.22258,-0.0907 -0.61995,-0.34364 -0.85294,-0.47026 -0.233,-0.12663 -0.30312,-0.12663 -0.33917,-0.1506 -0.0361,-0.024 -0.0361,-0.07 -0.0821,-0.10332 -0.046,-0.0333 -0.13955,-0.0564 -0.39713,-0.20584 -0.25758,-0.14951 -0.67831,-0.42549 -0.95844,-0.58643 -0.28012,-0.16095 -0.42036,-0.20695 -0.50296,-0.25353 -0.0826,-0.0466 -0.10596,-0.0926 -0.13982,-0.11519 -0.0339,-0.0226 -0.0806,-0.0226 -0.245,-0.11445 -0.16438,-0.0918 -0.44488,-0.27584 -0.65466,-0.37935 -0.20978,-0.10352 -0.35003,-0.12653 -0.60762,-0.24148 -0.25759,-0.11494 -0.63158,-0.32194 -0.85297,-0.42561 -0.22139,-0.10367 -0.29151,-0.10367 -0.53747,-0.19546 -0.24596,-0.0918 -0.66669,-0.27579 -1.01696,-0.39085 -0.35026,-0.11507 -0.63075,-0.16106 -0.87639,-0.2185 -0.24564,-0.0575 -0.456,-0.12643 -0.85349,-0.28741 -0.39748,-0.16098 -0.98183,-0.41396 -1.30854,-0.54066 -0.32672,-0.12669 -0.39683,-0.12669 -0.51437,-0.17251 -0.11754,-0.0458 -0.28116,-0.13781 -0.54966,-0.2413 -0.26851,-0.10348 -0.64249,-0.21848 -0.87586,-0.27616 -0.23337,-0.0577 -0.32686,-0.0577 -0.50271,-0.11498 -0.17585,-0.0573 -0.43296,-0.17229 -0.59604,-0.22998 -0.16307,-0.0577 -0.2332,-0.0577 -0.29262,-0.0807 -0.0594,-0.023 -0.10617,-0.069 -0.18747,-0.1148 -0.0813,-0.0458 -0.19817,-0.0918 -0.29119,-0.11499 -0.093,-0.0232 -0.16313,-0.0232 -0.19918,-0.0472 -0.0361,-0.024 -0.0361,-0.07 -0.0701,-0.092 -0.0341,-0.022 -0.10419,-0.022 -0.19856,-0.0679 -0.0944,-0.0459 -0.21123,-0.13789 -0.3979,-0.24128 -0.18667,-0.10339 -0.44378,-0.21838 -0.73566,-0.31042 -0.29188,-0.092 -0.61911,-0.16104 -1.05181,-0.31048 -0.43269,-0.14945 -0.97029,-0.37943 -1.35592,-0.54042 -0.38563,-0.16099 -0.61937,-0.25299 -0.86475,-0.34499 -0.24539,-0.092 -0.50249,-0.18398 -0.67736,-0.23019 -0.17487,-0.0462 -0.26837,-0.0462 -0.51429,-0.12648 -0.24592,-0.0803 -0.64328,-0.24128 -0.99376,-0.36779 -0.35048,-0.1265 -0.65435,-0.21849 -0.94634,-0.28755 -0.292,-0.069 -0.57249,-0.11505 -0.72542,-0.16156 -0.15293,-0.0465 -0.17633,-0.0925 -0.33913,-0.16093 -0.1628,-0.0684 -0.46666,-0.16042 -0.86381,-0.24099 -0.39716,-0.0806 -0.88801,-0.14956 -1.36738,-0.25299 -0.47936,-0.10342 -0.94684,-0.24141 -1.26203,-0.31059 -0.3152,-0.0692 -0.47882,-0.0692 -0.68938,-0.0921 -0.21058,-0.0229 -0.46769,-0.0689 -0.66656,-0.11479 -0.19887,-0.046 -0.33912,-0.0919 -0.47936,-0.13794 -0.14025,-0.046 -0.28049,-0.092 -0.37457,-0.13818 -0.0941,-0.0462 -0.14084,-0.0922 -0.20998,-0.11519 -0.0691,-0.023 -0.16263,-0.023 -0.27989,-0.0458 -0.11727,-0.0228 -0.25751,-0.0688 -0.45644,-0.1608 -0.19892,-0.092 -0.45604,-0.22999 -0.6307,-0.29918 -0.17466,-0.0692 -0.26816,-0.0692 -0.45564,-0.12648 -0.1875,-0.0573 -0.46799,-0.17229 -0.65448,-0.22998 -0.18649,-0.0577 -0.27999,-0.0577 -0.50252,-0.12649 -0.22253,-0.0688 -0.57314,-0.20679 -0.79472,-0.27598 -0.22157,-0.0692 -0.31506,-0.0692 -0.68947,-0.18399 -0.37442,-0.1148 -1.02889,-0.34479 -1.40245,-0.45998 -0.37355,-0.11519 -0.46705,-0.11519 -0.64279,-0.16099 -0.17574,-0.0458 -0.43285,-0.13779 -0.71327,-0.22979 -0.28041,-0.092 -0.58428,-0.184 -0.9348,-0.27602 -0.35051,-0.092 -0.74788,-0.18401 -1.22691,-0.26457 -0.47903,-0.0806 -1.04,-0.14955 -1.55426,-0.21852 -0.51426,-0.069 -0.98174,-0.13798 -1.53102,-0.21848 -0.54929,-0.0805 -1.18039,-0.17249 -1.6829,-0.2415 -0.50251,-0.069 -0.8765,-0.11501 -1.33225,-0.16103 -0.45574,-0.046 -0.99335,-0.092 -1.42575,-0.12653 -0.4324,-0.0345 -0.75963,-0.0575 -1.3675,-0.1494 -0.60785,-0.0919 -1.49606,-0.25291 -1.987,-0.34486 -0.49093,-0.092 -0.58444,-0.11495 -0.72467,-0.14944 -0.14025,-0.0345 -0.32724,-0.0805 -0.65429,-0.12658 -0.32706,-0.0461 -0.79453,-0.0921 -1.32062,-0.18399 -0.52608,-0.0919 -1.11044,-0.2299 -1.4843,-0.31045 -0.37386,-0.0806 -0.53748,-0.10357 -0.75946,-0.12661 -0.22199,-0.023 -0.50248,-0.046 -0.81809,-0.0805 -0.3156,-0.0344 -0.66621,-0.0804 -0.94667,-0.11496 -0.28046,-0.0345 -0.49082,-0.0575 -0.82969,-0.0805 -0.33885,-0.023 -0.80633,-0.046 -1.2738,-0.069 -0.46748,-0.023 -0.93497,-0.046 -1.41424,-0.0919 -0.47927,-0.046 -0.97012,-0.11492 -1.32058,-0.14954 -0.35045,-0.0346 -0.56082,-0.0346 -1.04016,-0.092 -0.47934,-0.0574 -1.22731,-0.17236 -1.82341,-0.27583 -0.59611,-0.10346 -1.04022,-0.19546 -1.47265,-0.28744 -0.43243,-0.092 -0.85316,-0.18399 -1.25055,-0.27597 -0.39739,-0.092 -0.77138,-0.18398 -1.04022,-0.25296 -0.26885,-0.069 -0.43247,-0.11498 -0.59609,-0.16098 -0.16362,-0.046 -0.32723,-0.092 -0.57266,-0.16099 -0.24543,-0.069 -0.57266,-0.16099 -0.74881,-0.23055 -0.17616,-0.0696 -0.19953,-0.11558 -0.30381,-0.16101 -0.10428,-0.0454 -0.29127,-0.0914 -0.48977,-0.126 -0.19851,-0.0346 -0.40888,-0.0575 -0.52681,-0.0925 -0.11793,-0.035 -0.14131,-0.081 -0.36228,-0.12649 -0.22097,-0.0455 -0.64171,-0.0915 -1.06279,-0.19489 -0.42107,-0.10339 -0.8418,-0.26438 -1.14533,-0.35646 -0.30353,-0.0921 -0.49053,-0.11508 -0.59676,-0.15006 -0.10623,-0.035 -0.12959,-0.081 -0.26885,-0.12646 -0.13925,-0.0454 -0.39637,-0.0915 -0.63067,-0.18344 -0.2343,-0.092 -0.44466,-0.22998 -0.608,-0.32192 -0.16332,-0.0919 -0.2802,-0.13794 -0.37321,-0.16114 -0.093,-0.0232 -0.16315,-0.0232 -0.21108,-0.0466 -0.0479,-0.0234 -0.0713,-0.0694 -0.25749,-0.14931 -0.1862,-0.0799 -0.53681,-0.1949 -0.84047,-0.27545 -0.30368,-0.0806 -0.56079,-0.12655 -0.7135,-0.17268 -0.15271,-0.0461 -0.19946,-0.0921 -0.32729,-0.13798 -0.12782,-0.0459 -0.33818,-0.0918 -0.70067,-0.20678 -0.36247,-0.11496 -0.8767,-0.29895 -1.1692,-0.41399 -0.2925,-0.11503 -0.36262,-0.16104 -0.49071,-0.20701 -0.12808,-0.0459 -0.31508,-0.092 -0.46672,-0.11515 -0.15164,-0.0232 -0.26851,-0.0232 -0.3513,-0.0462 -0.0828,-0.023 -0.12956,-0.069 -0.45597,-0.13787 -0.32642,-0.0689 -0.93414,-0.16086 -1.50667,-0.21844 -0.57254,-0.0576 -1.11015,-0.0806 -1.57785,-0.13792 -0.46772,-0.0574 -0.86507,-0.14936 -1.41464,-0.35632 -0.54957,-0.20695 -1.25079,-0.52893 -1.67137,-0.71292 -0.42057,-0.184 -0.56081,-0.23 -0.74764,-0.27604 -0.18682,-0.046 -0.42056,-0.092 -0.55007,-0.13857 -0.12951,-0.0465 -0.15288,-0.0926 -0.31548,-0.13802 -0.16259,-0.0455 -0.46646,-0.0915 -0.794,-0.18339 -0.32754,-0.0919 -0.67815,-0.22991 -0.90001,-0.31043 -0.22187,-0.0805 -0.31537,-0.10351 -0.49048,-0.12659 -0.1751,-0.0231 -0.43222,-0.0461 -0.88821,-0.13797 -0.45599,-0.0919 -1.11046,-0.25288 -1.57783,-0.35641 -0.46738,-0.10354 -0.74787,-0.14953 -1.12183,-0.20704 -0.37397,-0.0575 -0.84145,-0.1265 -1.1802,-0.16112 -0.33876,-0.0346 -0.54912,-0.0346 -0.81817,-0.069 -0.26904,-0.0344 -0.59628,-0.10333 -0.91175,-0.16086 -0.31548,-0.0575 -0.61934,-0.10353 -1.07533,-0.21846 -0.45598,-0.11492 -1.06371,-0.29891 -1.4962,-0.43689 -0.43249,-0.13798 -0.6896,-0.22997 -0.98161,-0.31057 -0.29201,-0.0806 -0.6193,-0.1497 -0.9702,-0.2647 -0.35092,-0.11501 -0.7249,-0.27599 -0.95841,-0.36801 -0.2335,-0.092 -0.327,-0.11501 -0.44358,-0.12667 -0.11658,-0.0117 -0.25682,-0.0117 -0.46758,-0.0575 -0.21077,-0.0458 -0.49126,-0.13779 -0.7364,-0.19539 -0.24515,-0.0576 -0.45552,-0.0806 -0.87622,-0.1151 -0.42069,-0.0345 -1.05178,-0.0805 -1.53103,-0.12646 -0.47924,-0.046 -0.80647,-0.0919 -1.21552,-0.14944 -0.40904,-0.0575 -0.8999,-0.12649 -1.27373,-0.16111 -0.37382,-0.0346 -0.63094,-0.0346 -1.05185,-0.0805 -0.42091,-0.0459 -1.00526,-0.13787 -1.67123,-0.18399 -0.66599,-0.0461 -1.41395,-0.0461 -1.95172,-0.069 -0.53775,-0.0229 -0.86499,-0.0689 -1.21573,-0.13782 -0.35075,-0.069 -0.72474,-0.16093 -0.98195,-0.2299 -0.25722,-0.069 -0.39747,-0.11497 -0.68975,-0.22996 -0.29228,-0.11499 -0.73638,-0.29898 -1.00497,-0.40249 -0.26858,-0.10352 -0.36209,-0.12651 -0.86434,-0.13817 -0.50224,-0.0117 -1.41383,-0.0117 -2.32553,-0.0576 -0.9117,-0.0459 -1.82329,-0.1379 -2.46617,-0.21834 -0.64289,-0.0804 -1.01687,-0.14944 -1.32052,-0.18408 -0.30365,-0.0347 -0.53738,-0.0347 -0.78291,-0.046 -0.24552,-0.0114 -0.50264,-0.0345 -0.72474,-0.0574 -0.22208,-0.0229 -0.40908,-0.046 -0.73665,-0.14934 -0.32758,-0.10339 -0.79507,-0.28738 -1.13363,-0.39097 -0.33856,-0.1036 -0.54892,-0.12659 -1.09827,-0.20705 -0.54935,-0.0805 -1.43755,-0.218452 -1.98679,-0.298973 -0.54923,-0.08052 -0.7596,-0.103511 -1.36723,-0.126567 -0.60762,-0.02309 -1.6127,-0.04603 -2.55938,-0.08051 -0.94668,-0.03444 -1.83489,-0.08046 -2.38424,-0.114906 -0.54936,-0.03445 -0.75973,-0.05746 -1.00513,-0.08044 -0.24539,-0.02301 -0.52588,-0.04602 -1.05177,-0.08051 -0.52589,-0.03452 -1.29723,-0.08051 -1.7997,-0.103562 -0.50248,-0.02309 -0.73622,-0.02309 -1.22714,-0.04603 -0.49091,-0.02294 -1.23888,-0.06896 -2.12718,-0.160879 -0.8883,-0.09194 -1.91675,-0.229931 -2.54781,-0.310452 -0.63106,-0.08051 -0.8648,-0.103503 -1.20367,-0.12653 -0.33887,-0.02301 -0.78297,-0.04603 -1.26224,-0.09194 -0.47925,-0.04595 -0.99349,-0.114928 -1.51966,-0.241333 -0.52618,-0.126405 -1.06378,-0.310393 -1.40248,-0.413963 -0.33869,-0.103562 -0.47893,-0.126575 -0.67752,-0.149631 -0.1986,-0.02301 -0.45572,-0.04603 -0.68935,-0.0576 -0.23364,-0.01158 -0.44402,-0.01158 -0.60811,-0.03437 -0.16409,-0.02279 -0.28096,-0.06882 -0.46748,-0.09199 -0.18651,-0.02323 -0.44362,-0.02323 -0.71261,-0.0461 -0.26899,-0.02286 -0.54948,-0.06889 -0.84147,-0.092 -0.29199,-0.02316 -0.59585,-0.02316 -0.85321,-0.04595 -0.25737,-0.02287 -0.46774,-0.06882 -0.73629,-0.09206 -0.26854,-0.02323 -0.59577,-0.02338 -1.13379,-0.149705 -0.53801,-0.126361 -1.28598,-0.379341 -1.77665,-0.528877 -0.49068,-0.149543 -0.72441,-0.195538 -1.08664,-0.253068 -0.36223,-0.05753 -0.85308,-0.126531 -1.18016,-0.161145 -0.32708,-0.03459 -0.4907,-0.03459 -0.75978,-0.08044 -0.2691,-0.0458 -0.64308,-0.137815 -1.1805,-0.218395 -0.53742,-0.08058 -1.23864,-0.14958 -1.88135,-0.195619 -0.64272,-0.04602 -1.22707,-0.06904 -1.96337,-0.103511 -0.7363,-0.03444 -1.6245,-0.08048 -2.26709,-0.06926 -0.64259,0.01129 -1.03996,0.08025 -1.44909,0.126391 -0.40913,0.04617 -0.82985,0.06918 -1.49616,0.04632 -0.66629,-0.02286 -1.57787,-0.09186 -2.38446,-0.206756 -0.8066,-0.114899 -1.50781,-0.275889 -1.9755,-0.402346 -0.46769,-0.126457 -0.70143,-0.218447 -0.92326,-0.287484 -0.22183,-0.06904 -0.43219,-0.115031 -0.55,-0.16158 -0.1178,-0.04654 -0.14118,-0.09255 -0.26877,-0.138007 -0.1276,-0.04543 -0.36133,-0.09145 -0.49085,-0.137985 -0.12952,-0.04654 -0.15289,-0.09254 -0.21014,-0.11515 -0.0573,-0.02264 -0.15074,-0.02264 -0.47837,-0.114404 -0.32764,-0.0918 -0.88861,-0.275786 -1.22714,-0.367975 -0.33853,-0.09219 -0.45539,-0.09219 -0.61926,-0.115025 -0.16388,-0.02286 -0.37425,-0.06882 -0.52592,-0.092 -0.15168,-0.02316 -0.24517,-0.02316 -0.46745,-0.05753 -0.22229,-0.03437 -0.5729,-0.103341 -0.82994,-0.149366 -0.25704,-0.04602 -0.42067,-0.06904 -0.77136,-0.137962 -0.3507,-0.06896 -0.88831,-0.183936 -1.16974,-0.264981 -0.28142,-0.08104 -0.3048,-0.127039 -0.39726,-0.161027 -0.0925,-0.034 -0.25609,-0.05694 -0.5949,-0.08005 -0.33881,-0.02309 -0.85304,-0.0461 -1.39063,-0.06911 -0.5376,-0.02301 -1.09858,-0.04602 -1.74135,-0.06896 -0.64278,-0.02301 -1.36737,-0.04595 -1.81144,-0.05753 -0.44408,-0.01151 -0.6077,-0.01151 -0.97028,-0.08034 -0.36259,-0.06882 -0.92357,-0.206816 -1.21664,-0.299366 -0.293067,-0.09256 -0.316447,-0.138553 -0.373697,-0.161167 -0.0572,-0.02264 -0.15074,-0.02264 -0.40825,-0.09141 -0.25751,-0.06882 -0.678244,-0.206794 -0.958334,-0.275985 -0.28009,-0.06919 -0.42034,-0.06919 -0.63089,-0.09206 -0.21055,-0.02286 -0.49104,-0.06889 -0.73628,-0.092 -0.24524,-0.02316 -0.45561,-0.02316 -0.78296,-0.04603 -0.32735,-0.02286 -0.77145,-0.06889 -1.29734,-0.114921 -0.52588,-0.04602 -1.1336,-0.09201 -1.96342,-0.172481 -0.82981,-0.08047 -1.88164,-0.195464 -2.50107,-0.264442 -0.61943,-0.06896 -0.80642,-0.09197 -1.18041,-0.137956 -0.37398,-0.04602 -0.93495,-0.114987 -1.68276,-0.138125 -0.74781,-0.02316 -1.68277,-1.4e-4 -2.99176,-0.01158 -1.309,-0.01143 -2.99193,-0.05746 -3.96212,-0.103334 -0.9702,-0.04588 -1.22732,-0.09188 -1.47265,-0.126419 -0.24532,-0.03452 -0.47907,-0.05753 -0.74776,-0.06911 -0.26869,-0.01158 -0.57255,-0.01158 -0.99348,-0.05746 -0.42093,-0.04588 -0.95853,-0.137852 -1.62459,-0.21841 -0.66605,-0.08055 -1.46077,-0.14955 -1.99828,-0.18412 -0.5375,-0.03459 -0.81799,-0.03459 -1.32071,-0.09195 -0.50273,-0.05738 -1.22732,-0.172356 -1.68293,-0.229982 -0.45561,-0.0576 -0.64261,-0.0576 -0.9118,-0.114929 -0.2692,-0.05731 -0.61981,-0.172289 -0.87653,-0.229982 -0.25672,-0.05768 -0.42033,-0.05768 -0.56128,-0.09202 -0.14094,-0.0343 -0.25781,-0.103326 -0.40904,-0.137992 -0.15123,-0.03467 -0.33822,-0.03467 -0.54882,-0.05753 -0.21059,-0.02287 -0.44433,-0.06882 -0.65492,-0.126287 -0.21059,-0.05746 -0.39758,-0.126442 -0.57243,-0.161137 -0.17486,-0.03474 -0.33848,-0.03474 -0.88772,-0.01173 -0.54924,0.02294 -1.4842,0.06896 -2.02172,0.103305 -0.53751,0.03437 -0.67776,0.05731 -0.89994,0.06904 -0.22219,0.01165 -0.52605,0.01165 -1.07528,0.03459 -0.54924,0.02294 -1.34395,0.06896 -2.31405,0.08051 -0.970097,0.01158 -2.115423,-0.01143 -2.816478,-1.18e-4 -0.701055,0.01129 -0.958171,0.05731 -1.36732,0.09191 -0.409149,0.03467 -0.970121,0.0576 -1.531179,0.0576 -0.561059,5.9e-5 -1.122036,-0.02294 -1.461393,-0.05723 -0.339357,-0.0343 -0.456229,-0.08033 -0.642743,-0.103526 -0.186513,-0.02323 -0.443627,-0.02323 -0.584861,-0.03467 -0.141233,-0.01151 -0.164619,-0.03452 -0.280492,-0.04595 -0.115873,-0.01151 -0.326239,-0.01151 -0.945627,-2.2e-5 -0.619389,0.01151 -1.647845,0.03445 -2.45427,0.04595 -0.806424,0.01151 -1.390774,0.01151 -1.71781,0.02264 -0.327036,0.01114 -0.397165,0.03408 -0.47917,0.04595 -0.08201,0.01187 -0.175502,0.01187 -0.455943,0.02331 -0.28044,0.01143 -0.747921,0.03445 -1.040143,0.04595 -0.292222,0.01151 -0.409092,0.01151 -0.468519,0.02205 -0.05943,0.01055 -0.05943,0.03356 -0.61943,0.03452 -0.560006,7.38e-4 -1.681959,-0.02198 -2.838969,-0.04499 -1.157012,-0.02301 -2.349086,-0.04595 -3.038491,-0.0461 -0.689405,-1.55e-4 -0.8764,0.02286 -1.671121,0.114832 -0.794721,0.092 -2.19716,0.252988 -3.494498,0.345081 -1.297339,0.09209 -2.489412,0.115083 -3.237329,0.138007 -0.747917,0.02294 -1.05178,0.04595 -1.402357,0.08037 -0.350578,0.03444 -0.747937,0.08044 -1.22713,0.126479 -0.479192,0.04603 -1.04017,0.09203 -1.437602,0.115113 -0.397434,0.02309 -0.631173,0.02309 -0.81803,0.03437 -0.186856,0.01129 -0.327105,0.0343 -0.595849,0.103135 -0.268744,0.06882 -0.666103,0.183825 -0.95836,0.253016 -0.292257,0.06918 -0.479252,0.09219 -0.654663,0.103814 -0.17541,0.01165 -0.339028,0.01165 -0.549211,0.0458 -0.210183,0.03415 -0.467296,0.103179 -0.70122,0.137992 -0.233923,0.03481 -0.444289,0.03481 -0.689581,0.05761 -0.245292,0.02279 -0.525782,0.06882 -0.817898,0.137631 -0.292116,0.06882 -0.595978,0.160813 -0.829911,0.207169 -0.233933,0.04632 -0.39755,0.04632 -0.491043,0.05687 -0.09349,0.01055 -0.116878,0.03349 -0.245277,0.06874 -0.1284,0.03526 -0.362142,0.08124 -0.934909,0.127408 -0.572767,0.04617 -1.484353,0.09217 -2.045377,0.115224 -0.561024,0.02301 -0.77139,0.02301 -1.004948,0.05724 -0.233556,0.03415 -0.49067,0.103179 -0.923172,0.172364 -0.432502,0.06918 -1.040226,0.138184 -1.531121,0.184238 -0.4908953,0.04602 -0.8648803,0.06904 -1.4607962,0.183788 -0.595917,0.114759 -1.414008,0.321744 -1.858137,0.44778 -0.444129,0.126037 -0.514257,0.172039 -0.666186,0.218558 -0.151929,0.04654 -0.385671,0.09252 -0.666311,0.11574 -0.280641,0.02323 -0.607876,0.02323 -1.122042,0.04617 -0.514167,0.02294 -1.215387,0.06889 -1.869883,0.103452 -0.654497,0.03452 -1.262222,0.05753 -1.682837,0.09181 -0.420614,0.0343 -0.549173,0.05008 -0.590494,0.107788"
       style="fill:none;fill-opacity:1;stroke:#1a1a1a;stroke-width:0.26458335px;stroke-linecap:round;stroke-linejoin:round;stroke-opacity:1"
       sodipodi:nodetypes="ccccscccccccccccccsccccccccccccccccccccsccccccccccccccccssssssccccccccccccccccsccsscscccccsccssccccccccscccccsccscccccccccccccccscccccccccccccccccscccscscscccccscccssccscsccsccccccccccccsccccscccccccccccccccccccccccccccccccccsccccccccccscccccccscccccccccccsccccccccccccccccccccscccccccccccccccsccsscccccccccscccccccsccscccccsscsccccccccsccccssccccscccccccccsccccccccccccccccccsccccssccccccsccccscsccccccccccsscscccccccsccscccsccccsccsccscccccsccsccccscsscccccsccsscsccscccccccccscsccccscsscccccccsscccccsccccsccccsscssccsccscccsscccsssscsscccsccsccsccc" />
    <path
       style="opacity:1;fill:#1a1a1a;fill-opacity:1;stroke:#1a1a1a;stroke-width:0.26458335;stroke-linecap:round;stroke-linejoin:round;stroke-miterlimit:4;stroke-dasharray:none;stroke-opacity:1"
       d="m 0.2946718,99.589524 0.01753,-45.303574 -0.135464,-0.92567 c 0.848475,-0.166434 4.213058,-0.08465 5.447205,-0.242446 0.600449,-0.07677 2.673384,-0.756236 4.8412982,-0.996957 1.791891,-0.198971 4.762802,-0.583149 7.53523,-0.963109 1.744086,-0.239025 2.920766,-0.555052 5.031396,-0.785835 4.423525,-0.483684 9.975819,-0.827008 12.586754,-0.944716 3.259931,-0.146969 7.96216,-0.07001 13.064419,-0.172746 2.658045,-0.05353 4.711177,0.226619 7.135073,0.132414 6.268716,-0.243629 5.552196,-0.07067 8.324556,-0.318236 2.33116,-0.20817 5.14276,0.565254 5.37993,0.656782 1.3729,0.529818 11.29378,1.194655 15.84299,1.309938 2.24905,0.006 5.6428,0.391539 7.66541,0.511905 2.18079,0.129783 5.71106,0.254928 6.280944,0.900982 2.152027,0.439301 5.520067,0.796771 7.239827,0.680527 1.46219,-0.09883 3.67398,0.816163 5.33411,1.052202 2.68082,0.381162 4.59983,1.174784 4.75341,1.268186 0.59369,0.36102 1.98857,0.96324 8.24461,0.585501 2.69269,-0.162583 5.99543,0.354866 7.53811,0.640088 1.54269,0.28522 4.79705,1.169245 7.08192,1.332039 2.28488,0.162794 5.1704,0.672239 6.43369,0.942363 2.31636,0.495293 5.42401,0.602898 14.12848,1.209818 2.6121,0.182128 2.81544,-9.58e-4 5.01372,0.25442 1.81411,0.24864 1.82287,0.47369 4.1387,1.01306 0.65839,0.15335 6.68916,0.44164 8.15981,0.65814 0.88609,0.13044 1.68129,0.68989 2.55132,0.83418 2.31403,0.38379 2.90306,0.27813 4.1372,0.29224 1.23415,0.0141 2.58049,0.31197 4.34757,0.50668 1.11844,0.0395 2.08963,0.16663 3.78658,0.52026 1.89317,0.39451 3.96026,1.37847 5.3382,1.60968 4.03442,0.67695 5.81548,0.78113 8.24706,1.32842 1.82675,0.41117 2.82168,1.32138 5.33214,2.02664 1.66651,0.46817 2.59324,0.0918 4.03701,0.54173 1.59047,0.49564 2.94822,0.94357 4.3763,1.34822 0.92723,0.26272 2.09808,1.04193 2.94817,1.26936 4.51022,1.20669 7.88694,1.93375 9.62053,2.36168 1.07987,0.15655 2.60015,0.63099 3.94596,0.6499 1.65312,0.0232 1.07812,0.15896 3.03277,0.28821 1.62157,0.0948 1.78946,0.117 2.71563,0.22359 2.955,0.34009 4.74115,0.74704 12.53055,1.86421 1.72999,0.24812 3.76963,0.51945 4.593,0.67097 1.14322,0.24166 1.09064,0.27062 1.63408,0.4659 0.19722,0.0709 -0.40586,0.004 9.88024,2.93574 1.00044,0.28508 2.97633,0.64557 3.99694,1.00682 0.19667,-0.0355 3.12485,0.92414 5.24291,1.90059 1.59217,0.42449 4.0254,1.44994 4.7157,1.74789 0.75134,0.32433 4.31819,1.30755 5.86086,2.01157 1.54269,0.70402 1.56725,0.789 1.87577,0.82132 1.49341,0.42761 3.4121,2.08094 3.92684,2.21811 0.79742,0.2125 0.30345,0.35958 0.79742,0.2125 0.45185,-0.13452 0.75264,-0.40168 1.47218,-0.79809 0.34439,-0.63316 0.76181,-1.01774 0.92759,-0.85461 0.14031,0.13805 1.23932,-0.71632 3.39823,-1.86906 2.324,-1.2409 5.7843,-2.84124 7.90696,-4.323 0.39051,-0.27258 0.75839,-0.17873 1.16986,-0.41336 1.06093,-0.60498 2.44861,-1.54725 5.02176,-2.73542 1.91669,-0.88505 4.88564,-1.49479 5.68939,-1.77997 2.00549,-0.75427 3.04108,-1.44648 5.92235,-2.5291 2.13731,-0.80307 4.27836,-1.53068 6.80739,-2.06437 2.42499,-0.51174 2.72569,-0.30592 4.30848,-1.03255 2.71547,-1.24664 6.42937,-2.22604 8.97912,-2.83283 3.8206,-0.90924 7.15188,-0.7523 9.58709,-1.03586 2.4683,-0.28741 5.69742,-0.87164 7.24008,-1.19288 1.54269,-0.32124 5.10488,-1.29961 6.0305,-1.45736 0.57205,-0.0122 1.01975,-0.32819 2.42259,-0.58172 0.86705,-0.1567 2.42396,-0.0231 3.62543,-0.57866 1.27013,-0.58736 13.74109,-2.88272 18.66409,-4.17647 4.18481,-1.09976 8.00725,-0.46855 10.22563,-0.56119 1.47746,-0.0617 4.21146,-0.681266 6.8111,-0.896508 7.33819,-0.607574 4.48092,0.250908 6.62878,-0.08336 5.23492,-0.814692 11.60706,-0.560368 18.00384,-0.600574 0.63483,-0.004 2.52285,-0.214815 3.40932,-0.157777 3.74809,0.241168 5.88438,0.34129 8.06114,0.632788 2.09874,0.281054 3.82582,0.785461 5.43547,1.108291 1.76219,0.35342 1.74269,0.35774 4.21975,1.04181 1.51914,0.41953 4.14593,0.30249 6.70469,0.29281 0.97492,-0.004 2.15086,0.11637 3.43302,0.0239 4.27041,-0.30808 11.42348,1.07951 16.32219,2.48298 3.00775,0.94457 6.04717,1.94198 6.58757,2.05993 1.76431,0.38183 3.87466,0.91702 5.89577,1.58865 2.4272,0.80657 4.73671,1.77485 6.31018,2.44232 l 3.79595,1.61027 -0.1473,36.56355 0.12485,36.26277 -253.80987,0.1311 -253.9008442,0.004 z"
       id="path4521"
       inkscape:connector-curvature="0"
       sodipodi:nodetypes="ccccsssssssccscsscscssscsssccssssssscscsscssccsccsscssscscsssssccsssssssssssssccsscccccc" />
    <path
       style="fill:none;stroke:#1a1a1a;stroke-width:0.79375005;stroke-linecap:round;stroke-linejoin:miter;stroke-miterlimit:4;stroke-dasharray:none;stroke-opacity:1"
       d="m 163.87302,60.71265 1.48751,-5.952059"
       id="path4523"
       inkscape:connector-curvature="0" />
    <path
       style="fill:none;stroke:#1a1a1a;stroke-width:0.79375005;stroke-linecap:round;stroke-linejoin:miter;stroke-miterlimit:4;stroke-dasharray:none;stroke-opacity:1"
       d="m 175.47561,62.01771 0.73136,-4.817753"
       id="path4525"
       inkscape:connector-curvature="0" />
    <path
       style="fill:none;stroke:#1a1a1a;stroke-width:0.79375005;stroke-linecap:round;stroke-linejoin:miter;stroke-miterlimit:4;stroke-dasharray:none;stroke-opacity:1"
       d="M 188.94999,58.968501 188.41442,63.7177"
       id="path4527"
       inkscape:connector-curvature="0" />
    <path
       style="opacity:1;vector-effect:none;fill:none;fill-opacity:1;stroke:#1a1a1a;stroke-width:0.79375005;stroke-linecap:round;stroke-linejoin:miter;stroke-miterlimit:4;stroke-dasharray:none;stroke-dashoffset:0;stroke-opacity:1"
       d="m 198.73038,59.395386 -0.17354,6.647274"
       id="path4529"
       inkscape:connector-curvature="0" />
    <path
       style="opacity:1;vector-effect:none;fill:none;fill-opacity:1;stroke:#1a1a1a;stroke-width:0.79375005;stroke-linecap:round;stroke-linejoin:miter;stroke-miterlimit:4;stroke-dasharray:none;stroke-dashoffset:0;stroke-opacity:1"
       d="m 210.38255,64.03019 -1.12802,5.08608"
       id="path4531"
       inkscape:connector-curvature="0" />
    <path
       style="opacity:1;vector-effect:none;fill:none;fill-opacity:1;stroke:#1a1a1a;stroke-width:0.79375005;stroke-linecap:round;stroke-linejoin:miter;stroke-miterlimit:4;stroke-dasharray:none;stroke-dashoffset:0;stroke-opacity:1"
       d="m 221.2166,66.12804 -0.44625,5.86668"
       id="path4533"
       inkscape:connector-curvature="0" />
    <path
       style="opacity:1;vector-effect:none;fill:none;fill-opacity:1;stroke:#1a1a1a;stroke-width:0.79375005;stroke-linecap:round;stroke-linejoin:miter;stroke-miterlimit:4;stroke-dasharray:none;stroke-dashoffset:0;stroke-opacity:1"
       d="m 231.54241,68.16492 -0.0992,6.74485"
       id="path4535"
       inkscape:connector-curvature="0" />
    <path
       style="opacity:1;vector-effect:none;fill:none;fill-opacity:1;stroke:#1a1a1a;stroke-width:0.79375005;stroke-linecap:round;stroke-linejoin:miter;stroke-miterlimit:4;stroke-dasharray:none;stroke-dashoffset:0;stroke-opacity:1"
       d="m 241.05009,69.73831 0.0372,6.43993"
       id="path4537"
       inkscape:connector-curvature="0" />
    <path
       style="opacity:1;vector-effect:none;fill:none;fill-opacity:1;stroke:#1a1a1a;stroke-width:0.79375005;stroke-linecap:round;stroke-linejoin:miter;stroke-miterlimit:4;stroke-dasharray:none;stroke-dashoffset:0;stroke-opacity:1"
       d="m 251.35111,71.53124 -0.44625,6.35455"
       id="path4539"
       inkscape:connector-curvature="0" />
    <path
       style="opacity:1;vector-effect:none;fill:none;fill-opacity:1;stroke:#1a1a1a;stroke-width:0.79375005;stroke-linecap:round;stroke-linejoin:miter;stroke-miterlimit:4;stroke-dasharray:none;stroke-dashoffset:0;stroke-opacity:1"
       d="m 259.22253,73.58031 -0.94209,5.51297"
       id="path4541"
       inkscape:connector-curvature="0" />
    <path
       style="opacity:1;vector-effect:none;fill:none;fill-opacity:1;stroke:#1a1a1a;stroke-width:0.79375005;stroke-linecap:round;stroke-linejoin:miter;stroke-miterlimit:4;stroke-dasharray:none;stroke-dashoffset:0;stroke-opacity:1"
       d="m 267.77572,75.33665 -0.45865,6.09842"
       id="path4543"
       inkscape:connector-curvature="0" />
    <path
       style="opacity:1;vector-effect:none;fill:none;fill-opacity:1;stroke:#1a1a1a;stroke-width:0.79375005;stroke-linecap:round;stroke-linejoin:miter;stroke-miterlimit:4;stroke-dasharray:none;stroke-dashoffset:0;stroke-opacity:1"
       d="m 275.43641,78.73957 0.40906,4.65919"
       id="path4545"
       inkscape:connector-curvature="0" />
    <path
       style="opacity:1;vector-effect:none;fill:none;fill-opacity:1;stroke:#1a1a1a;stroke-width:0.79375005;stroke-linecap:round;stroke-linejoin:miter;stroke-miterlimit:4;stroke-dasharray:none;stroke-dashoffset:0;stroke-opacity:1"
       d="m 282.87396,80.52031 -1.89657,4.65919"
       id="path4547"
       inkscape:connector-curvature="0" />
    <path
       style="opacity:1;vector-effect:none;fill:none;fill-opacity:1;stroke:#1a1a1a;stroke-width:0.79375005;stroke-linecap:round;stroke-linejoin:miter;stroke-miterlimit:4;stroke-dasharray:none;stroke-dashoffset:0;stroke-opacity:1"
       d="m 287.83234,83.37437 -1.98336,3.96397"
       id="path4549"
       inkscape:connector-curvature="0" />
    <path
       style="opacity:1;vector-effect:none;fill:none;fill-opacity:1;stroke:#1a1a1a;stroke-width:0.79375005;stroke-linecap:round;stroke-linejoin:miter;stroke-miterlimit:4;stroke-dasharray:none;stroke-dashoffset:0;stroke-opacity:1"
       d="m 291.6007,85.77714 -0.84292,3.20777"
       id="path4551"
       inkscape:connector-curvature="0" />
    <path
       style="opacity:1;vector-effect:none;fill:none;fill-opacity:1;stroke:#1a1a1a;stroke-width:0.79375005;stroke-linecap:round;stroke-linejoin:miter;stroke-miterlimit:4;stroke-dasharray:none;stroke-dashoffset:0;stroke-opacity:1"
       d="m 294.22864,87.27736 -1.12803,2.82967"
       id="path4553"
       inkscape:connector-curvature="0" />
    <path
       style="opacity:1;vector-effect:none;fill:none;fill-opacity:1;stroke:#1a1a1a;stroke-width:0.5291667;stroke-linecap:round;stroke-linejoin:miter;stroke-miterlimit:4;stroke-dasharray:none;stroke-dashoffset:0;stroke-opacity:1"
       d="m 295.76573,89.24105 -0.81813,2.01247"
       id="path4555"
       inkscape:connector-curvature="0" />
    <path
       style="opacity:1;vector-effect:none;fill:none;fill-opacity:1;stroke:#1a1a1a;stroke-width:0.5291667;stroke-linecap:round;stroke-linejoin:miter;stroke-miterlimit:4;stroke-dasharray:none;stroke-dashoffset:0;stroke-opacity:1"
       d="m 297.48877,90.13142 -1.04126,1.85391"
       id="path4557"
       inkscape:connector-curvature="0" />
    <path
       style="opacity:1;vector-effect:none;fill:none;fill-opacity:1;stroke:#1a1a1a;stroke-width:0.26458335;stroke-linecap:round;stroke-linejoin:bevel;stroke-miterlimit:4;stroke-dasharray:none;stroke-dashoffset:0;stroke-opacity:1"
       d="m 164.18292,55.431413 12.33395,2.829667"
       id="path4561"
       inkscape:connector-curvature="0" />
    <path
       style="opacity:1;vector-effect:none;fill:none;fill-opacity:1;stroke:#1a1a1a;stroke-width:0.26458335;stroke-linecap:round;stroke-linejoin:bevel;stroke-miterlimit:4;stroke-dasharray:none;stroke-dashoffset:0;stroke-opacity:1"
       d="m 163.37718,57.785405 12.76781,1.853918"
       id="path4563"
       inkscape:connector-curvature="0" />
    <path
       style="opacity:1;vector-effect:none;fill:none;fill-opacity:1;stroke:#1a1a1a;stroke-width:0.26458335;stroke-linecap:round;stroke-linejoin:bevel;stroke-miterlimit:4;stroke-dasharray:none;stroke-dashoffset:0;stroke-opacity:1"
       d="m 176.51687,58.26108 12.99094,1.256278"
       id="path4565"
       inkscape:connector-curvature="0" />
    <path
       style="opacity:1;vector-effect:none;fill:none;fill-opacity:1;stroke:#1a1a1a;stroke-width:0.26458335;stroke-linecap:round;stroke-linejoin:bevel;stroke-miterlimit:4;stroke-dasharray:none;stroke-dashoffset:0;stroke-opacity:1"
       d="M 176.14499,59.639323 189.2103,61.76158"
       id="path4567"
       inkscape:connector-curvature="0" />
    <path
       style="opacity:1;vector-effect:none;fill:none;fill-opacity:1;stroke:#1a1a1a;stroke-width:0.26458335;stroke-linecap:round;stroke-linejoin:bevel;stroke-miterlimit:4;stroke-dasharray:none;stroke-dashoffset:0;stroke-opacity:1"
       d="m 189.50781,59.517358 9.09861,0.414693"
       id="path4569"
       inkscape:connector-curvature="0" />
    <path
       style="opacity:1;vector-effect:none;fill:none;fill-opacity:1;stroke:#1a1a1a;stroke-width:0.26458335;stroke-linecap:round;stroke-linejoin:bevel;stroke-miterlimit:4;stroke-dasharray:none;stroke-dashoffset:0;stroke-opacity:1"
       d="m 189.2103,61.76158 9.79279,2.07345"
       id="path4571"
       inkscape:connector-curvature="0" />
    <path
       style="opacity:1;vector-effect:none;fill:none;fill-opacity:1;stroke:#1a1a1a;stroke-width:0.26458335;stroke-linecap:round;stroke-linejoin:bevel;stroke-miterlimit:4;stroke-dasharray:none;stroke-dashoffset:0;stroke-opacity:1"
       d="m 198.73038,59.395386 11.75134,5.293434"
       id="path4573"
       inkscape:connector-curvature="0" />
    <path
       style="opacity:1;vector-effect:none;fill:none;fill-opacity:1;stroke:#1a1a1a;stroke-width:0.26458335;stroke-linecap:round;stroke-linejoin:bevel;stroke-miterlimit:4;stroke-dasharray:none;stroke-dashoffset:0;stroke-opacity:1"
       d="m 199.00309,63.83503 11.18113,2.85407"
       id="path4575"
       inkscape:connector-curvature="0" />
    <path
       style="opacity:1;vector-effect:none;fill:none;fill-opacity:1;stroke:#1a1a1a;stroke-width:0.26458335;stroke-linecap:round;stroke-linejoin:bevel;stroke-miterlimit:4;stroke-dasharray:none;stroke-dashoffset:0;stroke-opacity:1"
       d="m 210.48172,64.68882 11.23072,1.9271"
       id="path4577"
       inkscape:connector-curvature="0" />
    <path
       style="opacity:1;vector-effect:none;fill:none;fill-opacity:1;stroke:#1a1a1a;stroke-width:0.26458335;stroke-linecap:round;stroke-linejoin:bevel;stroke-miterlimit:4;stroke-dasharray:none;stroke-dashoffset:0;stroke-opacity:1"
       d="m 210.18422,66.6891 11.2803,2.04907"
       id="path4579"
       inkscape:connector-curvature="0" />
    <path
       style="opacity:1;vector-effect:none;fill:none;fill-opacity:1;stroke:#1a1a1a;stroke-width:0.26458335;stroke-linecap:round;stroke-linejoin:bevel;stroke-miterlimit:4;stroke-dasharray:none;stroke-dashoffset:0;stroke-opacity:1"
       d="m 221.71244,66.61592 10.3382,2.56133"
       id="path4581"
       inkscape:connector-curvature="0" />
    <path
       style="opacity:1;vector-effect:none;fill:none;fill-opacity:1;stroke:#1a1a1a;stroke-width:0.26458335;stroke-linecap:round;stroke-linejoin:bevel;stroke-miterlimit:4;stroke-dasharray:none;stroke-dashoffset:0;stroke-opacity:1"
       d="m 221.46452,68.73817 10.43738,2.14664"
       id="path4583"
       inkscape:connector-curvature="0" />
    <path
       style="opacity:1;vector-effect:none;fill:none;fill-opacity:1;stroke:#1a1a1a;stroke-width:0.26458335;stroke-linecap:round;stroke-linejoin:bevel;stroke-miterlimit:4;stroke-dasharray:none;stroke-dashoffset:0;stroke-opacity:1"
       d="m 232.05064,69.17725 9.29695,1.19529"
       id="path4585"
       inkscape:connector-curvature="0" />
    <path
       style="opacity:1;vector-effect:none;fill:none;fill-opacity:1;stroke:#1a1a1a;stroke-width:0.26458335;stroke-linecap:round;stroke-linejoin:bevel;stroke-miterlimit:4;stroke-dasharray:none;stroke-dashoffset:0;stroke-opacity:1"
       d="m 231.9019,70.88481 9.49527,1.24408"
       id="path4587"
       inkscape:connector-curvature="0" />
    <path
       style="opacity:1;vector-effect:none;fill:none;fill-opacity:1;stroke:#1a1a1a;stroke-width:0.26458335;stroke-linecap:round;stroke-linejoin:bevel;stroke-miterlimit:4;stroke-dasharray:none;stroke-dashoffset:0;stroke-opacity:1"
       d="m 241.34759,70.37254 10.33821,2.04907"
       id="path4589"
       inkscape:connector-curvature="0" />
    <path
       style="opacity:1;vector-effect:none;fill:none;fill-opacity:1;stroke:#1a1a1a;stroke-width:0.26458335;stroke-linecap:round;stroke-linejoin:bevel;stroke-miterlimit:4;stroke-dasharray:none;stroke-dashoffset:0;stroke-opacity:1"
       d="m 241.39717,72.12889 10.18946,2.31739"
       id="path4591"
       inkscape:connector-curvature="0" />
    <path
       style="opacity:1;vector-effect:none;fill:none;fill-opacity:1;stroke:#1a1a1a;stroke-width:0.26458335;stroke-linecap:round;stroke-linejoin:bevel;stroke-miterlimit:4;stroke-dasharray:none;stroke-dashoffset:0;stroke-opacity:1"
       d="m 251.6858,72.42161 7.98298,1.9271"
       id="path4593"
       inkscape:connector-curvature="0" />
    <path
       style="opacity:1;vector-effect:none;fill:none;fill-opacity:1;stroke:#1a1a1a;stroke-width:0.26458335;stroke-linecap:round;stroke-linejoin:bevel;stroke-miterlimit:4;stroke-dasharray:none;stroke-dashoffset:0;stroke-opacity:1"
       d="m 251.58663,74.44628 7.61111,1.46363"
       id="path4595"
       inkscape:connector-curvature="0" />
    <path
       style="opacity:1;vector-effect:none;fill:none;fill-opacity:1;stroke:#1a1a1a;stroke-width:0.26458335;stroke-linecap:round;stroke-linejoin:bevel;stroke-miterlimit:4;stroke-dasharray:none;stroke-dashoffset:0;stroke-opacity:1"
       d="m 259.66878,74.34871 8.50361,1.9515"
       id="path4597"
       inkscape:connector-curvature="0" />
    <path
       style="opacity:1;vector-effect:none;fill:none;fill-opacity:1;stroke:#1a1a1a;stroke-width:0.26458335;stroke-linecap:round;stroke-linejoin:bevel;stroke-miterlimit:4;stroke-dasharray:none;stroke-dashoffset:0;stroke-opacity:1"
       d="m 259.19774,75.90991 8.8259,2.24422"
       id="path4599"
       inkscape:connector-curvature="0" />
    <path
       style="opacity:1;vector-effect:none;fill:none;fill-opacity:1;stroke:#1a1a1a;stroke-width:0.26458335;stroke-linecap:round;stroke-linejoin:bevel;stroke-miterlimit:4;stroke-dasharray:none;stroke-dashoffset:0;stroke-opacity:1"
       d="m 268.17239,76.30021 7.16485,2.97602"
       id="path4601"
       inkscape:connector-curvature="0" />
    <path
       style="opacity:1;vector-effect:none;fill:none;fill-opacity:1;stroke:#1a1a1a;stroke-width:0.26458335;stroke-linecap:round;stroke-linejoin:bevel;stroke-miterlimit:4;stroke-dasharray:none;stroke-dashoffset:0;stroke-opacity:1"
       d="m 268.02364,78.15413 7.48714,2.73208"
       id="path4603"
       inkscape:connector-curvature="0" />
    <path
       style="opacity:1;vector-effect:none;fill:none;fill-opacity:1;stroke:#1a1a1a;stroke-width:0.26458335;stroke-linecap:round;stroke-linejoin:bevel;stroke-miterlimit:4;stroke-dasharray:none;stroke-dashoffset:0;stroke-opacity:1"
       d="m 275.33724,79.27623 7.09047,1.68316"
       id="path4605"
       inkscape:connector-curvature="0" />
    <path
       style="opacity:1;vector-effect:none;fill:none;fill-opacity:1;stroke:#1a1a1a;stroke-width:0.26458335;stroke-linecap:round;stroke-linejoin:bevel;stroke-miterlimit:4;stroke-dasharray:none;stroke-dashoffset:0;stroke-opacity:1"
       d="m 275.51078,80.88621 6.79297,1.97589"
       id="path4607"
       inkscape:connector-curvature="0" />
    <path
       style="opacity:1;vector-effect:none;fill:none;fill-opacity:1;stroke:#1a1a1a;stroke-width:0.26458335;stroke-linecap:round;stroke-linejoin:bevel;stroke-miterlimit:4;stroke-dasharray:none;stroke-dashoffset:0;stroke-opacity:1"
       d="m 282.42771,80.95939 5.52858,3.07361"
       id="path4609"
       inkscape:connector-curvature="0" />
    <path
       style="opacity:1;vector-effect:none;fill:none;fill-opacity:1;stroke:#1a1a1a;stroke-width:0.26458335;stroke-linecap:round;stroke-linejoin:bevel;stroke-miterlimit:4;stroke-dasharray:none;stroke-dashoffset:0;stroke-opacity:1"
       d="m 282.30375,82.8621 4.95837,2.36619"
       id="path4611"
       inkscape:connector-curvature="0" />
    <path
       style="opacity:1;vector-effect:none;fill:none;fill-opacity:1;stroke:#1a1a1a;stroke-width:0.26458335;stroke-linecap:round;stroke-linejoin:bevel;stroke-miterlimit:4;stroke-dasharray:none;stroke-dashoffset:0;stroke-opacity:1"
       d="m 287.95629,84.033 3.86754,2.21983"
       id="path4613"
       inkscape:connector-curvature="0" />
    <path
       style="opacity:1;vector-effect:none;fill:none;fill-opacity:1;stroke:#1a1a1a;stroke-width:0.26458335;stroke-linecap:round;stroke-linejoin:bevel;stroke-miterlimit:4;stroke-dasharray:none;stroke-dashoffset:0;stroke-opacity:1"
       d="m 287.26212,85.22829 4.2642,2.00028"
       id="path4615"
       inkscape:connector-curvature="0" />
    <path
       style="opacity:1;vector-effect:none;fill:none;fill-opacity:1;stroke:#1a1a1a;stroke-width:0.26458335;stroke-linecap:round;stroke-linejoin:bevel;stroke-miterlimit:4;stroke-dasharray:none;stroke-dashoffset:0;stroke-opacity:1"
       d="m 291.82383,86.25283 1.95856,1.29286"
       id="path4617"
       inkscape:connector-curvature="0" />
    <path
       style="opacity:1;vector-effect:none;fill:none;fill-opacity:1;stroke:#1a1a1a;stroke-width:0.26458335;stroke-linecap:round;stroke-linejoin:bevel;stroke-miterlimit:4;stroke-dasharray:none;stroke-dashoffset:0;stroke-opacity:1"
       d="m 291.52632,87.22857 2.10731,1.07332"
       id="path4619"
       inkscape:connector-curvature="0" />
    <path
       style="opacity:1;vector-effect:none;fill:none;fill-opacity:1;stroke:#1a1a1a;stroke-width:0.26458335;stroke-linecap:round;stroke-linejoin:bevel;stroke-miterlimit:4;stroke-dasharray:none;stroke-dashoffset:0;stroke-opacity:1"
       d="m 294.27822,87.86281 1.41314,1.5124"
       id="path4621"
       inkscape:connector-curvature="0" />
    <path
       style="opacity:1;vector-effect:none;fill:none;fill-opacity:1;stroke:#1a1a1a;stroke-width:0.26458335;stroke-linecap:round;stroke-linejoin:bevel;stroke-miterlimit:4;stroke-dasharray:none;stroke-dashoffset:0;stroke-opacity:1"
       d="m 293.93114,88.57022 1.68584,1.51241"
       id="path4623"
       inkscape:connector-curvature="0" />
    <path
       style="opacity:1;vector-effect:none;fill:none;fill-opacity:1;stroke:#1a1a1a;stroke-width:0.26458335;stroke-linecap:round;stroke-linejoin:bevel;stroke-miterlimit:4;stroke-dasharray:none;stroke-dashoffset:0;stroke-opacity:1"
       d="m 295.8649,89.424 1.38835,0.73181"
       id="path4625"
       inkscape:connector-curvature="0" />
    <path
       style="opacity:1;vector-effect:none;fill:none;fill-opacity:1;stroke:#1a1a1a;stroke-width:0.26458335;stroke-linecap:round;stroke-linejoin:bevel;stroke-miterlimit:4;stroke-dasharray:none;stroke-dashoffset:0;stroke-opacity:1"
       d="m 295.59219,90.13142 1.46272,0.46347"
       id="path4627"
       inkscape:connector-curvature="0" />
    <path
       style="opacity:1;vector-effect:none;fill:none;fill-opacity:1;stroke:#1a1a1a;stroke-width:0.26458335;stroke-linecap:round;stroke-linejoin:bevel;stroke-miterlimit:4;stroke-dasharray:none;stroke-dashoffset:0;stroke-opacity:1"
       d="m 297.55075,90.35096 0.96688,0.21954"
       id="path4633"
       inkscape:connector-curvature="0" />
    <path
       style="opacity:1;vector-effect:none;fill:none;fill-opacity:1;stroke:#1a1a1a;stroke-width:0.26458335;stroke-linecap:round;stroke-linejoin:bevel;stroke-miterlimit:4;stroke-dasharray:none;stroke-dashoffset:0;stroke-opacity:1"
       d="m 297.27804,90.74126 0.86771,0.19515"
       id="path4635"
       inkscape:connector-curvature="0" />
    <path
       style="opacity:1;vector-effect:none;fill:none;fill-opacity:1;stroke:#1a1a1a;stroke-width:1.32291663;stroke-linecap:round;stroke-linejoin:round;stroke-miterlimit:4;stroke-dasharray:none;stroke-dashoffset:0;stroke-opacity:1"
       d="m 65.003069,35.587167 16.95764,-12.635928 16.36263,11.952899"
       id="path4637"
       inkscape:connector-curvature="0" />
    <path
       style="opacity:1;vector-effect:none;fill:none;fill-opacity:1;stroke:#1a1a1a;stroke-width:1.32291675;stroke-linecap:round;stroke-linejoin:round;stroke-miterlimit:4;stroke-dasharray:none;stroke-dashoffset:0;stroke-opacity:1"
       d="m 69.332589,32.784525 v 19.801776 h 25.48934 V 32.646532"
       id="path4639"
       inkscape:connector-curvature="0" />
    <path
       style="opacity:1;fill:#1a1a1a;fill-opacity:1;stroke:#1a1a1a;stroke-width:0.5291667;stroke-linecap:round;stroke-linejoin:round;stroke-miterlimit:4;stroke-dasharray:none;stroke-opacity:1"
       d="m 93.795439,51.449249 c -0.16391,-0.01606 -0.55046,-0.05363 -0.859,-0.08348 -0.70904,-0.0686 -3.18104,-0.340106 -3.94436,-0.433212 -0.51145,-0.06238 -0.89143,-0.07406 -3.2782,-0.100703 -3.67225,-0.04099 -5.50629,-0.105884 -6.39641,-0.226299 -0.20125,-0.02722 -0.66668,-0.06587 -1.0343,-0.08589 -0.36761,-0.02002 -0.83404,-0.05783 -1.03652,-0.08405 -0.20248,-0.02621 -0.66791,-0.08728 -1.0343,-0.135685 -0.8262,-0.109171 -1.51105,-0.177561 -2.26143,-0.225829 -1.12314,-0.07225 -1.50036,-0.109056 -2.50686,-0.24462 -0.55922,-0.07532 -1.14693,-0.153807 -1.30602,-0.174411 l -0.28926,-0.03746 v -8.445595 c 0,-4.645074 -0.009,-8.467613 -0.0191,-8.494532 -0.0128,-0.03284 0.14019,-0.167161 0.46489,-0.40817 0.46523,-0.345319 2.00284,-1.490866 5.8421,-4.352479 0.98651,-0.735302 2.05943,-1.53479 2.38426,-1.776641 0.32484,-0.24185 1.23015,-0.916733 2.0118,-1.49974 0.9028,-0.673361 1.43747,-1.050865 1.46582,-1.034935 0.0245,0.0138 2.80719,2.043201 6.18366,4.509798 l 6.13904,4.484722 4e-5,9.443792 4e-5,9.443789 -0.11394,-0.0046 c -0.0627,-0.0025 -0.24806,-0.01772 -0.41197,-0.03379 z M 82.332799,24.198596 c 0.088,-0.04636 0.0868,-0.178178 -0.002,-0.257648 -0.0584,-0.05195 -0.0853,-0.05584 -0.15876,-0.02289 -0.13525,0.06064 -0.14832,0.141947 -0.0378,0.235443 0.10966,0.09281 0.10881,0.09262 0.19906,0.0451 z"
       id="path4643"
       inkscape:connector-curvature="0" />
    <ellipse
       style="opacity:1;fill:#1a1a1a;fill-opacity:1;stroke:#1a1a1a;stroke-width:0.5291667;stroke-linecap:round;stroke-linejoin:round;stroke-miterlimit:4;stroke-dasharray:none;stroke-opacity:1"
       id="path4647"
       cx="66.843254"
       cy="34.923397"
       rx="0.56097579"
       ry="0.55196577" />
    <ellipse
       cy="34.923397"
       cx="97.20607"
       id="circle4649"
       style="opacity:1;fill:#1a1a1a;fill-opacity:1;stroke:#1a1a1a;stroke-width:0.5291667;stroke-linecap:round;stroke-linejoin:round;stroke-miterlimit:4;stroke-dasharray:none;stroke-opacity:1"
       rx="0.56097579"
       ry="0.55196577" />
    <path
       style="opacity:1;vector-effect:none;fill:none;fill-opacity:1;stroke:#1a1a1a;stroke-width:0.5291667;stroke-linecap:round;stroke-linejoin:round;stroke-miterlimit:4;stroke-dasharray:none;stroke-dashoffset:0;stroke-opacity:1"
       d="m 81.884419,22.573159 v -1.759391 l 1.78811,-0.103496 -3.96189,0.206985"
       id="path4651"
       inkscape:connector-curvature="0" />
    <path
       style="opacity:1;vector-effect:none;fill:#1a1a1a;fill-opacity:1;stroke:#1a1a1a;stroke-width:0.26458335;stroke-linecap:round;stroke-linejoin:round;stroke-miterlimit:4;stroke-dasharray:none;stroke-dashoffset:0;stroke-opacity:1"
       d="m 83.812779,21.089753 -0.10519,-0.931443 0.73628,0.41397 z"
       id="path4653"
       inkscape:connector-curvature="0" />
    <path
       style="opacity:1;vector-effect:none;fill:#1a1a1a;fill-opacity:1;stroke:#1a1a1a;stroke-width:0.26458335;stroke-linecap:round;stroke-linejoin:round;stroke-miterlimit:4;stroke-dasharray:none;stroke-dashoffset:0;stroke-opacity:1"
       d="m 79.991129,20.779272 -0.66616,-0.55197"
       id="path4655"
       inkscape:connector-curvature="0" />
    <path
       style="opacity:1;vector-effect:none;fill:#1a1a1a;fill-opacity:1;stroke:#1a1a1a;stroke-width:0.26458335;stroke-linecap:round;stroke-linejoin:round;stroke-miterlimit:4;stroke-dasharray:none;stroke-dashoffset:0;stroke-opacity:1"
       d="m 79.921009,21.05525 -0.56098,0.551969"
       id="path4657"
       inkscape:connector-curvature="0" />
    <path
       style="opacity:1;vector-effect:none;fill:#1a1a1a;fill-opacity:1;stroke:#1a1a1a;stroke-width:0.26458335;stroke-linecap:round;stroke-linejoin:round;stroke-miterlimit:4;stroke-dasharray:none;stroke-dashoffset:0;stroke-opacity:1"
       d="m 80.411859,20.710272 -0.42073,-0.48297"
       id="path4659"
       inkscape:connector-curvature="0" />
    <path
       style="opacity:1;vector-effect:none;fill:#1a1a1a;fill-opacity:1;stroke:#1a1a1a;stroke-width:0.26458335;stroke-linecap:round;stroke-linejoin:round;stroke-miterlimit:4;stroke-dasharray:none;stroke-dashoffset:0;stroke-opacity:1"
       d="m 80.341739,20.986257 -0.35061,0.517466"
       id="path4661"
       inkscape:connector-curvature="0" />
    <path
       style="opacity:1;vector-effect:none;fill:none;fill-opacity:1;stroke:#1a1a1a;stroke-width:21.96041679;stroke-linecap:round;stroke-linejoin:round;stroke-miterlimit:4;stroke-dasharray:none;stroke-dashoffset:0;stroke-opacity:1"
       d="M 47.853116,22.394947 V 61.95194"
       id="path4663"
       inkscape:connector-curvature="0" />
    <rect
       style="opacity:1;fill:#1a1a1a;fill-opacity:1;stroke:#1a1a1a;stroke-width:0.79375011;stroke-linecap:round;stroke-linejoin:round;stroke-miterlimit:4;stroke-dasharray:none;stroke-opacity:1"
       id="rect4667"
       width="21.695833"
       height="40.365238"
       x="37.005199"
       y="20.670885" />
    <path
       style="opacity:1;vector-effect:none;fill:#1a1a1a;fill-opacity:1;stroke:#1a1a1a;stroke-width:1.32291675;stroke-linecap:round;stroke-linejoin:round;stroke-miterlimit:4;stroke-dasharray:none;stroke-dashoffset:0;stroke-opacity:1"
       d="M 36.758675,25.366517 H 58.947558"
       id="path4669"
       inkscape:connector-curvature="0" />
    <path
       inkscape:connector-curvature="0"
       id="path4671"
       d="M 36.758674,30.368705 H 58.947558"
       style="opacity:1;vector-effect:none;fill:#1a1a1a;fill-opacity:1;stroke:#1a1a1a;stroke-width:1.32291675;stroke-linecap:round;stroke-linejoin:round;stroke-miterlimit:4;stroke-dasharray:none;stroke-dashoffset:0;stroke-opacity:1" />
    <path
       style="opacity:1;vector-effect:none;fill:#1a1a1a;fill-opacity:1;stroke:#1a1a1a;stroke-width:1.32291675;stroke-linecap:round;stroke-linejoin:round;stroke-miterlimit:4;stroke-dasharray:none;stroke-dashoffset:0;stroke-opacity:1"
       d="M 36.758674,36.026358 H 58.947558"
       id="path4673"
       inkscape:connector-curvature="0" />
    <path
       inkscape:connector-curvature="0"
       id="path4675"
       d="M 36.758674,41.270033 H 58.947558"
       style="opacity:1;vector-effect:none;fill:#1a1a1a;fill-opacity:1;stroke:#1a1a1a;stroke-width:1.32291675;stroke-linecap:round;stroke-linejoin:round;stroke-miterlimit:4;stroke-dasharray:none;stroke-dashoffset:0;stroke-opacity:1" />
    <path
       style="opacity:1;vector-effect:none;fill:#1a1a1a;fill-opacity:1;stroke:#1a1a1a;stroke-width:1.32291675;stroke-linecap:round;stroke-linejoin:round;stroke-miterlimit:4;stroke-dasharray:none;stroke-dashoffset:0;stroke-opacity:1"
       d="M 36.758674,45.961739 H 58.947558"
       id="path4677"
       inkscape:connector-curvature="0" />
    <path
       inkscape:connector-curvature="0"
       id="path4681"
       d="m 94.506209,68.03695 c -0.1742,-0.0161 -0.585,-0.0536 -0.9129,-0.0835 -0.75354,-0.0686 -3.38068,-0.3401 -4.19189,-0.43321 -0.54355,-0.0624 -0.94738,-0.0741 -3.48393,-0.1007 -3.9027,-0.041 -5.85184,-0.10589 -6.79781,-0.2263 -0.21389,-0.0272 -0.70853,-0.0659 -1.09921,-0.0859 -0.39068,-0.02 -0.88638,-0.0578 -1.10157,-0.0841 -0.21518,-0.0262 -0.70982,-0.0873 -1.0992,-0.13569 -0.87806,-0.10916 -1.60589,-0.17756 -2.40335,-0.22583 -1.19363,-0.0722 -1.59452,-0.10905 -2.66418,-0.24461 -0.59432,-0.0753 -1.21891,-0.15382 -1.38798,-0.17442 l -0.30741,-0.0375 v -8.445592 c 0,-4.645076 -0.009,-8.467612 -0.0203,-8.494533 -0.0136,-0.03282 0.14898,-0.167163 0.49406,-0.408173 0.49443,-0.345316 2.12853,-1.490862 6.20872,-4.352474 1.04842,-0.7353 2.18867,-1.534792 2.53389,-1.776642 0.34522,-0.24185 1.30734,-0.916736 2.13805,-1.499743 0.95945,-0.673359 1.52768,-1.050863 1.55781,-1.034932 0.0261,0.01379 2.98335,2.043201 6.57171,4.509798 l 6.5243,4.484721 4e-5,9.443796 5e-5,9.443794 -0.1211,-0.004 c -0.0666,-0.002 -0.26363,-0.0177 -0.43782,-0.0338 z M 82.324229,40.786293 c 0.0936,-0.04639 0.0923,-0.178175 -0.003,-0.257641 -0.062,-0.05192 -0.0906,-0.05584 -0.16872,-0.02286 -0.14374,0.06063 -0.15763,0.141946 -0.0402,0.23544 0.11655,0.09282 0.11564,0.09262 0.21155,0.04507 z"
       style="opacity:1;fill:#1a1a1a;fill-opacity:1;stroke:#1a1a1a;stroke-width:0.5291667;stroke-linecap:round;stroke-linejoin:round;stroke-miterlimit:4;stroke-dasharray:none;stroke-opacity:1" />
  </g>
</svg>
