<svg xmlns="http://www.w3.org/2000/svg" viewBox="0 0 507.99999 145.52084"><path d="M460.582 63.152l3.173-9.074" fill="#1a1a1a" stroke="#1a1a1a" stroke-width=".529" stroke-linecap="round" stroke-linejoin="round"/><path d="M467.425 62.567l-2.876-8.392 4.957 8.196" fill="none" stroke="#1a1a1a" stroke-width=".529" stroke-linecap="round" stroke-linejoin="round"/><path d="M461.797 60.396l2.132-6.294" fill="#1a1a1a" stroke="#1a1a1a" stroke-width=".529" stroke-linecap="round" stroke-linejoin="round"/><path d="M466.656 60.396L464.35 54.2M468.54 60.786l-3.966-6.684" fill="#1a1a1a" stroke="#1a1a1a" stroke-width="1.058" stroke-linecap="round" stroke-linejoin="round"/><path d="M465.206 53.863l-1.613-.276" fill="#1a1a1a" stroke="#1a1a1a" stroke-width=".794" stroke-linecap="round" stroke-linejoin="round"/><path d="M463.954 53.468l.074-.342.942.16-.05.377" fill="#1a1a1a" stroke="#1a1a1a" stroke-width=".265" stroke-linecap="round" stroke-linejoin="round"/><path d="M464.474 53.187l.062-.305" fill="#1a1a1a" stroke="#1a1a1a" stroke-width=".397" stroke-linecap="round" stroke-linejoin="round"/><path d="M463.718 52.31l1.773.877" fill="#1a1a1a" stroke="#1a1a1a" stroke-width=".265" stroke-linecap="round" stroke-linejoin="round"/><path d="M466.78 53.15l-3.868-2" fill="#1a1a1a" stroke="#1a1a1a" stroke-width="1.588" stroke-linecap="round" stroke-linejoin="round"/><path d="M463.284 51.345l-1.537-.78" fill="#1a1a1a" stroke="#1a1a1a" stroke-width="2.117" stroke-linejoin="round"/><path d="M461.326 51.37l.843-1.61M466.656 53.077l2.008 1.025" fill="#1a1a1a" stroke="#1a1a1a" stroke-width=".794" stroke-linejoin="round"/><path d="M468.44 54.492l.423-.78" fill="#1a1a1a" stroke="#1a1a1a" stroke-width=".265" stroke-linejoin="round"/><path d="M468.863 53.712l.402.21.07.258-.217.368-.054.092-.18.047-.443-.195" fill="#1a1a1a"/><g stroke="#1a1a1a" stroke-linecap="round"><path d="M.135 53.42l-.002 92.01H507.87l-.004-72.96" fill="none" stroke-width=".265"/><path d="M507.867 72.47c-.663-.268-1.326-.537-1.727-.695-.402-.157-.542-.203-.625-.25-.083-.046-.106-.092-.222-.138-.116-.045-.326-.09-.444-.138-.12-.047-.142-.093-.27-.14-.127-.044-.36-.09-.49-.137-.13-.046-.153-.092-.234-.138-.08-.045-.222-.09-.316-.15-.094-.057-.14-.126-.198-.16-.058-.034-.128-.034-.27-.115-.14-.08-.35-.24-.513-.344-.165-.104-.282-.15-.375-.173-.093-.023-.163-.023-.467-.127-.304-.103-.842-.31-1.145-.414-.304-.103-.374-.103-.457-.138-.082-.034-.176-.103-.257-.138-.082-.034-.152-.034-.374-.126-.223-.092-.597-.276-.854-.39-.257-.116-.397-.162-.537-.208-.14-.046-.28-.092-.444-.126-.163-.035-.35-.058-.456-.093-.106-.035-.13-.08-.198-.104-.07-.023-.186-.023-.467-.092-.282-.07-.726-.207-.96-.3-.235-.092-.258-.138-.316-.16-.057-.023-.15-.023-.443-.092-.29-.07-.782-.207-1.12-.276-.34-.07-.526-.07-.68-.08-.15-.012-.268-.035-.502-.115-.234-.08-.584-.22-.853-.3-.268-.08-.455-.103-.596-.126-.14-.024-.234-.047-.456-.104-.223-.058-.573-.15-.76-.22-.19-.07-.212-.115-.305-.16-.094-.046-.257-.092-.374-.115-.116-.022-.186-.022-.234-.045-.048-.024-.072-.07-.117-.092-.046-.023-.116-.023-.444-.138-.326-.114-.91-.344-1.296-.47-.385-.128-.572-.15-.853-.23-.28-.08-.654-.22-1.05-.346-.398-.127-.82-.242-1.17-.334-.35-.092-.63-.16-.993-.22-.362-.057-.806-.102-1.203-.16-.398-.057-.75-.126-.97-.172-.223-.046-.316-.07-.55-.15-.234-.08-.608-.218-.842-.3-.233-.08-.327-.102-.467-.137-.14-.034-.327-.08-.69-.126-.36-.045-.9-.09-1.273-.126-.374-.034-.584-.057-.795-.08-.21-.023-.42-.046-.982-.127-.56-.08-1.472-.218-2.056-.3-.586-.08-.843-.102-1.123-.125-.28-.023-.585-.046-.842-.058-.257-.01-.467-.01-1.215-.01h-2.97c-.933 0-1.518 0-2.01.01-.49.01-.887.035-1.67.035-.783 0-1.952-.024-2.618-.036-.666-.01-.83-.01-.947-.034-.118-.023-.188-.07-.28-.092-.093-.023-.21-.023-.386-.07-.177-.045-.41-.137-.69-.23-.28-.09-.61-.183-.865-.24-.257-.058-.444-.08-.82-.173-.373-.092-.934-.253-1.307-.345-.374-.092-.56-.115-.994-.218-.432-.104-1.11-.288-1.508-.39-.397-.105-.514-.128-.747-.15-.235-.024-.585-.047-.97-.104-.387-.058-.808-.15-1.1-.22-.292-.068-.456-.114-.666-.16-.21-.046-.468-.092-1.1-.15-.63-.057-1.635-.126-2.488-.195-.853-.07-1.554-.138-2.185-.195-.63-.058-1.19-.104-1.6-.127-.41-.022-.666-.022-1.613.012-.947.035-2.583.104-3.564.15-.982.046-1.31.07-1.578.08-.27.012-.48.012-1.216.012-.737 0-2 0-2.794-.023-.795-.022-1.122-.068-1.356-.09-.233-.024-.374-.024-.783-.024-.41 0-1.087 0-1.426.01-.34.01-.34.034-.41.046-.068.013-.208.013-.617.036-.41.023-1.087.07-1.543.092-.455.023-.69.023-1.227.057-.537.035-1.38.104-1.95.172-.574.068-.878.137-1.17.172-.292.035-.573.035-.947.046-.374.012-.84.035-1.624.046-.783.012-1.882.012-2.887.012-1.005 0-1.917 0-2.594.057-.677.057-1.12.172-1.413.23-.293.058-.433.058-.76.104-.327.045-.842.137-1.543.218-.7.08-1.59.15-2.034.195-.446.045-.446.068-.503.08-.057.013-.174.013-.7.024-.526.012-1.46.035-2.046.046-.583.012-.817.012-1.12.034-.304.023-.678.07-1.03.104-.35.034-.677.057-1.472.103-.794.047-2.056.116-2.77.15-.712.036-.876.036-1.12.093-.246.057-.574.172-.97.287-.398.115-.866.23-1.228.3-.363.068-.62.09-.888.148-.27.058-.55.15-.725.196-.176.046-.246.046-.456.115-.21.067-.56.205-.84.286-.28.08-.49.104-.667.127-.175.023-.315.046-.584.126-.27.08-.667.217-.96.31-.29.092-.478.138-.642.16-.164.024-.304.024-.468.047-.163.023-.35.07-.49.092-.14.022-.234.022-.386.034-.152.01-.362.034-.56.057-.2.024-.387.047-.83.14-.445.09-1.146.252-1.567.332-.42.08-.56.08-.724.104-.164.023-.35.07-.503.092-.152.023-.27.023-.56.07-.293.045-.76.137-1.17.23-.41.09-.76.183-1.168.31-.41.125-.877.286-1.24.4-.36.116-.618.185-.957.266-.34.08-.76.173-1.274.253-.514.08-1.12.15-1.717.23-.596.08-1.18.173-1.636.265-.456.09-.783.183-.994.23-.21.046-.304.046-.48.092-.174.045-.43.137-.62.184-.186.046-.303.046-.373.068-.07.022-.094.068-.152.092-.058.024-.152.024-.455.116-.304.09-.818.275-1.286.413-.467.138-.888.23-1.332.322-.444.09-.912.183-1.216.23-.305.046-.445.046-.713.103-.27.057-.666.172-.935.24-.27.07-.41.093-.55.105-.14.012-.28.012-.55.058-.268.045-.665.137-.97.184-.303.046-.513.046-.7.057-.187.012-.35.034-.807.115-.455.08-1.203.218-1.74.31-.54.092-.866.138-1.135.162-.27.023-.48.023-.63.045-.152.022-.246.068-.375.09-.128.025-.292.025-.923.048-.63.023-1.73.07-2.443.092-.714.023-1.04.023-1.555.09-.514.07-1.215.208-1.648.29-.432.08-.596.102-.795.125-.198.023-.432.046-.818.15-.385.103-.923.287-1.297.39-.374.104-.584.127-.888.207-.305.08-.702.22-.97.3-.27.08-.41.103-.55.115-.14.01-.28.01-.56.07-.282.056-.702.17-1.1.31-.397.136-.77.297-1.04.39-.27.092-.432.115-.526.148-.094.034-.118.08-.2.115-.08.036-.22.06-.548.208-.327.15-.84.425-1.157.564-.317.138-.434.138-.54.15-.104.01-.197.034-.49.126-.29.09-.782.252-1.156.345-.374.092-.632.115-1.1.184-.466.07-1.144.184-1.81.345-.666.16-1.32.367-1.695.47-.375.105-.47.105-.667.15-.2.046-.503.138-.7.218-.2.08-.294.15-.387.185-.094.035-.187.035-.42.092-.234.057-.608.172-.912.264-.304.093-.538.162-.772.254-.233.092-.467.207-.62.265-.15.057-.22.057-.27.08-.046.02-.07.067-.21.114-.14.047-.396.093-.525.138-.13.045-.13.09-.176.115-.044.024-.138.024-.29.08-.152.058-.362.173-.502.23-.14.06-.21.06-.468.196-.257.137-.7.413-1.028.575-.327.16-.538.207-.77.31-.235.103-.492.264-.656.346-.164.08-.234.08-.316.092-.08.01-.175.034-.397.114-.222.08-.572.22-.795.288-.222.07-.315.07-.607.15-.29.08-.782.24-1.075.322-.292.08-.385.08-.444.103-.058.02-.08.067-.315.16-.233.093-.677.23-.946.3-.27.07-.363.07-.422.09-.06.023-.082.07-.21.116s-.362.092-.572.16c-.21.07-.398.16-.538.208-.14.047-.234.047-.293.068-.06.022-.082.068-.163.104-.082.035-.222.058-.41.15-.186.09-.42.252-.56.333-.14.082-.187.082-.468.22-.28.136-.794.412-1.086.562-.292.15-.363.173-.41.206-.047.035-.07.08-.117.105-.045.024-.115.024-.15.046-.038.023-.038.07-.106.116-.07.047-.21.093-.292.138-.082.045-.106.09-.14.115-.035.023-.082.023-.117.045-.036.022-.06.068-.094.092-.033.024-.08.024-.116.046-.035.022-.06.068-.163.15-.104.08-.29.195-.536.3-.246.103-.55.195-.737.24-.187.048-.257.048-.374.105-.117.056-.28.17-.42.24-.14.07-.257.093-.456.23-.2.138-.48.39-.678.54-.2.15-.316.197-.376.242-.06.046-.06.092-.117.138-.057.047-.174.093-.234.138-.06.046-.06.092-.117.127-.057.035-.174.058-.29.115-.118.057-.234.15-.328.196-.094.047-.164.047-.316.126-.15.08-.385.24-.537.322-.152.082-.222.082-.456.196-.235.114-.632.344-.866.46-.234.116-.304.116-.374.15-.07.033-.14.102-.21.137-.07.036-.14.036-.292.092-.152.057-.386.172-.538.23-.152.06-.222.06-.42.16-.2.104-.526.31-.725.415-.2.104-.27.104-.363.15-.093.045-.21.137-.303.184-.095.046-.165.046-.224.08-.06.033-.105.102-.187.15-.082.046-.2.07-.27.103-.07.032-.094.078-.175.125-.08.047-.22.093-.397.196-.175.104-.385.265-.596.403-.21.138-.42.253-.55.31-.128.06-.175.06-.222.093-.047.033-.093.102-.186.16-.094.06-.234.105-.398.22-.163.113-.35.297-.467.39-.118.093-.165.093-.19.115-.024.023-.024.07-.046.093-.022.024-.07.024-.15.08-.083.057-.2.172-.305.242-.106.07-.2.093-.316.16-.117.07-.257.184-.35.243-.094.058-.14.058-.2.103-.058.046-.128.138-.187.185-.058.047-.105.047-.152.08-.047.034-.093.103-.316.012-.224-.09-.62-.343-.854-.47-.233-.127-.303-.127-.34-.15-.035-.025-.035-.07-.08-.104-.047-.033-.14-.056-.398-.206s-.68-.425-.96-.586c-.28-.16-.42-.206-.502-.253-.082-.046-.106-.092-.14-.115-.033-.023-.08-.023-.245-.114-.163-.092-.443-.276-.653-.38-.21-.103-.35-.126-.608-.24-.258-.116-.632-.323-.854-.427-.22-.103-.29-.103-.537-.194-.247-.092-.668-.276-1.018-.39-.35-.116-.63-.162-.877-.22-.245-.057-.456-.126-.853-.287-.398-.162-.982-.415-1.31-.542-.325-.126-.396-.126-.513-.172-.12-.046-.282-.138-.55-.242-.27-.103-.643-.218-.877-.276-.233-.057-.326-.057-.502-.115-.175-.057-.432-.172-.595-.23-.163-.057-.234-.057-.293-.08-.06-.023-.106-.07-.187-.115-.082-.046-.2-.092-.292-.115-.093-.023-.163-.023-.2-.047-.035-.024-.035-.07-.07-.092-.033-.022-.103-.022-.197-.068-.095-.046-.212-.138-.398-.242-.187-.103-.444-.218-.736-.31s-.62-.16-1.052-.31c-.433-.15-.97-.38-1.356-.54-.385-.162-.62-.254-.864-.346-.246-.092-.503-.184-.678-.23-.175-.046-.268-.046-.514-.127-.246-.08-.643-.24-.994-.366-.35-.127-.654-.22-.946-.288-.292-.07-.573-.115-.726-.16-.153-.048-.176-.094-.34-.162-.162-.07-.465-.16-.863-.24-.398-.082-.89-.15-1.368-.254-.48-.104-.947-.242-1.262-.31-.315-.07-.48-.07-.69-.093-.21-.023-.467-.07-.666-.115-.2-.046-.34-.092-.48-.138-.14-.046-.28-.092-.374-.138-.094-.046-.14-.092-.21-.115-.07-.022-.162-.022-.28-.045-.117-.023-.257-.07-.456-.16-.2-.093-.456-.23-.63-.3-.176-.07-.27-.07-.457-.126-.187-.06-.468-.174-.654-.23-.187-.06-.28-.06-.503-.128-.222-.07-.573-.207-.794-.276-.222-.07-.315-.07-.69-.184-.374-.115-1.03-.345-1.402-.46-.374-.115-.467-.115-.643-.16-.175-.047-.432-.14-.712-.23-.28-.093-.585-.185-.935-.277-.35-.092-.748-.184-1.227-.264-.48-.08-1.04-.15-1.554-.218-.514-.07-.982-.138-1.53-.218-.55-.08-1.182-.173-1.684-.242-.503-.07-.877-.115-1.332-.16-.456-.047-.994-.093-1.426-.127-.433-.035-.76-.058-1.368-.15-.607-.092-1.496-.253-1.987-.344-.49-.09-.584-.114-.724-.15-.14-.033-.327-.08-.654-.126s-.794-.092-1.32-.183c-.526-.09-1.11-.23-1.485-.31-.372-.08-.536-.104-.758-.127-.222-.023-.502-.046-.818-.08-.316-.034-.666-.08-.947-.115-.28-.035-.49-.058-.83-.08-.338-.024-.806-.047-1.273-.07-.468-.023-.935-.046-1.414-.09-.48-.047-.97-.116-1.32-.15-.35-.036-.562-.036-1.04-.093-.48-.057-1.23-.172-1.825-.276-.596-.104-1.04-.196-1.472-.288-.433-.092-.853-.184-1.25-.276-.398-.092-.772-.184-1.04-.253-.27-.07-.433-.115-.597-.16l-.573-.162c-.245-.068-.572-.16-.75-.23-.175-.07-.198-.115-.302-.16-.104-.046-.29-.092-.49-.127-.198-.034-.408-.057-.526-.092-.118-.034-.14-.08-.362-.126-.22-.045-.642-.09-1.063-.195-.422-.104-.843-.265-1.146-.357-.304-.092-.49-.115-.597-.15-.106-.035-.13-.08-.27-.127-.138-.045-.395-.09-.63-.183-.234-.092-.444-.23-.608-.322-.164-.09-.28-.137-.374-.16-.093-.023-.163-.023-.21-.047-.05-.023-.072-.07-.258-.15-.187-.08-.537-.194-.84-.274-.305-.082-.562-.128-.714-.174-.153-.046-.2-.092-.328-.138-.128-.046-.338-.092-.7-.207-.363-.114-.877-.298-1.17-.413-.292-.115-.362-.16-.49-.207-.128-.046-.315-.092-.467-.115-.153-.023-.27-.023-.352-.046-.083-.024-.13-.07-.456-.14-.327-.068-.934-.16-1.507-.218-.572-.057-1.11-.08-1.578-.137-.468-.058-.865-.15-1.414-.357-.55-.207-1.25-.53-1.672-.713-.42-.184-.56-.23-.746-.276-.187-.047-.42-.093-.55-.14-.13-.046-.153-.092-.316-.137-.163-.046-.466-.092-.794-.184-.328-.093-.678-.23-.9-.31-.222-.082-.315-.105-.49-.128-.176-.023-.433-.046-.89-.138-.455-.092-1.11-.253-1.577-.356-.467-.104-.747-.15-1.12-.207-.375-.057-.843-.126-1.182-.16-.338-.035-.55-.035-.818-.07-.27-.034-.596-.103-.91-.16-.317-.058-.62-.104-1.077-.22-.456-.113-1.064-.297-1.496-.435-.432-.138-.69-.23-.982-.31-.292-.082-.62-.15-.97-.266-.35-.116-.725-.277-.958-.37-.234-.09-.327-.114-.444-.125-.116-.012-.257-.012-.467-.058-.21-.046-.492-.138-.737-.195-.245-.058-.455-.08-.876-.115-.42-.035-1.052-.08-1.53-.127-.48-.046-.807-.092-1.217-.15-.41-.057-.9-.126-1.273-.16-.374-.035-.63-.035-1.052-.08-.42-.047-1.005-.14-1.67-.185-.667-.046-1.415-.046-1.953-.07-.538-.022-.865-.068-1.216-.137-.352-.07-.726-.16-.983-.23s-.397-.115-.69-.23c-.292-.115-.736-.3-1.004-.402-.27-.104-.363-.127-.865-.138-.502-.012-1.414-.012-2.325-.058-.912-.046-1.824-.138-2.467-.218-.642-.08-1.016-.15-1.32-.184-.304-.035-.537-.035-.783-.046-.245-.012-.503-.035-.725-.058-.222-.023-.41-.046-.736-.15-.328-.102-.795-.286-1.134-.39-.34-.104-.55-.127-1.098-.207-.55-.08-1.438-.218-1.987-.3-.55-.08-.76-.102-1.367-.126-.608-.022-1.613-.045-2.56-.08-.946-.034-1.835-.08-2.384-.114-.55-.034-.76-.057-1.005-.08-.245-.023-.526-.046-1.052-.08-.526-.035-1.297-.08-1.8-.104-.502-.024-.736-.024-1.227-.047-.49-.022-1.238-.068-2.127-.16-.887-.092-1.916-.23-2.547-.31-.63-.08-.864-.104-1.203-.127-.34-.023-.783-.046-1.263-.092-.48-.046-.993-.115-1.52-.242-.525-.126-1.063-.31-1.402-.414-.338-.103-.48-.126-.677-.15-.2-.022-.456-.045-.69-.057-.233-.01-.444-.01-.608-.034-.164-.024-.28-.07-.467-.093-.187-.023-.444-.023-.713-.046-.27-.022-.55-.068-.84-.09-.293-.024-.597-.024-.854-.047-.258-.023-.468-.07-.737-.092-.27-.023-.596-.023-1.134-.15-.538-.125-1.286-.378-1.777-.528-.492-.15-.726-.195-1.088-.253-.362-.058-.853-.127-1.18-.162-.327-.035-.49-.035-.76-.08-.27-.046-.643-.138-1.18-.22-.538-.08-1.24-.15-1.882-.195-.642-.046-1.227-.07-1.963-.103-.736-.035-1.624-.08-2.267-.07-.643.012-1.04.08-1.45.127-.408.046-.83.07-1.495.046-.667-.022-1.578-.09-2.385-.206-.806-.115-1.508-.276-1.975-.403-.468-.126-.702-.218-.923-.287-.222-.07-.433-.115-.55-.162-.118-.046-.142-.092-.27-.138-.127-.045-.36-.09-.49-.138-.13-.047-.153-.093-.21-.116-.058-.023-.15-.023-.48-.114-.326-.092-.887-.276-1.226-.368-.338-.092-.455-.092-.62-.115-.163-.023-.373-.07-.525-.092-.15-.023-.244-.023-.466-.058-.223-.034-.573-.103-.83-.15-.257-.045-.42-.068-.772-.137-.35-.07-.888-.184-1.17-.265-.28-.08-.304-.127-.397-.16-.092-.035-.256-.058-.595-.08-.338-.024-.853-.047-1.39-.07-.538-.023-1.1-.046-1.742-.07-.642-.022-1.367-.045-1.81-.057-.445-.01-.61-.01-.97-.08-.364-.07-.925-.207-1.218-.3-.293-.092-.316-.138-.374-.16-.057-.023-.15-.023-.408-.092-.257-.07-.678-.207-.958-.276-.28-.07-.42-.07-.63-.092-.212-.023-.492-.07-.737-.092-.246-.023-.456-.023-.783-.046-.328-.023-.772-.07-1.298-.115-.526-.046-1.133-.092-1.963-.173-.83-.08-1.883-.195-2.502-.264-.62-.07-.807-.092-1.18-.138-.375-.046-.936-.115-1.683-.138-.748-.023-1.683 0-2.992-.012-1.31-.01-2.992-.057-3.962-.103-.97-.046-1.227-.092-1.472-.126-.245-.034-.48-.057-.748-.07-.268-.01-.572-.01-.993-.056-.42-.046-.96-.138-1.625-.218-.666-.08-1.46-.15-1.998-.185-.537-.033-.818-.033-1.32-.09-.503-.058-1.228-.173-1.684-.23-.455-.058-.642-.058-.91-.115-.27-.058-.62-.173-.878-.23-.257-.058-.42-.058-.56-.092-.142-.035-.26-.104-.41-.138-.152-.035-.34-.035-.55-.058-.21-.023-.443-.07-.654-.126-.21-.057-.398-.126-.572-.16-.175-.035-.34-.035-.888-.012-.55.023-1.484.07-2.022.103-.537.036-.678.06-.9.07-.222.012-.526.012-1.075.035-.548.023-1.343.07-2.313.08-.97.012-2.116-.01-2.817 0-.7.012-.958.058-1.367.092-.41.035-.97.058-1.53.058-.562 0-1.123-.023-1.463-.057-.34-.035-.456-.08-.642-.104-.187-.023-.444-.023-.585-.035-.14-.012-.165-.035-.28-.047-.116-.01-.327-.01-.946 0-.62.012-1.648.035-2.455.046-.806.01-1.39.01-1.717.022-.327.01-.397.034-.48.046-.082.012-.175.012-.455.023-.28.013-.748.036-1.04.047-.293.012-.41.012-.47.022-.06.01-.06.033-.62.034-.56 0-1.68-.022-2.838-.045-1.157-.024-2.35-.047-3.038-.047-.69 0-.876.022-1.67.114-.796.092-2.198.253-3.496.346-1.297.092-2.49.115-3.237.138-.747.023-1.05.046-1.4.08-.352.035-.75.08-1.228.127-.48.046-1.04.092-1.438.116-.397.023-.63.023-.818.034-.187.01-.327.034-.596.103-.27.07-.666.184-.958.253-.293.07-.48.092-.655.104-.175.01-.34.01-.55.046-.21.034-.466.103-.7.138-.234.035-.445.035-.69.058-.245.023-.526.07-.818.138-.293.07-.597.16-.83.207-.235.046-.398.046-.492.057-.093.01-.117.033-.245.07-.128.034-.362.08-.935.126-.573.046-1.484.092-2.045.115-.56.024-.772.024-1.005.06-.234.033-.49.102-.923.17-.433.07-1.04.14-1.532.185-.49.046-.864.07-1.46.184-.596.114-1.414.32-1.86.447-.443.126-.513.172-.665.218-.152.047-.385.093-.666.116-.28.024-.608.024-1.122.047-.514.023-1.215.07-1.87.104-.654.035-1.262.058-1.683.092-.42.035-.55.05-.59.108" fill="none" stroke-width=".265" stroke-linejoin="round"/><path d="M.295 99.59l.017-45.304-.135-.926c.848-.166 4.213-.084 5.447-.242.6-.077 2.673-.756 4.84-.997 1.793-.198 4.764-.582 7.536-.962 1.745-.24 2.92-.555 5.032-.786 4.423-.484 9.976-.827 12.587-.945 3.26-.147 7.96-.07 13.063-.173 2.658-.053 4.71.227 7.135.133 6.27-.244 5.552-.07 8.325-.318 2.33-.21 5.142.564 5.38.655 1.372.53 11.293 1.195 15.843 1.31 2.25.006 5.642.392 7.665.512 2.182.13 5.712.255 6.282.9 2.152.44 5.52.798 7.24.682 1.462-.1 3.674.815 5.334 1.05 2.68.382 4.6 1.176 4.753 1.27.593.36 1.988.962 8.244.585 2.693-.163 5.995.355 7.538.64 1.543.285 4.797 1.17 7.082 1.332 2.285.163 5.17.672 6.434.942 2.316.494 5.424.602 14.128 1.21 2.612.18 2.816-.002 5.014.253 1.814.25 1.823.474 4.14 1.013.657.154 6.688.442 8.158.66.886.13 1.682.688 2.552.833 2.314.383 2.903.277 4.137.29 1.234.015 2.58.313 4.347.508 1.12.04 2.09.166 3.787.52 1.894.394 3.96 1.378 5.34 1.61 4.034.677 5.815.78 8.246 1.328 1.827.41 2.822 1.32 5.332 2.027 1.667.468 2.594.092 4.037.54 1.59.497 2.95.945 4.377 1.35.927.262 2.098 1.042 2.948 1.27 4.51 1.206 7.887 1.933 9.62 2.36 1.08.157 2.6.632 3.946.65 1.653.024 1.078.16 3.033.29 1.62.094 1.79.116 2.715.222 2.955.34 4.74.747 12.53 1.865 1.73.248 3.77.52 4.593.67 1.144.242 1.09.27 1.634.466.198.07-.405.004 9.88 2.936 1 .285 2.977.646 3.998 1.007.196-.036 3.124.923 5.242 1.9 1.593.424 4.026 1.45 4.716 1.748.752.324 4.318 1.307 5.86 2.01 1.544.705 1.568.79 1.877.822 1.493.428 3.412 2.08 3.927 2.22.797.21.303.358.797.21.45-.134.752-.4 1.47-.797.346-.633.763-1.018.93-.855.14.138 1.238-.716 3.397-1.87 2.324-1.24 5.784-2.84 7.907-4.322.39-.272.758-.178 1.17-.413 1.06-.605 2.45-1.547 5.022-2.736 1.916-.885 4.885-1.494 5.69-1.78 2.005-.754 3.04-1.446 5.92-2.53 2.14-.802 4.28-1.53 6.81-2.063 2.424-.512 2.724-.306 4.307-1.033 2.716-1.245 6.43-2.225 8.98-2.83 3.82-.91 7.15-.754 9.586-1.037 2.468-.288 5.697-.872 7.24-1.193 1.542-.32 5.104-1.3 6.03-1.457.572-.013 1.02-.33 2.423-.582.867-.156 2.424-.022 3.625-.578 1.27-.587 13.74-2.883 18.664-4.176 4.185-1.1 8.007-.47 10.226-.56 1.477-.063 4.21-.683 6.81-.898 7.34-.608 4.482.25 6.63-.083 5.235-.815 11.607-.56 18.004-.6.634-.005 2.522-.216 3.41-.16 3.747.242 5.883.343 8.06.634 2.1.28 3.826.785 5.435 1.107 1.763.354 1.743.358 4.22 1.042 1.52.42 4.146.302 6.705.292.975-.004 2.15.116 3.433.024 4.27-.308 11.423 1.08 16.322 2.483 3.008.943 6.047 1.94 6.588 2.06 1.764.38 3.874.916 5.895 1.587 2.428.807 4.737 1.775 6.31 2.443l3.797 1.61-.148 36.564.124 36.262-253.81.13-253.9.005z" fill="#1a1a1a" stroke-width=".265" stroke-linejoin="round"/><path d="M163.873 60.713l1.488-5.952M175.476 62.018l.73-4.818M188.95 58.97l-.536 4.748M198.73 59.395l-.173 6.648M210.383 64.03l-1.128 5.086M221.217 66.128l-.447 5.867M231.542 68.165l-.1 6.745M241.05 69.738l.037 6.44M251.35 71.53l-.445 6.356M259.223 73.58l-.943 5.513M267.776 75.337l-.46 6.098M275.436 78.74l.41 4.66M282.874 80.52l-1.897 4.66M287.832 83.374l-1.983 3.964M291.6 85.777l-.842 3.208M294.23 87.277l-1.13 2.83" fill="none" stroke-width=".794"/><path d="M295.766 89.24l-.818 2.014M297.49 90.13l-1.042 1.855" fill="none" stroke-width=".529"/><path d="M164.183 55.43l12.334 2.83M163.377 57.785l12.768 1.854M176.517 58.26l12.99 1.257M176.145 59.64l13.065 2.122M189.508 59.517l9.098.415M189.21 61.762l9.793 2.073M198.73 59.395l11.752 5.294M199.003 63.835l11.18 2.854M210.482 64.69l11.23 1.926M210.184 66.69l11.28 2.048M221.712 66.616l10.34 2.56M221.465 68.738l10.437 2.147M232.05 69.177l9.298 1.196M231.902 70.885l9.495 1.244M241.348 70.373l10.338 2.05M241.397 72.13l10.19 2.316M251.686 72.422l7.983 1.927M251.587 74.446l7.61 1.464M259.67 74.35l8.502 1.95M259.198 75.91l8.826 2.244M268.172 76.3l7.165 2.976M268.024 78.154l7.487 2.732M275.337 79.276l7.09 1.683M275.51 80.886l6.794 1.976M282.428 80.96l5.528 3.073M282.304 82.862l4.958 2.366M287.956 84.033l3.868 2.22M287.262 85.228l4.264 2M291.824 86.253l1.958 1.293M291.526 87.23l2.108 1.072M294.278 87.863l1.413 1.512M293.93 88.57l1.687 1.513M295.865 89.424l1.388.732M295.592 90.13l1.463.465M297.55 90.35l.968.22M297.278 90.74l.868.196" fill="none" stroke-width=".265" stroke-linejoin="bevel"/><path d="M65.003 35.587L81.96 22.95l16.363 11.954" fill="none" stroke-width="1.323" stroke-linejoin="round"/><path d="M69.333 32.785v19.8h25.49V32.648" fill="none" stroke-width="1.323" stroke-linejoin="round"/><path d="M93.795 51.45c-.163-.017-.55-.054-.86-.084-.708-.07-3.18-.34-3.943-.433-.51-.063-.89-.075-3.278-.1-3.672-.042-5.506-.107-6.397-.227-.2-.028-.666-.066-1.034-.086-.367-.02-.834-.058-1.036-.084l-1.035-.136c-.826-.11-1.51-.178-2.26-.226-1.124-.072-1.5-.11-2.508-.245l-1.306-.175-.29-.037v-8.446c0-4.645-.008-8.468-.018-8.495-.013-.032.14-.167.465-.408l5.842-4.353 2.384-1.777 2.013-1.5c.903-.673 1.437-1.05 1.466-1.034.023.013 2.806 2.043 6.182 4.51l6.14 4.484v18.888l-.115-.005c-.062-.002-.248-.018-.412-.034zM82.333 24.2c.088-.048.087-.18-.002-.26-.058-.05-.085-.055-.158-.022-.135.06-.148.142-.038.236.11.092.11.092.2.045z" fill="#1a1a1a" stroke-width=".529" stroke-linejoin="round"/><ellipse cx="66.843" cy="34.923" rx=".561" ry=".552" fill="#1a1a1a" stroke-width=".529" stroke-linejoin="round"/><ellipse cy="34.923" cx="97.206" rx=".561" ry=".552" fill="#1a1a1a" stroke-width=".529" stroke-linejoin="round"/><path d="M81.884 22.573v-1.76l1.79-.103-3.963.207" fill="none" stroke-width=".529" stroke-linejoin="round"/><path d="M83.813 21.09l-.105-.932.736.414zM79.99 20.78l-.665-.553M79.92 21.055l-.56.552M80.412 20.71l-.42-.483M80.342 20.986l-.35.518" fill="#1a1a1a" stroke-width=".265" stroke-linejoin="round"/><path d="M47.853 22.395v39.557" fill="none" stroke-width="21.96" stroke-linejoin="round"/><path fill="#1a1a1a" stroke-width=".794" stroke-linejoin="round" d="M37.005 20.67H58.7v40.366H37.006z"/><path d="M36.76 25.367h22.188M36.76 30.37h22.188M36.76 36.026h22.188M36.76 41.27h22.188M36.76 45.962h22.188" fill="#1a1a1a" stroke-width="1.323" stroke-linejoin="round"/><path d="M94.506 68.037l-.913-.084c-.753-.068-3.38-.34-4.192-.433-.542-.062-.946-.074-3.483-.1-3.902-.04-5.85-.106-6.797-.227-.214-.027-.71-.066-1.1-.086-.39-.02-.886-.057-1.1-.084l-1.1-.135c-.878-.11-1.606-.178-2.404-.226-1.193-.072-1.594-.11-2.664-.245-.594-.075-1.22-.154-1.388-.174l-.307-.038V57.76c0-4.645-.01-8.468-.02-8.495-.014-.033.148-.167.494-.408.495-.345 2.13-1.49 6.21-4.353l2.533-1.776 2.138-1.5c.96-.673 1.53-1.05 1.56-1.035.025.014 2.982 2.043 6.57 4.51l6.525 4.485V68.076l-.12-.004c-.068 0-.265-.016-.44-.033zm-12.182-27.25c.094-.047.093-.18-.003-.258-.06-.053-.09-.057-.167-.024-.144.06-.158.142-.04.235.116.094.115.094.21.046z" fill="#1a1a1a" stroke-width=".529" stroke-linejoin="round"/></g></svg>