<?xml version="1.0" encoding="UTF-8" standalone="no"?>
<!-- Created with Inkscape (http://www.inkscape.org/) -->

<svg
   xmlns:dc="http://purl.org/dc/elements/1.1/"
   xmlns:cc="http://creativecommons.org/ns#"
   xmlns:rdf="http://www.w3.org/1999/02/22-rdf-syntax-ns#"
   xmlns:svg="http://www.w3.org/2000/svg"
   xmlns="http://www.w3.org/2000/svg"
   xmlns:sodipodi="http://sodipodi.sourceforge.net/DTD/sodipodi-0.dtd"
   xmlns:inkscape="http://www.inkscape.org/namespaces/inkscape"
   width="150"
   height="150"
   viewBox="0 0 39.687499 39.687501"
   version="1.1"
   id="svg8"
   inkscape:version="0.92.1 r15371"
   sodipodi:docname="resumeHoverBackground_transparent.svg">
  <defs
     id="defs2" />
  <sodipodi:namedview
     id="base"
     pagecolor="#ffffff"
     bordercolor="#666666"
     borderopacity="1.0"
     inkscape:pageopacity="0.0"
     inkscape:pageshadow="2"
     inkscape:zoom="2.8284271"
     inkscape:cx="58.047312"
     inkscape:cy="88.449816"
     inkscape:document-units="px"
     inkscape:current-layer="layer1"
     showgrid="true"
     units="px"
     inkscape:pagecheckerboard="true"
     inkscape:showpageshadow="false"
     borderlayer="true"
     inkscape:window-width="1920"
     inkscape:window-height="1017"
     inkscape:window-x="-8"
     inkscape:window-y="-8"
     inkscape:window-maximized="1"
     inkscape:object-nodes="false"
     inkscape:object-paths="false">
    <inkscape:grid
       type="xygrid"
       id="grid5813" />
  </sodipodi:namedview>
  <metadata
     id="metadata5">
    <rdf:RDF>
      <cc:Work
         rdf:about="">
        <dc:format>image/svg+xml</dc:format>
        <dc:type
           rdf:resource="http://purl.org/dc/dcmitype/StillImage" />
        <dc:title></dc:title>
      </cc:Work>
    </rdf:RDF>
  </metadata>
  <g
     inkscape:label="Layer 1"
     inkscape:groupmode="layer"
     id="layer1"
     transform="translate(0,-257.31249)">
    <circle
       style="opacity:0.31799999;fill:#ffffff;fill-opacity:1;stroke:none;stroke-width:0.39687499;stroke-linecap:round;stroke-linejoin:miter;stroke-miterlimit:4;stroke-dasharray:none;stroke-opacity:1"
       id="path4519"
       cx="-30.231316"
       cy="250.27934"
       r="19.84375" />
    <path
       style="opacity:1;fill:#f2f2f2;fill-opacity:1;stroke:none;stroke-width:0.52916664;stroke-linecap:round;stroke-linejoin:round;stroke-miterlimit:4;stroke-dasharray:none;stroke-opacity:1"
       d="m 9.0058445,262.12212 c -0.1445877,0 -0.260966,0.11638 -0.260966,0.26097 v 30.79656 c 0,0.14459 0.1163783,0.26097 0.260966,0.26097 H 32.494849 c 0.14459,0 0.260967,-0.11638 0.260967,-0.26097 v -30.79656 c 0,-0.14459 -0.116377,-0.26097 -0.260967,-0.26097 z m 5.2782305,0.77618 h 4.515487 v 1.05833 h -4.515487 z m 5.044653,0 h 1.851567 v 1.05833 h -1.851567 z m 2.38125,0 h 6.911723 v 1.05833 h -6.911723 z m -8.484753,1.5875 h 5.0276 v 0.52968 h -5.0276 z m 5.556767,0 h 0.529167 v 0.52968 h -0.529167 z m 1.058333,0 h 1.05885 v 0.52968 h -1.05885 z m 1.3224,0 h 3.176034 v 0.52968 h -3.176034 z m 3.7052,0 h 0.529167 v 0.52968 h -0.529167 z m 1.05885,0 h 3.439067 v 0.52968 h -3.439067 z m -15.61145,1.05885 h 21.167699 v 0.5271 H 10.315325 Z m 1.32395,1.3224 h 5.29115 v 0.52917 h -5.29115 z m 17.990116,0 h 1.324467 v 0.52917 h -1.324467 z m -16.931266,1.05833 h 4.49585 v 0.52917 h -4.49585 z m 0,1.05885 h 2.9099 v 0.52917 h -2.9099 z m -1.05885,1.05627 h 7.142717 v 0.52968 h -7.142717 z m 17.726567,0 h 1.588016 v 0.52968 h -1.588016 z m -16.667717,1.05885 h 5.5547 v 0.52917 h -5.5547 z m 0,1.05833 h 4.2323 v 0.52969 h -4.2323 z m 0,1.05885 h 1.3224 v 0.52917 h -1.3224 z m -2.3828,1.3224 h 21.167699 v 0.52917 H 10.315325 Z m 1.32395,1.05834 h 5.820317 v 0.52916 h -5.820317 z m 17.726567,0 h 1.588016 v 0.52916 h -1.588016 z m -16.667717,1.05885 h 14.810466 v 0.52916 H 12.698125 Z m 0.800469,0.79478 h 14.023433 v 0.5271 H 13.498594 Z m -0.0155,0.80047 h 9.259899 v 0.52968 h -9.259899 z m -1.843816,1.31465 h 4.498434 v 0.52916 h -4.498434 z m 18.156515,0 h 1.158068 v 0.52916 H 29.79579 Z m -17.097665,1.05885 h 14.810466 v 0.52916 H 12.698125 Z m 0.800469,0.79478 h 7.689453 v 0.5271 h -7.689453 z m -0.810287,1.0821 h 9.26145 v 0.52917 h -9.26145 z m 0.810287,0.80254 H 27.52203 v 0.52917 H 13.498594 Z m 0,0.75964 H 27.52203 v 0.52969 H 13.498594 Z m 0,0.81081 h 9.525516 v 0.52916 h -9.525516 z m -3.183269,1.3224 h 21.167699 v 0.52916 H 10.315325 Z m 1.32395,1.31413 h 5.820317 v 0.52916 h -5.820317 z m 17.189648,0 h 2.124935 v 0.52916 h -2.124935 z m -16.130798,1.05885 H 26.71381 v 0.52917 H 12.698125 Z m -1.05885,1.07022 h 5.820317 v 0.5271 h -5.820317 z m 18.240232,0 h 1.074351 v 0.5271 H 29.87951 Z m -17.181382,1.05678 h 12.962517 v 0.52917 h -12.96252 z"
       id="rect5912"
       inkscape:connector-curvature="0" />
  </g>
</svg>
