<?xml version="1.0" standalone="no"?>
<!DOCTYPE svg PUBLIC "-//W3C//DTD SVG 20010904//EN"
 "http://www.w3.org/TR/2001/REC-SVG-20010904/DTD/svg10.dtd">
<svg version="1.0" xmlns="http://www.w3.org/2000/svg"
 width="700.000000pt" height="700.000000pt" viewBox="0 0 700.000000 700.000000"
 preserveAspectRatio="xMidYMid meet">
<metadata>
Created by potrace 1.11, written by Peter Selinger 2001-2013
</metadata>
<g transform="translate(0.000000,700.000000) scale(0.100000,-0.100000)"
fill="#000000" stroke="none">
<path d="M1670 6893 c-414 -31 -784 -199 -1074 -489 -260 -261 -420 -579 -478
-954 -19 -125 -19 -3775 0 -3900 58 -375 218 -693 478 -954 261 -260 579 -420
954 -478 125 -19 3775 -19 3900 0 375 58 693 218 954 478 260 261 420 579 478
954 19 125 19 3775 0 3900 -58 375 -218 693 -478 954 -253 252 -537 399 -919
474 -71 14 -295 16 -1925 17 -1015 1 -1865 0 -1890 -2z m1127 -1383 c47 -29
77 -82 129 -237 l47 -138 1 -155 c1 -133 -2 -165 -21 -225 -12 -38 -33 -117
-47 -175 -30 -121 -85 -296 -202 -639 -46 -135 -82 -246 -80 -248 2 -2 14 1
27 6 40 16 203 42 317 52 255 20 366 40 447 79 47 23 65 20 65 -8 0 -16 -212
-209 -295 -270 -36 -26 -147 -56 -270 -72 -71 -9 -355 -38 -386 -40 -4 0 -23
-33 -42 -72 -19 -40 -62 -116 -95 -168 -33 -52 -91 -146 -128 -208 -37 -61
-81 -129 -99 -150 -18 -20 -44 -57 -60 -82 -15 -25 -42 -61 -60 -80 -17 -19
-75 -92 -128 -161 -53 -70 -134 -171 -179 -226 -46 -55 -121 -149 -168 -208
-51 -65 -156 -174 -265 -277 -193 -181 -267 -231 -367 -244 -57 -8 -127 22
-162 70 -67 92 -113 266 -122 466 -8 156 6 219 80 374 130 275 327 498 597
677 52 35 121 83 153 108 75 57 200 128 246 141 l35 9 -3 330 c-3 373 2 418
78 655 21 68 48 168 59 223 31 150 93 323 148 409 59 93 180 212 300 292 113
76 298 191 327 202 36 15 90 11 123 -10z m2563 -620 c41 -5 118 -12 171 -15
235 -13 384 -119 449 -318 l12 -38 42 35 c23 19 71 48 107 65 122 58 278 121
298 121 33 0 26 -36 -12 -59 -18 -11 -42 -30 -53 -42 -10 -12 -50 -41 -89 -66
-65 -42 -255 -182 -255 -188 0 -1 7 -40 14 -86 43 -250 56 -521 36 -759 -24
-285 -42 -353 -132 -509 -72 -123 -128 -179 -309 -303 -286 -198 -324 -212
-563 -207 l-164 4 -99 50 -99 51 -68 -73 c-84 -90 -208 -191 -290 -234 -86
-46 -158 -47 -212 -3 -52 41 -87 102 -136 231 -34 90 -41 121 -41 183 -2 139
55 200 300 325 l157 80 131 3 131 4 23 60 c47 122 60 245 61 579 l0 306 -43
27 c-23 15 -52 41 -64 59 -27 40 -47 128 -39 175 5 33 0 42 -71 125 -41 49
-76 97 -77 106 -1 18 307 231 335 231 9 0 24 -9 34 -20 18 -20 18 -19 79 24
136 97 190 106 436 76z m-1794 -2014 c3 -8 -14 -44 -38 -81 l-43 -66 -179 -90
c-162 -82 -180 -89 -194 -75 -14 14 -11 23 34 88 l49 73 165 82 c170 84 197
93 206 69z m2872 -33 c2 -12 -4 -37 -12 -57 -13 -32 -30 -43 -185 -121 -94
-47 -178 -85 -187 -85 -13 0 -15 7 -11 36 3 20 13 47 22 60 16 24 340 196 360
190 6 -1 11 -12 13 -23z"/>
<path d="M2432 5173 c-22 -32 -47 -74 -57 -93 -21 -40 -95 -267 -95 -290 0
-23 -58 -248 -70 -269 -5 -10 -21 -64 -37 -122 -28 -102 -28 -109 -33 -454
l-5 -349 -87 -51 c-103 -60 -113 -68 -67 -54 19 6 83 24 144 40 60 16 113 33
116 37 12 11 64 149 93 242 14 47 37 114 50 150 44 119 125 383 161 525 19 77
40 158 46 180 7 24 9 92 6 170 -4 118 -8 140 -42 235 -42 118 -61 160 -75 160
-5 0 -27 -26 -48 -57z"/>
<path d="M2065 3304 c-38 -14 -135 -44 -215 -68 -80 -23 -172 -54 -205 -68
-33 -14 -77 -31 -97 -37 -49 -16 -105 -62 -184 -151 -115 -131 -214 -278 -273
-405 l-55 -120 -4 -126 c-5 -149 14 -267 60 -378 l31 -75 40 45 c21 24 66 80
99 124 33 44 82 105 108 135 53 62 119 144 200 251 30 40 73 93 96 118 22 26
62 78 88 116 25 39 71 104 101 145 30 41 54 79 55 83 0 5 26 50 58 100 141
221 202 338 176 337 -5 0 -40 -12 -79 -26z"/>
<path d="M5010 4606 c0 -3 16 -30 34 -59 19 -28 47 -84 61 -124 26 -69 28 -71
69 -82 43 -11 423 -17 433 -7 11 11 -31 100 -65 138 -66 73 -157 105 -336 118
-72 6 -146 13 -163 16 -18 3 -33 3 -33 0z"/>
<path d="M5569 4115 c-116 -59 -184 -75 -313 -75 l-106 0 0 -182 c0 -175 -15
-326 -41 -435 -17 -70 -81 -228 -139 -344 -40 -78 -49 -104 -40 -114 7 -8 69
-45 138 -82 l127 -67 151 -4 c146 -4 152 -3 177 20 35 31 113 174 136 251 63
207 69 675 13 1015 -5 29 -11 54 -13 56 -2 2 -43 -16 -90 -39z"/>
<path d="M4350 2842 c0 -10 40 -120 60 -164 7 -15 16 -25 21 -23 10 7 69 112
69 125 0 5 -17 21 -39 35 -41 28 -111 45 -111 27z"/>
</g>
</svg>
